<?xml version="1.0" encoding="utf-8"?>
<!-- Generator: Adobe Illustrator 22.0.1, SVG Export Plug-In . SVG Version: 6.00 Build 0)  -->
<svg version="1.1" xmlns="http://www.w3.org/2000/svg" xmlns:xlink="http://www.w3.org/1999/xlink" x="0px" y="0px"
	 viewBox="0 0 100 100" style="enable-background:new 0 0 100 100;" xml:space="preserve">
<style type="text/css">
	.st0{clip-path:url(#SVGID_2_);}
	.st1{fill:url(#SVGID_3_);}
	.st2{fill:url(#SVGID_4_);}
	.st3{fill:url(#SVGID_5_);}
	.st4{fill:url(#SVGID_6_);}
	.st5{fill:url(#SVGID_7_);}
	.st6{opacity:0.5;}
	.st7{fill:url(#SVGID_8_);}
	.st8{fill:url(#SVGID_9_);}
	.st9{fill:url(#SVGID_10_);}
	.st10{fill:url(#SVGID_11_);}
	.st11{fill:url(#SVGID_12_);}
	.st12{fill:url(#SVGID_13_);}
	.st13{fill:url(#SVGID_14_);}
	.st14{fill:url(#SVGID_15_);}
	.st15{fill:url(#SVGID_16_);}
	.st16{fill:url(#SVGID_17_);}
	.st17{fill:url(#SVGID_18_);}
	.st18{fill:url(#SVGID_19_);}
	.st19{fill:url(#SVGID_20_);}
	.st20{fill:url(#SVGID_21_);}
	.st21{fill:url(#SVGID_22_);}
	.st22{fill:url(#SVGID_23_);}
	.st23{fill:url(#SVGID_24_);}
	.st24{fill:url(#SVGID_25_);}
	.st25{fill:url(#SVGID_26_);}
	.st26{fill:url(#SVGID_27_);}
	.st27{fill:url(#SVGID_28_);}
	.st28{fill:url(#SVGID_29_);}
	.st29{fill:url(#SVGID_30_);}
	.st30{fill:url(#SVGID_31_);}
	.st31{fill:url(#SVGID_32_);}
	.st32{fill:url(#SVGID_33_);}
	.st33{fill:url(#SVGID_34_);}
	.st34{fill:url(#SVGID_35_);}
	.st35{fill:url(#SVGID_36_);}
	.st36{fill:url(#SVGID_37_);}
	.st37{fill:url(#SVGID_38_);}
	.st38{fill:url(#SVGID_39_);}
	.st39{fill:url(#SVGID_40_);}
	.st40{fill:url(#SVGID_41_);}
	.st41{fill:url(#SVGID_42_);}
	.st42{fill:url(#SVGID_43_);}
	.st43{fill:url(#SVGID_44_);}
	.st44{fill:url(#SVGID_45_);}
	.st45{fill:url(#SVGID_46_);}
	.st46{fill:url(#SVGID_47_);}
	.st47{fill:url(#SVGID_48_);}
	.st48{fill:url(#SVGID_49_);}
	.st49{fill:url(#SVGID_50_);}
	.st50{fill:url(#SVGID_51_);}
	.st51{fill:url(#SVGID_52_);}
	.st52{fill:url(#SVGID_53_);}
	.st53{fill:url(#SVGID_54_);}
	.st54{opacity:0.5;fill:url(#SVGID_55_);}
	.st55{fill:#FFFFFF;}
	.st56{opacity:0.5;fill:url(#SVGID_56_);}
	.st57{opacity:0.3;fill:#6D109D;}
	.st58{opacity:0.3;fill:#FFFFFF;}
	.st59{opacity:0.5;fill:url(#SVGID_57_);}
	.st60{fill:url(#SVGID_58_);}
	.st61{opacity:0.5;fill:url(#SVGID_59_);}
	.st62{opacity:0.5;fill:url(#SVGID_60_);}
	.st63{opacity:0.5;fill:url(#SVGID_61_);}
	.st64{fill:url(#SVGID_62_);}
	.st65{opacity:0.5;fill:url(#SVGID_63_);}
	.st66{opacity:0.5;fill:url(#SVGID_64_);}
	.st67{opacity:0.5;fill:url(#SVGID_65_);}
	.st68{fill:url(#SVGID_66_);}
	.st69{opacity:0.5;fill:url(#SVGID_67_);}
	.st70{opacity:0.5;fill:url(#SVGID_68_);}
	.st71{opacity:0.5;fill:url(#SVGID_69_);}
	.st72{opacity:0.5;fill:url(#SVGID_70_);}
	.st73{opacity:0.5;fill:url(#SVGID_71_);}
	.st74{opacity:0.5;fill:#FFFFFF;}
	.st75{opacity:0.5;fill:url(#SVGID_72_);}
	.st76{opacity:0.5;fill:url(#SVGID_73_);}
	.st77{opacity:0.5;fill:url(#SVGID_74_);}
	.st78{opacity:0.5;fill:url(#SVGID_75_);}
	.st79{opacity:0.5;fill:url(#SVGID_76_);}
	.st80{opacity:0.5;fill:url(#SVGID_77_);}
	.st81{opacity:0.3;fill:url(#SVGID_78_);}
	.st82{opacity:0.3;fill:url(#SVGID_79_);}
	.st83{opacity:0.3;fill:url(#SVGID_80_);}
	.st84{opacity:0.3;fill:url(#SVGID_81_);}
	.st85{opacity:0.3;fill:url(#SVGID_82_);}
	.st86{opacity:0.3;fill:url(#SVGID_83_);}
	.st87{opacity:0.3;fill:url(#SVGID_84_);}
	.st88{opacity:0.3;fill:url(#SVGID_85_);}
	.st89{opacity:0.3;fill:url(#SVGID_86_);}
	.st90{opacity:0.3;fill:url(#SVGID_87_);}
	.st91{opacity:0.3;fill:url(#SVGID_88_);}
	.st92{opacity:0.3;fill:url(#SVGID_89_);}
	.st93{opacity:0.3;fill:url(#SVGID_90_);}
	.st94{opacity:0.3;fill:url(#SVGID_91_);}
	.st95{opacity:0.3;fill:url(#SVGID_92_);}
	.st96{opacity:0.3;fill:url(#SVGID_93_);}
	.st97{opacity:0.3;fill:url(#SVGID_94_);}
	.st98{opacity:0.3;fill:url(#SVGID_95_);}
	.st99{opacity:0.3;fill:url(#SVGID_96_);}
	.st100{opacity:0.3;fill:url(#SVGID_97_);}
	.st101{opacity:0.3;fill:url(#SVGID_98_);}
	.st102{opacity:0.3;fill:url(#SVGID_99_);}
	.st103{opacity:0.3;fill:url(#SVGID_100_);}
	.st104{opacity:0.3;fill:url(#SVGID_101_);}
	.st105{opacity:0.3;fill:url(#SVGID_102_);}
	.st106{opacity:0.3;fill:url(#SVGID_103_);}
	.st107{opacity:0.3;fill:url(#SVGID_104_);}
	.st108{opacity:0.3;fill:url(#SVGID_105_);}
	.st109{opacity:0.3;fill:url(#SVGID_106_);}
	.st110{opacity:0.3;fill:url(#SVGID_107_);}
	.st111{opacity:0.3;fill:url(#SVGID_108_);}
	.st112{opacity:0.3;fill:url(#SVGID_109_);}
	.st113{opacity:0.3;fill:url(#SVGID_110_);}
	.st114{opacity:0.3;fill:url(#SVGID_111_);}
	.st115{opacity:0.3;fill:url(#SVGID_112_);}
	.st116{opacity:0.3;fill:url(#SVGID_113_);}
	.st117{opacity:0.3;fill:url(#SVGID_114_);}
	.st118{opacity:0.3;fill:url(#SVGID_115_);}
	.st119{opacity:0.3;fill:url(#SVGID_116_);}
	.st120{opacity:0.3;fill:url(#SVGID_117_);}
	.st121{fill:#2B0038;}
	.st122{fill:url(#SVGID_118_);}
	.st123{fill:url(#SVGID_119_);}
	.st124{fill:url(#SVGID_120_);}
	.st125{fill:url(#SVGID_121_);}
	.st126{fill:url(#SVGID_122_);}
	.st127{fill:url(#SVGID_123_);}
	.st128{opacity:0.6;fill:#9A1842;}
	.st129{opacity:0.8;fill:#9A2E69;}
	.st130{fill:#8300C0;}
	.st131{fill:url(#SVGID_124_);}
	.st132{opacity:0.4;fill:#D41892;}
	.st133{fill:#FF9650;}
	.st134{fill:url(#SVGID_125_);}
	.st135{fill:url(#SVGID_126_);}
	.st136{fill:url(#SVGID_127_);}
	.st137{fill:url(#SVGID_128_);}
	.st138{opacity:0.4;}
	.st139{fill:#98003B;}
	.st140{fill:#FF7A4A;}
	.st141{fill:#FF924A;}
	.st142{fill:url(#SVGID_129_);}
	.st143{fill:url(#SVGID_130_);}
	.st144{fill:url(#SVGID_131_);}
	.st145{opacity:0.71;fill:#CA6D92;}
	.st146{fill:#FFE3EA;}
	.st147{fill:url(#SVGID_132_);}
	.st148{fill:url(#SVGID_133_);}
	.st149{fill:url(#SVGID_134_);}
	.st150{fill:url(#SVGID_135_);}
	.st151{fill:url(#SVGID_136_);}
	.st152{fill:url(#SVGID_137_);}
	.st153{fill:url(#SVGID_138_);}
	.st154{fill:url(#SVGID_139_);}
	.st155{fill:url(#SVGID_140_);}
	.st156{fill:url(#SVGID_141_);}
	.st157{fill:url(#SVGID_142_);}
	.st158{fill:url(#SVGID_143_);}
	.st159{fill:url(#SVGID_144_);}
	.st160{fill:url(#SVGID_145_);}
	.st161{opacity:0.8;}
	.st162{fill:#9A2E69;}
	.st163{fill:url(#SVGID_146_);}
	.st164{fill:url(#SVGID_147_);}
	.st165{fill:url(#SVGID_148_);}
	.st166{fill:url(#SVGID_149_);}
	.st167{fill:url(#SVGID_150_);}
	.st168{fill:url(#SVGID_151_);}
	.st169{fill:url(#SVGID_152_);}
	.st170{fill:url(#SVGID_153_);}
	.st171{fill:url(#SVGID_154_);}
	.st172{fill:url(#SVGID_155_);}
	.st173{fill:url(#SVGID_156_);}
	.st174{fill:url(#SVGID_157_);}
	.st175{fill:url(#SVGID_158_);}
	.st176{fill:url(#SVGID_159_);}
	.st177{fill:url(#SVGID_160_);}
	.st178{fill:url(#SVGID_161_);}
	.st179{fill:url(#SVGID_162_);}
	.st180{fill:url(#SVGID_163_);}
	.st181{fill:url(#SVGID_164_);}
	.st182{fill:url(#SVGID_165_);}
	.st183{fill:url(#SVGID_166_);}
	.st184{fill:url(#SVGID_167_);}
	.st185{fill:url(#SVGID_168_);}
	.st186{fill:url(#SVGID_169_);}
	.st187{fill:url(#SVGID_170_);}
	.st188{fill:url(#SVGID_171_);}
	.st189{fill:url(#SVGID_172_);}
	.st190{fill:url(#SVGID_173_);}
	.st191{fill:#90DEFF;}
	.st192{opacity:0.5;fill:url(#SVGID_174_);}
	.st193{opacity:0.5;fill:url(#SVGID_175_);}
	.st194{fill:url(#SVGID_176_);}
	.st195{opacity:0.2;fill:#FFFFFF;}
	.st196{fill:#BF77D8;}
	.st197{fill:url(#SVGID_177_);}
	.st198{fill:url(#SVGID_178_);}
	.st199{fill:url(#SVGID_179_);}
	.st200{fill:url(#SVGID_180_);}
	.st201{fill:url(#SVGID_181_);}
	.st202{fill:url(#SVGID_182_);}
	.st203{fill:url(#SVGID_183_);}
	.st204{opacity:0.8;fill:#E72F92;}
	.st205{opacity:0.6;fill:#E72F92;}
	.st206{opacity:0.5;fill:#E72F92;}
	.st207{fill:#FFD8FF;}
	.st208{opacity:0.8;fill:#A6004A;}
	.st209{opacity:0.5;fill:#A6004A;}
	.st210{opacity:0.5;fill:#BD004A;}
	.st211{opacity:0.3;fill:#FFD8FF;}
	.st212{fill:url(#SVGID_184_);}
	.st213{fill:url(#SVGID_185_);}
	.st214{opacity:0.5;fill:#E75992;}
	.st215{opacity:0.5;fill:#FFD8FF;}
	.st216{fill:url(#SVGID_186_);}
	.st217{opacity:0.6;fill:#BF2A92;}
	.st218{fill:#FFB8DF;}
	.st219{opacity:0.5;fill:#D15992;}
	.st220{fill:#FFB895;}
	.st221{fill:#FF938B;}
	.st222{fill:url(#SVGID_187_);}
	.st223{fill:#6D181D;}
	.st224{fill:url(#SVGID_188_);}
	.st225{opacity:0.6;fill:#BF6D92;}
	.st226{opacity:0.7;fill:#BF6D92;}
	.st227{fill:#BF6D92;}
	.st228{opacity:0.5;fill:#FFA7A1;}
	.st229{fill:#FF7A5F;}
	.st230{fill:#A8292F;}
	.st231{opacity:0.6;fill:#CB89A7;}
	.st232{fill:#E0574F;}
	.st233{opacity:0.7;}
	.st234{opacity:0.8;fill:#BF6D92;}
	.st235{opacity:0.3;fill:#BF6D92;}
	.st236{fill:#FFA9A4;}
	.st237{opacity:0.5;fill:#BF6D92;}
	.st238{fill:#FF8189;}
	.st239{fill:url(#SVGID_189_);}
	.st240{fill:url(#SVGID_190_);}
	.st241{opacity:0.2;fill:#E72F92;}
	.st242{opacity:0.5;fill:#FFECA4;}
	.st243{opacity:0.3;fill:#FF6D92;}
	.st244{opacity:0.6;fill:#D41892;}
	.st245{opacity:0.69;fill:#FFECA4;}
	.st246{opacity:0.6;fill:#E77592;}
	.st247{opacity:0.5;fill:#FFFFA4;}
	.st248{fill:#FFECA4;}
	.st249{fill:url(#SVGID_191_);}
	.st250{fill:url(#SVGID_192_);}
	.st251{fill:#FFAE90;}
	.st252{fill:url(#SVGID_193_);}
	.st253{fill:url(#SVGID_194_);}
	.st254{fill:url(#SVGID_195_);}
	.st255{opacity:0.5;fill:#BF2A92;}
	.st256{fill:#BE5548;}
	.st257{opacity:0.8;fill:#BF2A92;}
	.st258{opacity:0.5;fill:#CC7777;}
	.st259{fill:#A74E48;}
	.st260{fill:#F77A77;}
	.st261{opacity:0.3;fill:#BF2A92;}
	.st262{fill:url(#SVGID_196_);}
	.st263{fill:url(#SVGID_197_);}
	.st264{fill:url(#SVGID_198_);}
	.st265{fill:#420714;}
	.st266{fill:url(#SVGID_199_);}
	.st267{fill:url(#SVGID_200_);}
	.st268{fill:url(#SVGID_201_);}
	.st269{fill:url(#SVGID_202_);}
	.st270{opacity:0.5;fill:#F77A77;}
	.st271{fill:#B3424D;}
	.st272{fill:url(#SVGID_203_);}
	.st273{fill:url(#SVGID_204_);}
	.st274{opacity:0.57;fill:#E33292;}
	.st275{fill:#FF75C7;}
	.st276{fill:url(#SVGID_205_);}
	.st277{opacity:0.8;fill:#E50092;}
	.st278{fill:#FFB3C7;}
	.st279{opacity:0.5;fill:#E33292;}
	.st280{fill:#E50092;}
	.st281{fill:url(#SVGID_206_);}
	.st282{fill:#FF8B9A;}
	.st283{fill:url(#SVGID_207_);}
	.st284{fill:url(#SVGID_208_);}
	.st285{fill:url(#SVGID_209_);}
	.st286{fill:url(#SVGID_210_);}
	.st287{fill:url(#SVGID_211_);}
	.st288{opacity:0.5;fill:#989310;}
	.st289{fill:#B3B35E;}
	.st290{opacity:0.2;fill:#989310;}
	.st291{fill:#DBF15E;}
	.st292{fill:#B3F25E;}
	.st293{fill:url(#SVGID_212_);}
	.st294{fill:#CCE031;}
	.st295{fill:url(#SVGID_213_);}
	.st296{fill:url(#SVGID_214_);}
	.st297{fill:url(#SVGID_215_);}
	.st298{fill:url(#SVGID_216_);}
	.st299{fill:url(#SVGID_217_);}
	.st300{fill:url(#SVGID_218_);}
	.st301{fill:url(#SVGID_219_);}
	.st302{opacity:0.71;fill:#CA0092;}
	.st303{opacity:0.3;fill:#CA0092;}
	.st304{opacity:0.4;fill:#FFD8FF;}
	.st305{opacity:0.47;fill:#FFCCE0;}
	.st306{fill:url(#SVGID_220_);}
	.st307{fill:url(#SVGID_221_);}
	.st308{fill:url(#SVGID_222_);}
	.st309{fill:#FFE0D3;}
	.st310{opacity:0.2;fill:#FE5B92;}
	.st311{fill:url(#SVGID_223_);}
	.st312{opacity:0.8;fill:#CA0092;}
	.st313{fill:#FFDEC7;}
	.st314{fill:#CA0092;}
	.st315{fill:url(#SVGID_224_);}
	.st316{fill:url(#SVGID_225_);}
	.st317{opacity:0.3;fill:#FFA7A1;}
	.st318{fill:url(#SVGID_226_);}
	.st319{fill:url(#SVGID_227_);}
	.st320{fill:url(#SVGID_228_);}
	.st321{fill:url(#SVGID_229_);}
	.st322{fill:url(#SVGID_230_);}
	.st323{fill:url(#SVGID_231_);}
	.st324{fill:#FFBF97;}
	.st325{fill:url(#SVGID_232_);}
	.st326{fill:url(#SVGID_233_);}
	.st327{fill:url(#SVGID_234_);}
	.st328{fill:url(#SVGID_235_);}
	.st329{fill:url(#SVGID_236_);}
	.st330{fill:url(#SVGID_237_);}
	.st331{fill:url(#SVGID_238_);}
	.st332{fill:url(#SVGID_239_);}
	.st333{fill:#FF5C7F;}
	.st334{fill:url(#SVGID_240_);}
	.st335{fill:url(#SVGID_241_);}
	.st336{fill:url(#SVGID_242_);}
	.st337{fill:#D65963;}
	.st338{fill:#9A2754;}
	.st339{fill:#FFD9C7;}
	.st340{fill:#B8ABC7;}
	.st341{opacity:0.5;fill:#C23E86;}
	.st342{fill:#FFA67C;}
	.st343{fill:#D8D1E0;}
	.st344{fill:url(#SVGID_243_);}
	.st345{fill:url(#SVGID_244_);}
	.st346{fill:url(#SVGID_245_);}
	.st347{opacity:0.5;fill:#E06E00;}
	.st348{fill:url(#SVGID_246_);}
	.st349{fill:#FFE250;}
	.st350{opacity:0.3;fill:#C62792;}
	.st351{fill:#B3FF5E;}
	.st352{fill:url(#SVGID_247_);}
	.st353{opacity:0.5;fill:#FF5410;}
	.st354{fill:url(#SVGID_248_);}
	.st355{fill:url(#SVGID_249_);}
	.st356{fill:url(#SVGID_250_);}
	.st357{fill:url(#SVGID_251_);}
	.st358{fill:url(#SVGID_252_);}
	.st359{fill:url(#SVGID_253_);}
	.st360{opacity:0.62;fill:#C44C90;}
	.st361{opacity:0.5;fill:#CB1192;}
	.st362{fill:#FFA486;}
	.st363{opacity:0.3;fill:#C61192;}
	.st364{fill:#FF6DA0;}
	.st365{opacity:0.8;fill:#C44790;}
	.st366{opacity:0.5;fill:#C44C90;}
	.st367{opacity:0.7;fill:#C44790;}
	.st368{fill:#FF72AA;}
	.st369{fill:url(#SVGID_254_);}
	.st370{opacity:0.5;fill:#C95459;}
	.st371{fill:url(#SVGID_255_);}
	.st372{fill:url(#SVGID_256_);}
	.st373{fill:url(#SVGID_257_);}
	.st374{opacity:0.2;fill:#FFD8FF;}
	.st375{fill:#893537;}
	.st376{fill:#9D4648;}
	.st377{fill:url(#SVGID_258_);}
	.st378{fill:#FFC1A7;}
	.st379{fill:#FFAA86;}
	.st380{fill:#FFAB9F;}
	.st381{fill:url(#SVGID_259_);}
	.st382{opacity:0.5;fill:#C0673B;}
	.st383{fill:#A94F37;}
	.st384{fill:url(#SVGID_260_);}
	.st385{fill:url(#SVGID_261_);}
	.st386{fill:url(#SVGID_262_);}
	.st387{fill:url(#SVGID_263_);}
	.st388{fill:url(#SVGID_264_);}
	.st389{fill:url(#SVGID_265_);}
	.st390{fill:url(#SVGID_266_);}
	.st391{fill:url(#SVGID_267_);}
	.st392{fill:url(#SVGID_268_);}
	.st393{fill:url(#SVGID_269_);}
	.st394{fill:url(#SVGID_270_);}
	.st395{fill:url(#SVGID_271_);}
	.st396{opacity:0.2;fill:#CA1B3B;}
	.st397{opacity:0.64;fill:#CC5748;}
	.st398{opacity:0.5;fill:#D31F90;}
	.st399{opacity:0.2;fill:#CA0092;}
	.st400{fill:#1B114A;}
	.st401{fill:url(#SVGID_272_);}
	.st402{fill:url(#SVGID_273_);}
	.st403{fill:url(#SVGID_274_);}
	.st404{fill:url(#SVGID_275_);}
	.st405{fill:url(#SVGID_276_);}
	.st406{fill:url(#SVGID_277_);}
	.st407{fill:url(#SVGID_278_);}
	.st408{fill:url(#SVGID_279_);}
	.st409{fill:url(#SVGID_280_);}
	.st410{fill:url(#SVGID_281_);}
	.st411{fill:url(#SVGID_282_);}
	.st412{fill:url(#SVGID_283_);}
	.st413{fill:url(#SVGID_284_);}
	.st414{fill:url(#SVGID_285_);}
	.st415{fill:url(#SVGID_286_);}
	.st416{fill:url(#SVGID_287_);}
	.st417{opacity:0.2;fill:#F2513B;}
	.st418{opacity:0.97;fill:#FFECA4;}
	.st419{fill:#FF956D;}
	.st420{opacity:0.3;fill:#E77592;}
	.st421{opacity:0.36;fill:#E77592;}
	.st422{fill:url(#SVGID_288_);}
	.st423{fill:url(#SVGID_289_);}
	.st424{fill:url(#SVGID_290_);}
	.st425{fill:url(#SVGID_291_);}
	.st426{fill:#AE4648;}
	.st427{fill:url(#SVGID_292_);}
	.st428{fill:url(#SVGID_293_);}
	.st429{fill:#988D89;}
	.st430{fill:#F4837C;}
	.st431{opacity:0.5;fill:#C94CA3;}
	.st432{fill:url(#SVGID_294_);}
	.st433{fill:url(#SVGID_295_);}
	.st434{fill:url(#SVGID_296_);}
	.st435{fill:url(#SVGID_297_);}
	.st436{fill:url(#SVGID_298_);}
	.st437{fill:url(#SVGID_299_);}
	.st438{fill:url(#SVGID_300_);}
	.st439{fill:url(#SVGID_301_);}
	.st440{opacity:0.64;fill:#DB877C;}
	.st441{opacity:0.2;fill:#DB877C;}
	.st442{fill:#FF9840;}
	.st443{opacity:0.5;fill:#FF956D;}
	.st444{fill:#CD5436;}
	.st445{fill:url(#SVGID_302_);}
	.st446{opacity:0.4;fill:#BB1892;}
	.st447{fill:#A0003B;}
	.st448{fill:url(#SVGID_303_);}
	.st449{opacity:0.64;fill:#DB727C;}
	.st450{fill:url(#SVGID_304_);}
	.st451{fill:url(#SVGID_305_);}
	.st452{opacity:0.6;fill:#C25792;}
	.st453{fill:#FF8140;}
	.st454{fill:#FF6A4D;}
	.st455{fill:url(#SVGID_306_);}
	.st456{fill:url(#SVGID_307_);}
	.st457{fill:url(#SVGID_308_);}
	.st458{fill:url(#SVGID_309_);}
	.st459{fill:url(#SVGID_310_);}
	.st460{opacity:0.5;fill:#E77592;}
	.st461{opacity:0.2;fill:#E77592;}
	.st462{fill:url(#SVGID_311_);}
	.st463{opacity:0.5;fill:#C62792;}
	.st464{opacity:0.8;fill:#E084CA;}
	.st465{fill:#FB95D7;}
	.st466{fill:url(#SVGID_312_);}
	.st467{fill:url(#SVGID_313_);}
	.st468{fill:url(#SVGID_314_);}
	.st469{fill:url(#SVGID_315_);}
	.st470{fill:url(#SVGID_316_);}
	.st471{fill:url(#SVGID_317_);}
	.st472{fill:url(#SVGID_318_);}
	.st473{fill:url(#SVGID_319_);}
	.st474{fill:url(#SVGID_320_);}
	.st475{fill:url(#SVGID_321_);}
	.st476{fill:url(#SVGID_322_);}
	.st477{fill:url(#SVGID_323_);}
	.st478{fill:url(#SVGID_324_);}
	.st479{fill:url(#SVGID_325_);}
	.st480{opacity:0.5;fill:#CA6D92;}
	.st481{opacity:0.55;fill:#C46581;}
	.st482{fill:url(#SVGID_326_);}
	.st483{opacity:0.55;fill:#FA6D92;}
	.st484{opacity:0.55;fill:#FFD8FF;}
	.st485{fill:url(#SVGID_327_);}
	.st486{fill:#932933;}
	.st487{fill:url(#SVGID_328_);}
	.st488{fill:url(#SVGID_329_);}
	.st489{fill:url(#SVGID_330_);}
	.st490{opacity:0.5;fill:#CAC5ED;}
	.st491{opacity:0.2;fill:#CAC5ED;}
	.st492{opacity:0.5;fill:#7577D6;}
	.st493{opacity:0.55;fill:#AEB0FF;}
	.st494{fill:#7C95FF;}
	.st495{opacity:0.3;fill:#9FBFD6;}
	.st496{fill:#74B0FF;}
	.st497{fill:#90BAFF;}
	.st498{fill:#90CAFF;}
	.st499{fill:#7492FF;}
	.st500{fill:url(#SVGID_331_);}
	.st501{opacity:0.4;fill:#8125AE;}
	.st502{fill:url(#SVGID_332_);}
	.st503{opacity:0.3;fill:#7577D6;}
	.st504{fill:url(#SVGID_333_);}
	.st505{fill:url(#SVGID_334_);}
	.st506{fill:url(#SVGID_335_);}
	.st507{fill:url(#SVGID_336_);}
	.st508{fill:#FFA5A4;}
	.st509{fill:#FF837C;}
	.st510{fill:url(#SVGID_337_);}
	.st511{fill:url(#SVGID_338_);}
	.st512{fill:#B3725E;}
	.st513{opacity:0.5;fill:#B3FF5E;}
	.st514{opacity:0.3;fill:#CC5748;}
	.st515{fill:#FFD1B1;}
	.st516{fill:#89242F;}
	.st517{fill:#9F3537;}
	.st518{fill:#F47E37;}
	.st519{fill:#F48D4A;}
	.st520{fill:url(#SVGID_339_);}
	.st521{fill:url(#SVGID_340_);}
	.st522{fill:#C25437;}
	.st523{fill:#F4AC44;}
	.st524{fill:#812137;}
	.st525{fill:#E75792;}
	.st526{fill:url(#SVGID_341_);}
	.st527{opacity:0.3;fill:#912774;}
	.st528{opacity:0.5;fill:#FFEFFF;}
	.st529{opacity:0.2;fill:#A85592;}
	.st530{fill:#FF77FF;}
	.st531{fill:#880000;}
	.st532{fill:#FF4D51;}
	.st533{opacity:0.5;fill:url(#SVGID_342_);}
	.st534{opacity:0.5;fill:url(#SVGID_343_);}
</style>
<g id="background">
</g>
<g id="layer1">
	<g>
		<path class="st400" d="M21.7,37.7C9.4,53.3,23.4,95.1,54.5,92.3C85.5,89.6,94.7,55,86,43.8C77.4,32.5,40.3,14.1,21.7,37.7z"/>
		<g>
			<linearGradient id="SVGID_2_" gradientUnits="userSpaceOnUse" x1="52.8808" y1="82.0885" x2="52.8808" y2="1.5227">
				<stop  offset="0" style="stop-color:#FFBBA4"/>
				<stop  offset="1" style="stop-color:#FFD1C9"/>
			</linearGradient>
			<path style="fill:url(#SVGID_2_);" d="M91.7,43.8c0,21.2-17.2,38.3-38.3,38.3c-17.4,0-32.1-11.6-36.8-27.5c0,0,0,0,0,0
				c-1-3.4-1.5-7.1-1.5-10.8c0,0-3.8-11.3,3.6-23.6c0,0,0,0,0-0.1c0.9-1.5,2-3.1,3.3-4.6c0,0,0.1-0.1,0.1-0.1
				c1.9-2.3,4.3-4.6,7.3-6.8C47.2-4.7,74.8,1.3,86.1,21.9c0.1,0.2,0.2,0.4,0.3,0.6c0.2,0.3,0.3,0.6,0.5,0.9c0.2,0.4,0.4,0.9,0.6,1.3
				c0,0,0,0.1,0.1,0.1c0,0,0,0,0,0c1.2,2.8,2.2,5.8,2.8,9c0,0,0,0,0,0c0.6,2.1,1,4.4,1.2,6.7C91.6,41.6,91.7,42.7,91.7,43.8z"/>
			<g>
				<linearGradient id="SVGID_3_" gradientUnits="userSpaceOnUse" x1="46.476" y1="65.6489" x2="46.476" y2="41.8183">
					<stop  offset="0" style="stop-color:#FF6600"/>
					<stop  offset="1" style="stop-color:#FF7A00"/>
				</linearGradient>
				<path class="st1" d="M57,43.1c0,0-18.6-6.9-21.1,11.5c0,0,2.2,8.1,10.4,11.1C46.3,65.6,48,51.5,57,43.1z"/>
				<linearGradient id="SVGID_4_" gradientUnits="userSpaceOnUse" x1="67.7859" y1="60.6112" x2="67.7859" y2="39.163">
					<stop  offset="0" style="stop-color:#FF6600"/>
					<stop  offset="1" style="stop-color:#FF7A00"/>
				</linearGradient>
				<path class="st2" d="M58.8,41c0,0-1.8,16.8,10.8,19.6c0,0,6-5.4,7.2-14.1c0,0-0.1,0.4-7.3,0c-7.2-0.4-9.4-7.3-9.4-7.3L58.8,41z"
					/>
				<linearGradient id="SVGID_5_" gradientUnits="userSpaceOnUse" x1="66.6175" y1="36.8157" x2="66.6175" y2="18.5187">
					<stop  offset="0" style="stop-color:#FF6600"/>
					<stop  offset="1" style="stop-color:#FF7A00"/>
				</linearGradient>
				<path class="st3" d="M60,36.2c0.6,0.4,14.4-0.8,15.2-7.1c0,0-3.1-8.2-10.8-10.6c0,0-1,13.5-6.3,18.3L60,36.2z"/>
				<linearGradient id="SVGID_6_" gradientUnits="userSpaceOnUse" x1="46.1638" y1="35.9069" x2="46.1638" y2="15.4624">
					<stop  offset="0" style="stop-color:#FF6600"/>
					<stop  offset="1" style="stop-color:#FF7A00"/>
				</linearGradient>
				<path class="st4" d="M51.5,35.9c0,0,7.7-15-1.6-20.4c0,0-3.7-0.5-12,3c0,0,11.1,4.6,11,16.3L51.5,35.9z"/>
				<linearGradient id="SVGID_7_" gradientUnits="userSpaceOnUse" x1="26.1136" y1="51.4107" x2="26.1136" y2="29.847">
					<stop  offset="0" style="stop-color:#FF6600"/>
					<stop  offset="1" style="stop-color:#FF7A00"/>
				</linearGradient>
				<path class="st5" d="M24.9,30.1c0,0,8.1-2,12.3,5.9c0,0-2.3,1.5-3.6,7.4c0,0-10.9-1.4-17.8,8.1c0,0-1.1-5.4-0.8-7.7
					C15.3,41.5,21.2,31.7,24.9,30.1z"/>
				<linearGradient id="SVGID_8_" gradientUnits="userSpaceOnUse" x1="41.6062" y1="82.0885" x2="41.6062" y2="58.3744">
					<stop  offset="0" style="stop-color:#FF6600"/>
					<stop  offset="1" style="stop-color:#FF7A00"/>
				</linearGradient>
				<path class="st7" d="M37.3,58.4c0,0-6.1,6.9-5.3,17.2c0,0,8.3,6.2,19.4,6.6c0,0-4.1-11.3-3.8-16.4
					C47.5,65.6,41.1,64.2,37.3,58.4z"/>
				<linearGradient id="SVGID_9_" gradientUnits="userSpaceOnUse" x1="82.2034" y1="61.9198" x2="82.2034" y2="43.3177">
					<stop  offset="0" style="stop-color:#FF6600"/>
					<stop  offset="1" style="stop-color:#FF7A00"/>
				</linearGradient>
				<path class="st8" d="M72.7,57.2c0,0,4.3,5.8,14.5,4.6c0,0,5-8.3,4.5-18.4c0,0-5.6,1.6-14,0.4C77.6,43.8,76.1,52.6,72.7,57.2z"/>
				<linearGradient id="SVGID_10_" gradientUnits="userSpaceOnUse" x1="75.1621" y1="26.564" x2="75.1621" y2="6.6728">
					<stop  offset="0" style="stop-color:#FF6600"/>
					<stop  offset="1" style="stop-color:#FF7A00"/>
				</linearGradient>
				<path class="st9" d="M73.9,26.6c0,0,7.2-3.9,8.3-10.5c0,0-4.5-6-11.3-9.4c0,0,0.1,8.3-2.8,13.6L73.9,26.6z"/>
				<linearGradient id="SVGID_11_" gradientUnits="userSpaceOnUse" x1="40.8725" y1="15.9102" x2="40.8725" y2="1.709">
					<stop  offset="0" style="stop-color:#FF6600"/>
					<stop  offset="1" style="stop-color:#FF7A00"/>
				</linearGradient>
				<path class="st10" d="M53.3,15.5c0,0,2.2-11.6-5.9-13.8c0,0-10.6,0.5-19.2,7.8c0,0,11.9-0.4,17.6,6.4L53.3,15.5z"/>
				<linearGradient id="SVGID_12_" gradientUnits="userSpaceOnUse" x1="24.5748" y1="39.163" x2="24.5748" y2="19.282">
					<stop  offset="0" style="stop-color:#FF6600"/>
					<stop  offset="1" style="stop-color:#FF7A00"/>
				</linearGradient>
				<path class="st11" d="M18.6,20.2c0,0,8.3-2,16.5,0c0,0-4.5,3-9,7.5c0,0-9.3,3.5-11.9,11.5C14.2,39.2,12.5,30.4,18.6,20.2z"/>
			</g>
			<path class="st396" d="M15,27.8c-0.4,4.7,4.2,4.5,7.8,1.1c4.3-4,8.3-12.2,17-15.3c20-7.2,33.4,8.5,35.4,14.2
				c0,0-12.4-13.7-27.7-11.4S17.3,37.9,15,43.8C15,43.8,12.6,38.2,15,27.8z"/>
			<path class="st397" d="M15,43.8c0,0,13.2-29.3,39.8-27.2c26.6,2,27.7,36.1,11.4,45.6C50,71.6,32,58.2,34.4,42.7
				c2.5-15.5,19.7-5.5,22.6,0.4c0,0,3.1-2.9,3.5-5.5c0.4-2.6-3,0.7-6.1-0.8c-3.1-1.5-9.4-6.2-17-1.9c-7.6,4.3-9.8,32.8,15.5,32.4
				c25.3-0.3,33-34.2,15.6-47.8C51,5.9,26.8,16.9,15,43.8z"/>
			<path class="st351" d="M91.7,43.8c0,21.2-17.2,38.3-38.3,38.3c-17.4,0-32.1-11.6-36.8-27.5c0.3,0.8,9.3,29.3,39.1,24.8
				C90.2,74,91.5,40.5,91.5,40.5C91.6,41.6,91.7,42.7,91.7,43.8z"/>
			<path class="st398" d="M37.3,35.9c6.9-4.1,13.3-0.7,16.1,2.6c2.8,3.3,4.1,3.3,4.1,3.3s3.4-2.2,3-4.2c-0.5-2-3.1,0.3-5.6-0.2
				c-2.5-0.5-4-3.4-10.7-4.6C39.6,32,37.3,35.9,37.3,35.9z"/>
			<path class="st398" d="M24.3,28.5C24,28.9,33.5,19,45.6,16.8c12.1-2.3,17.5,0.1,17.5,0.1s-5.7-3.6-16.6-1.5
				C35.5,17.6,24.3,28.5,24.3,28.5z"/>
			<path class="st396" d="M35.2,51.4c0,0,15.9,15.8,31.5,5.9c15.5-9.9,6.7-32.6,6.7-32.6s12.9,24.9-7.1,37.4
				C46.3,74.5,36,59,35.2,51.4z"/>
			<path class="st396" d="M33.6,40.1c0,0,1.3-7.8,12-11.6c10.7-3.7,15.9,6.3,14.9,9.6c-1,3.2-2,4.1-3,3.7c-1-0.4-6.4-8.5-13.8-7.7
				S33.6,40.1,33.6,40.1z"/>
			<path class="st396" d="M36.7,77.4C26.1,72.6,60.1,78,71,72.5C82,67,87.8,55.3,87.8,55.3S82,71.5,63.9,77.4
				C45.8,83.3,36.7,77.4,36.7,77.4z"/>
			<path class="st289" d="M23.4,33.8c-2.5,6.8,16.5-5.4,24.1-6.1c7.6-0.7,8,2.2,16.5,3.7s7.9-4,7.8-5.7c-0.1-1.7-8.7-10.5-23.4-9.1
				C33.8,18,25.4,28.6,23.4,33.8z"/>
			<path class="st289" d="M18.7,21c-0.4,11.2,12.1-8.5,29.4-9.8s26.2,12.3,33.4,12.4C88.7,23.8,76,0.3,49.5,1.7
				C26.5,2.9,18.7,21,18.7,21z"/>
			<path class="st289" d="M32.6,56c-3.7-4.3-1.4,19.3,24.5,19c25.8-0.2,27.7-29.9,26.4-33.2c-1.3-3.2-5.7,21.4-24.2,24.6
				C40.8,69.7,32.6,56,32.6,56z"/>
			<path class="st289" d="M38.9,35.4c-3.4,1.6-4.5,9.5-1.8,14.5c7.8,14.1,25,11.5,30.7,5.4s-2.5-17.4-4.7-17.1
				c-2.2,0.3-4.6,5.6-6.4,5.3c-1.9-0.4-5.8-6.7-10.5-8.1C41.5,34,38.9,35.4,38.9,35.4z"/>
			<path class="st55" d="M33,9.1c-2.8,3.7,3,3.7,7.2-0.3S35.6,5.6,33,9.1z"/>
			<path class="st55" d="M41.3,20.2c-1.1,1.1,0,2.8,2.8,0.9C46.9,19.2,43.3,18.3,41.3,20.2z"/>
			<path class="st55" d="M86.9,28.2c-1-1.2-2.8-0.3-1.1,2.7C87.4,33.9,88.6,30.3,86.9,28.2z"/>
			<path class="st55" d="M59.9,50.7c-4.9,4.3,1.1,7.4,4.4,3.2C67.7,49.7,63.3,47.8,59.9,50.7z"/>
			<path class="st399" d="M15,44.4c0,0,3.4-6.7,5.9-9.5c2.4-2.8-8.7,20.4,12,40.2C32.8,75.1,16.3,66.4,15,44.4z"/>
			<path class="st55" d="M40.5,35.9c-3.3,2.6,2.2,3,4.7,1.4C47.6,35.6,41.7,34.9,40.5,35.9z"/>
			<path class="st397" d="M14.4,32c0.5-1.3,4.9-0.2,6.3,0.3c1.4,0.5-4.7,9.4-4.7,9.4l-1,2.2C15,43.8,13.2,37.1,14.4,32z"/>
			<path class="st351" d="M86.1,21.9C82.7,16,73,3.8,53.3,3.5c-16.9-0.3-26.6,6.6-31.2,11.9c1.9-2.3,4.3-4.6,7.3-6.8
				C47.2-4.7,74.8,1.3,86.1,21.9z"/>
			<path class="st397" d="M86.4,22.5c-0.1-0.2-0.2-0.4-0.3-0.6C86.2,22.1,86.3,22.3,86.4,22.5z"/>
		</g>
	</g>
</g>
</svg>
