<?xml version="1.0" encoding="utf-8"?>
<!-- Generator: Adobe Illustrator 22.0.1, SVG Export Plug-In . SVG Version: 6.00 Build 0)  -->
<svg version="1.1" xmlns="http://www.w3.org/2000/svg" xmlns:xlink="http://www.w3.org/1999/xlink" x="0px" y="0px"
	 viewBox="0 0 100 100" style="enable-background:new 0 0 100 100;" xml:space="preserve">
<style type="text/css">
	.st0{clip-path:url(#SVGID_2_);}
	.st1{fill:url(#SVGID_3_);}
	.st2{fill:url(#SVGID_4_);}
	.st3{fill:url(#SVGID_5_);}
	.st4{fill:url(#SVGID_6_);}
	.st5{fill:url(#SVGID_7_);}
	.st6{opacity:0.5;}
	.st7{fill:url(#SVGID_8_);}
	.st8{fill:url(#SVGID_9_);}
	.st9{fill:url(#SVGID_10_);}
	.st10{fill:url(#SVGID_11_);}
	.st11{fill:url(#SVGID_12_);}
	.st12{fill:url(#SVGID_13_);}
	.st13{fill:url(#SVGID_14_);}
	.st14{fill:url(#SVGID_15_);}
	.st15{fill:url(#SVGID_16_);}
	.st16{fill:url(#SVGID_17_);}
	.st17{fill:url(#SVGID_18_);}
	.st18{fill:url(#SVGID_19_);}
	.st19{fill:url(#SVGID_20_);}
	.st20{fill:url(#SVGID_21_);}
	.st21{fill:url(#SVGID_22_);}
	.st22{fill:url(#SVGID_23_);}
	.st23{fill:url(#SVGID_24_);}
	.st24{fill:url(#SVGID_25_);}
	.st25{fill:url(#SVGID_26_);}
	.st26{fill:url(#SVGID_27_);}
	.st27{fill:url(#SVGID_28_);}
	.st28{fill:url(#SVGID_29_);}
	.st29{fill:url(#SVGID_30_);}
	.st30{fill:url(#SVGID_31_);}
	.st31{fill:url(#SVGID_32_);}
	.st32{fill:url(#SVGID_33_);}
	.st33{fill:url(#SVGID_34_);}
	.st34{fill:url(#SVGID_35_);}
	.st35{fill:url(#SVGID_36_);}
	.st36{fill:url(#SVGID_37_);}
	.st37{fill:url(#SVGID_38_);}
	.st38{fill:url(#SVGID_39_);}
	.st39{fill:url(#SVGID_40_);}
	.st40{fill:url(#SVGID_41_);}
	.st41{fill:url(#SVGID_42_);}
	.st42{fill:url(#SVGID_43_);}
	.st43{fill:url(#SVGID_44_);}
	.st44{fill:url(#SVGID_45_);}
	.st45{fill:url(#SVGID_46_);}
	.st46{fill:url(#SVGID_47_);}
	.st47{fill:url(#SVGID_48_);}
	.st48{fill:url(#SVGID_49_);}
	.st49{fill:url(#SVGID_50_);}
	.st50{fill:url(#SVGID_51_);}
	.st51{fill:url(#SVGID_52_);}
	.st52{fill:url(#SVGID_53_);}
	.st53{fill:url(#SVGID_54_);}
	.st54{opacity:0.5;fill:url(#SVGID_55_);}
	.st55{fill:#FFFFFF;}
	.st56{opacity:0.5;fill:url(#SVGID_56_);}
	.st57{opacity:0.3;fill:#6D109D;}
	.st58{opacity:0.3;fill:#FFFFFF;}
	.st59{opacity:0.5;fill:url(#SVGID_57_);}
	.st60{fill:url(#SVGID_58_);}
	.st61{opacity:0.5;fill:url(#SVGID_59_);}
	.st62{opacity:0.5;fill:url(#SVGID_60_);}
	.st63{opacity:0.5;fill:url(#SVGID_61_);}
	.st64{fill:url(#SVGID_62_);}
	.st65{opacity:0.5;fill:url(#SVGID_63_);}
	.st66{opacity:0.5;fill:url(#SVGID_64_);}
	.st67{opacity:0.5;fill:url(#SVGID_65_);}
	.st68{fill:url(#SVGID_66_);}
	.st69{opacity:0.5;fill:url(#SVGID_67_);}
	.st70{opacity:0.5;fill:url(#SVGID_68_);}
	.st71{opacity:0.5;fill:url(#SVGID_69_);}
	.st72{opacity:0.5;fill:url(#SVGID_70_);}
	.st73{opacity:0.5;fill:url(#SVGID_71_);}
	.st74{opacity:0.5;fill:#FFFFFF;}
	.st75{opacity:0.5;fill:url(#SVGID_72_);}
	.st76{opacity:0.5;fill:url(#SVGID_73_);}
	.st77{opacity:0.5;fill:url(#SVGID_74_);}
	.st78{opacity:0.5;fill:url(#SVGID_75_);}
	.st79{opacity:0.5;fill:url(#SVGID_76_);}
	.st80{opacity:0.5;fill:url(#SVGID_77_);}
	.st81{opacity:0.3;fill:url(#SVGID_78_);}
	.st82{opacity:0.3;fill:url(#SVGID_79_);}
	.st83{opacity:0.3;fill:url(#SVGID_80_);}
	.st84{opacity:0.3;fill:url(#SVGID_81_);}
	.st85{opacity:0.3;fill:url(#SVGID_82_);}
	.st86{opacity:0.3;fill:url(#SVGID_83_);}
	.st87{opacity:0.3;fill:url(#SVGID_84_);}
	.st88{opacity:0.3;fill:url(#SVGID_85_);}
	.st89{opacity:0.3;fill:url(#SVGID_86_);}
	.st90{opacity:0.3;fill:url(#SVGID_87_);}
	.st91{opacity:0.3;fill:url(#SVGID_88_);}
	.st92{opacity:0.3;fill:url(#SVGID_89_);}
	.st93{opacity:0.3;fill:url(#SVGID_90_);}
	.st94{opacity:0.3;fill:url(#SVGID_91_);}
	.st95{opacity:0.3;fill:url(#SVGID_92_);}
	.st96{opacity:0.3;fill:url(#SVGID_93_);}
	.st97{opacity:0.3;fill:url(#SVGID_94_);}
	.st98{opacity:0.3;fill:url(#SVGID_95_);}
	.st99{opacity:0.3;fill:url(#SVGID_96_);}
	.st100{opacity:0.3;fill:url(#SVGID_97_);}
	.st101{opacity:0.3;fill:url(#SVGID_98_);}
	.st102{opacity:0.3;fill:url(#SVGID_99_);}
	.st103{opacity:0.3;fill:url(#SVGID_100_);}
	.st104{opacity:0.3;fill:url(#SVGID_101_);}
	.st105{opacity:0.3;fill:url(#SVGID_102_);}
	.st106{opacity:0.3;fill:url(#SVGID_103_);}
	.st107{opacity:0.3;fill:url(#SVGID_104_);}
	.st108{opacity:0.3;fill:url(#SVGID_105_);}
	.st109{opacity:0.3;fill:url(#SVGID_106_);}
	.st110{opacity:0.3;fill:url(#SVGID_107_);}
	.st111{opacity:0.3;fill:url(#SVGID_108_);}
	.st112{opacity:0.3;fill:url(#SVGID_109_);}
	.st113{opacity:0.3;fill:url(#SVGID_110_);}
	.st114{opacity:0.3;fill:url(#SVGID_111_);}
	.st115{opacity:0.3;fill:url(#SVGID_112_);}
	.st116{opacity:0.3;fill:url(#SVGID_113_);}
	.st117{opacity:0.3;fill:url(#SVGID_114_);}
	.st118{opacity:0.3;fill:url(#SVGID_115_);}
	.st119{opacity:0.3;fill:url(#SVGID_116_);}
	.st120{opacity:0.3;fill:url(#SVGID_117_);}
	.st121{fill:#2B0038;}
	.st122{fill:url(#SVGID_118_);}
	.st123{fill:url(#SVGID_119_);}
	.st124{fill:url(#SVGID_120_);}
	.st125{fill:url(#SVGID_121_);}
	.st126{fill:url(#SVGID_122_);}
	.st127{fill:url(#SVGID_123_);}
	.st128{opacity:0.6;fill:#9A1842;}
	.st129{opacity:0.8;fill:#9A2E69;}
	.st130{fill:#8300C0;}
	.st131{fill:url(#SVGID_124_);}
	.st132{opacity:0.4;fill:#D41892;}
	.st133{fill:#FF9650;}
	.st134{fill:url(#SVGID_125_);}
	.st135{fill:url(#SVGID_126_);}
	.st136{fill:url(#SVGID_127_);}
	.st137{fill:url(#SVGID_128_);}
	.st138{opacity:0.4;}
	.st139{fill:#98003B;}
	.st140{fill:#FF7A4A;}
	.st141{fill:#FF924A;}
	.st142{fill:url(#SVGID_129_);}
	.st143{fill:url(#SVGID_130_);}
	.st144{fill:url(#SVGID_131_);}
	.st145{opacity:0.71;fill:#CA6D92;}
	.st146{fill:#FFE3EA;}
	.st147{fill:url(#SVGID_132_);}
	.st148{fill:url(#SVGID_133_);}
	.st149{fill:url(#SVGID_134_);}
	.st150{fill:url(#SVGID_135_);}
	.st151{fill:url(#SVGID_136_);}
	.st152{fill:url(#SVGID_137_);}
	.st153{fill:url(#SVGID_138_);}
	.st154{fill:url(#SVGID_139_);}
	.st155{fill:url(#SVGID_140_);}
	.st156{fill:url(#SVGID_141_);}
	.st157{fill:url(#SVGID_142_);}
	.st158{fill:url(#SVGID_143_);}
	.st159{fill:url(#SVGID_144_);}
	.st160{fill:url(#SVGID_145_);}
	.st161{opacity:0.8;}
	.st162{fill:#9A2E69;}
	.st163{fill:url(#SVGID_146_);}
	.st164{fill:url(#SVGID_147_);}
	.st165{fill:url(#SVGID_148_);}
	.st166{fill:url(#SVGID_149_);}
	.st167{fill:url(#SVGID_150_);}
	.st168{fill:url(#SVGID_151_);}
	.st169{fill:url(#SVGID_152_);}
	.st170{fill:url(#SVGID_153_);}
	.st171{fill:url(#SVGID_154_);}
	.st172{fill:url(#SVGID_155_);}
	.st173{fill:url(#SVGID_156_);}
	.st174{fill:url(#SVGID_157_);}
	.st175{fill:url(#SVGID_158_);}
	.st176{fill:url(#SVGID_159_);}
	.st177{fill:url(#SVGID_160_);}
	.st178{fill:url(#SVGID_161_);}
	.st179{fill:url(#SVGID_162_);}
	.st180{fill:url(#SVGID_163_);}
	.st181{fill:url(#SVGID_164_);}
	.st182{fill:url(#SVGID_165_);}
	.st183{fill:url(#SVGID_166_);}
	.st184{fill:url(#SVGID_167_);}
	.st185{fill:url(#SVGID_168_);}
	.st186{fill:url(#SVGID_169_);}
	.st187{fill:url(#SVGID_170_);}
	.st188{fill:url(#SVGID_171_);}
	.st189{fill:url(#SVGID_172_);}
	.st190{fill:url(#SVGID_173_);}
	.st191{fill:#90DEFF;}
	.st192{opacity:0.5;fill:url(#SVGID_174_);}
	.st193{opacity:0.5;fill:url(#SVGID_175_);}
	.st194{fill:url(#SVGID_176_);}
	.st195{opacity:0.2;fill:#FFFFFF;}
	.st196{fill:#BF77D8;}
	.st197{fill:url(#SVGID_177_);}
	.st198{fill:url(#SVGID_178_);}
	.st199{fill:url(#SVGID_179_);}
	.st200{fill:url(#SVGID_180_);}
	.st201{fill:url(#SVGID_181_);}
	.st202{fill:url(#SVGID_182_);}
	.st203{fill:url(#SVGID_183_);}
	.st204{opacity:0.8;fill:#E72F92;}
	.st205{opacity:0.6;fill:#E72F92;}
	.st206{opacity:0.5;fill:#E72F92;}
	.st207{fill:#FFD8FF;}
	.st208{opacity:0.8;fill:#A6004A;}
	.st209{opacity:0.5;fill:#A6004A;}
	.st210{opacity:0.5;fill:#BD004A;}
	.st211{opacity:0.3;fill:#FFD8FF;}
	.st212{fill:url(#SVGID_184_);}
	.st213{fill:url(#SVGID_185_);}
	.st214{opacity:0.5;fill:#E75992;}
	.st215{opacity:0.5;fill:#FFD8FF;}
	.st216{fill:url(#SVGID_186_);}
	.st217{opacity:0.6;fill:#BF2A92;}
	.st218{fill:#FFB8DF;}
	.st219{opacity:0.5;fill:#D15992;}
	.st220{fill:#FFB895;}
	.st221{fill:#FF938B;}
	.st222{fill:url(#SVGID_187_);}
	.st223{fill:#6D181D;}
	.st224{fill:url(#SVGID_188_);}
	.st225{opacity:0.6;fill:#BF6D92;}
	.st226{opacity:0.7;fill:#BF6D92;}
	.st227{fill:#BF6D92;}
	.st228{opacity:0.5;fill:#FFA7A1;}
	.st229{fill:#FF7A5F;}
	.st230{fill:#A8292F;}
	.st231{opacity:0.6;fill:#CB89A7;}
	.st232{fill:#E0574F;}
	.st233{opacity:0.7;}
	.st234{opacity:0.8;fill:#BF6D92;}
	.st235{opacity:0.3;fill:#BF6D92;}
	.st236{fill:#FFA9A4;}
	.st237{opacity:0.5;fill:#BF6D92;}
	.st238{fill:#FF8189;}
	.st239{fill:url(#SVGID_189_);}
	.st240{fill:url(#SVGID_190_);}
	.st241{opacity:0.2;fill:#E72F92;}
	.st242{opacity:0.5;fill:#FFECA4;}
	.st243{opacity:0.3;fill:#FF6D92;}
	.st244{opacity:0.6;fill:#D41892;}
	.st245{opacity:0.69;fill:#FFECA4;}
	.st246{opacity:0.6;fill:#E77592;}
	.st247{opacity:0.5;fill:#FFFFA4;}
	.st248{fill:#FFECA4;}
	.st249{fill:url(#SVGID_191_);}
	.st250{fill:url(#SVGID_192_);}
	.st251{fill:#FFAE90;}
	.st252{fill:url(#SVGID_193_);}
	.st253{fill:url(#SVGID_194_);}
	.st254{fill:url(#SVGID_195_);}
	.st255{opacity:0.5;fill:#BF2A92;}
	.st256{fill:#BE5548;}
	.st257{opacity:0.8;fill:#BF2A92;}
	.st258{opacity:0.5;fill:#CC7777;}
	.st259{fill:#A74E48;}
	.st260{fill:#F77A77;}
	.st261{opacity:0.3;fill:#BF2A92;}
	.st262{fill:url(#SVGID_196_);}
	.st263{fill:url(#SVGID_197_);}
	.st264{fill:url(#SVGID_198_);}
	.st265{fill:#420714;}
	.st266{fill:url(#SVGID_199_);}
	.st267{fill:url(#SVGID_200_);}
	.st268{fill:url(#SVGID_201_);}
	.st269{fill:url(#SVGID_202_);}
	.st270{opacity:0.5;fill:#F77A77;}
	.st271{fill:#B3424D;}
	.st272{fill:url(#SVGID_203_);}
	.st273{fill:url(#SVGID_204_);}
	.st274{opacity:0.57;fill:#E33292;}
	.st275{fill:#FF75C7;}
	.st276{fill:url(#SVGID_205_);}
	.st277{opacity:0.8;fill:#E50092;}
	.st278{fill:#FFB3C7;}
	.st279{opacity:0.5;fill:#E33292;}
	.st280{fill:#E50092;}
	.st281{fill:url(#SVGID_206_);}
	.st282{fill:#FF8B9A;}
	.st283{fill:url(#SVGID_207_);}
	.st284{fill:url(#SVGID_208_);}
	.st285{fill:url(#SVGID_209_);}
	.st286{fill:url(#SVGID_210_);}
	.st287{fill:url(#SVGID_211_);}
	.st288{opacity:0.5;fill:#989310;}
	.st289{fill:#B3B35E;}
	.st290{opacity:0.2;fill:#989310;}
	.st291{fill:#DBF15E;}
	.st292{fill:#B3F25E;}
	.st293{fill:url(#SVGID_212_);}
	.st294{fill:#CCE031;}
	.st295{fill:url(#SVGID_213_);}
	.st296{fill:url(#SVGID_214_);}
	.st297{fill:url(#SVGID_215_);}
	.st298{fill:url(#SVGID_216_);}
	.st299{fill:url(#SVGID_217_);}
	.st300{fill:url(#SVGID_218_);}
	.st301{fill:url(#SVGID_219_);}
	.st302{opacity:0.71;fill:#CA0092;}
	.st303{opacity:0.3;fill:#CA0092;}
	.st304{opacity:0.4;fill:#FFD8FF;}
	.st305{opacity:0.47;fill:#FFCCE0;}
	.st306{fill:url(#SVGID_220_);}
	.st307{fill:url(#SVGID_221_);}
	.st308{fill:url(#SVGID_222_);}
	.st309{fill:#FFE0D3;}
	.st310{opacity:0.2;fill:#FE5B92;}
	.st311{fill:url(#SVGID_223_);}
	.st312{opacity:0.8;fill:#CA0092;}
	.st313{fill:#FFDEC7;}
	.st314{fill:#CA0092;}
	.st315{fill:url(#SVGID_224_);}
	.st316{fill:url(#SVGID_225_);}
	.st317{opacity:0.3;fill:#FFA7A1;}
	.st318{fill:url(#SVGID_226_);}
	.st319{fill:url(#SVGID_227_);}
	.st320{fill:url(#SVGID_228_);}
	.st321{fill:url(#SVGID_229_);}
	.st322{fill:url(#SVGID_230_);}
	.st323{fill:url(#SVGID_231_);}
	.st324{fill:#FFBF97;}
	.st325{fill:url(#SVGID_232_);}
	.st326{fill:url(#SVGID_233_);}
	.st327{fill:url(#SVGID_234_);}
	.st328{fill:url(#SVGID_235_);}
	.st329{fill:url(#SVGID_236_);}
	.st330{fill:url(#SVGID_237_);}
	.st331{fill:url(#SVGID_238_);}
	.st332{fill:url(#SVGID_239_);}
	.st333{fill:#FF5C7F;}
	.st334{fill:url(#SVGID_240_);}
	.st335{fill:url(#SVGID_241_);}
	.st336{fill:url(#SVGID_242_);}
	.st337{fill:#D65963;}
	.st338{fill:#9A2754;}
	.st339{fill:#FFD9C7;}
	.st340{fill:#B8ABC7;}
	.st341{opacity:0.5;fill:#C23E86;}
	.st342{fill:#FFA67C;}
	.st343{fill:#D8D1E0;}
	.st344{fill:url(#SVGID_243_);}
	.st345{fill:url(#SVGID_244_);}
	.st346{fill:url(#SVGID_245_);}
	.st347{opacity:0.5;fill:#E06E00;}
	.st348{fill:url(#SVGID_246_);}
	.st349{fill:#FFE250;}
	.st350{opacity:0.3;fill:#C62792;}
	.st351{fill:#B3FF5E;}
	.st352{fill:url(#SVGID_247_);}
	.st353{opacity:0.5;fill:#FF5410;}
	.st354{fill:url(#SVGID_248_);}
	.st355{fill:url(#SVGID_249_);}
	.st356{fill:url(#SVGID_250_);}
	.st357{fill:url(#SVGID_251_);}
	.st358{fill:url(#SVGID_252_);}
	.st359{fill:url(#SVGID_253_);}
	.st360{opacity:0.62;fill:#C44C90;}
	.st361{opacity:0.5;fill:#CB1192;}
	.st362{fill:#FFA486;}
	.st363{opacity:0.3;fill:#C61192;}
	.st364{fill:#FF6DA0;}
	.st365{opacity:0.8;fill:#C44790;}
	.st366{opacity:0.5;fill:#C44C90;}
	.st367{opacity:0.7;fill:#C44790;}
	.st368{fill:#FF72AA;}
	.st369{fill:url(#SVGID_254_);}
	.st370{opacity:0.5;fill:#C95459;}
	.st371{fill:url(#SVGID_255_);}
	.st372{fill:url(#SVGID_256_);}
	.st373{fill:url(#SVGID_257_);}
	.st374{opacity:0.2;fill:#FFD8FF;}
	.st375{fill:#893537;}
	.st376{fill:#9D4648;}
	.st377{fill:url(#SVGID_258_);}
	.st378{fill:#FFC1A7;}
	.st379{fill:#FFAA86;}
	.st380{fill:#FFAB9F;}
	.st381{fill:url(#SVGID_259_);}
	.st382{opacity:0.5;fill:#C0673B;}
	.st383{fill:#A94F37;}
	.st384{fill:url(#SVGID_260_);}
	.st385{fill:url(#SVGID_261_);}
	.st386{fill:url(#SVGID_262_);}
	.st387{fill:url(#SVGID_263_);}
	.st388{fill:url(#SVGID_264_);}
	.st389{fill:url(#SVGID_265_);}
	.st390{fill:url(#SVGID_266_);}
	.st391{fill:url(#SVGID_267_);}
	.st392{fill:url(#SVGID_268_);}
	.st393{fill:url(#SVGID_269_);}
	.st394{fill:url(#SVGID_270_);}
	.st395{fill:url(#SVGID_271_);}
	.st396{opacity:0.2;fill:#CA1B3B;}
	.st397{opacity:0.64;fill:#CC5748;}
	.st398{opacity:0.5;fill:#D31F90;}
	.st399{opacity:0.2;fill:#CA0092;}
	.st400{fill:url(#SVGID_272_);}
	.st401{fill:url(#SVGID_273_);}
	.st402{fill:url(#SVGID_274_);}
	.st403{fill:url(#SVGID_275_);}
	.st404{fill:url(#SVGID_276_);}
	.st405{opacity:0.2;fill:#F2513B;}
	.st406{opacity:0.97;fill:#FFECA4;}
	.st407{fill:#FF956D;}
	.st408{opacity:0.3;fill:#E77592;}
	.st409{opacity:0.36;fill:#E77592;}
	.st410{fill:url(#SVGID_277_);}
	.st411{fill:url(#SVGID_278_);}
	.st412{fill:url(#SVGID_279_);}
	.st413{fill:url(#SVGID_280_);}
	.st414{fill:#AE4648;}
	.st415{fill:url(#SVGID_281_);}
	.st416{fill:url(#SVGID_282_);}
	.st417{fill:#988D89;}
	.st418{fill:#F4837C;}
	.st419{opacity:0.5;fill:#C94CA3;}
	.st420{fill:url(#SVGID_283_);}
	.st421{fill:url(#SVGID_284_);}
	.st422{fill:url(#SVGID_285_);}
	.st423{fill:url(#SVGID_286_);}
	.st424{fill:url(#SVGID_287_);}
	.st425{fill:url(#SVGID_288_);}
	.st426{fill:url(#SVGID_289_);}
	.st427{fill:url(#SVGID_290_);}
	.st428{opacity:0.64;fill:#DB877C;}
	.st429{opacity:0.2;fill:#DB877C;}
	.st430{fill:#FF9840;}
	.st431{opacity:0.5;fill:#FF956D;}
	.st432{fill:#CD5436;}
	.st433{fill:url(#SVGID_291_);}
	.st434{opacity:0.4;fill:#BB1892;}
	.st435{fill:#A0003B;}
	.st436{fill:url(#SVGID_292_);}
	.st437{opacity:0.64;fill:#DB727C;}
	.st438{fill:url(#SVGID_293_);}
	.st439{fill:url(#SVGID_294_);}
	.st440{opacity:0.6;fill:#C25792;}
	.st441{fill:#FF8140;}
	.st442{fill:#FF6A4D;}
	.st443{fill:url(#SVGID_295_);}
	.st444{fill:url(#SVGID_296_);}
	.st445{fill:url(#SVGID_297_);}
	.st446{opacity:0.8;fill:#250032;}
	.st447{fill:url(#SVGID_298_);}
	.st448{fill:url(#SVGID_299_);}
	.st449{opacity:0.5;fill:#E77592;}
	.st450{opacity:0.2;fill:#E77592;}
	.st451{fill:url(#SVGID_300_);}
	.st452{opacity:0.5;fill:#C62792;}
	.st453{opacity:0.8;fill:#E084CA;}
	.st454{fill:#FB95D7;}
	.st455{fill:url(#SVGID_301_);}
	.st456{fill:url(#SVGID_302_);}
	.st457{fill:url(#SVGID_303_);}
	.st458{fill:url(#SVGID_304_);}
	.st459{fill:url(#SVGID_305_);}
	.st460{fill:url(#SVGID_306_);}
	.st461{fill:url(#SVGID_307_);}
	.st462{fill:url(#SVGID_308_);}
	.st463{fill:url(#SVGID_309_);}
	.st464{fill:url(#SVGID_310_);}
	.st465{fill:url(#SVGID_311_);}
	.st466{fill:url(#SVGID_312_);}
	.st467{fill:url(#SVGID_313_);}
	.st468{fill:url(#SVGID_314_);}
	.st469{opacity:0.5;fill:#CA6D92;}
	.st470{opacity:0.55;fill:#C46581;}
	.st471{fill:url(#SVGID_315_);}
	.st472{opacity:0.55;fill:#FA6D92;}
	.st473{opacity:0.55;fill:#FFD8FF;}
	.st474{fill:url(#SVGID_316_);}
	.st475{fill:#932933;}
	.st476{fill:url(#SVGID_317_);}
	.st477{fill:url(#SVGID_318_);}
	.st478{fill:url(#SVGID_319_);}
	.st479{opacity:0.5;fill:#CAC5ED;}
	.st480{opacity:0.2;fill:#CAC5ED;}
	.st481{opacity:0.5;fill:#7577D6;}
	.st482{opacity:0.55;fill:#AEB0FF;}
	.st483{fill:#7C95FF;}
	.st484{opacity:0.3;fill:#9FBFD6;}
	.st485{fill:#74B0FF;}
	.st486{fill:#90BAFF;}
	.st487{fill:#90CAFF;}
	.st488{fill:#7492FF;}
	.st489{fill:url(#SVGID_320_);}
	.st490{opacity:0.4;fill:#8125AE;}
	.st491{fill:url(#SVGID_321_);}
	.st492{opacity:0.3;fill:#7577D6;}
	.st493{fill:url(#SVGID_322_);}
	.st494{fill:url(#SVGID_323_);}
	.st495{fill:url(#SVGID_324_);}
	.st496{fill:url(#SVGID_325_);}
	.st497{fill:#FFA5A4;}
	.st498{fill:#FF837C;}
	.st499{fill:url(#SVGID_326_);}
	.st500{fill:url(#SVGID_327_);}
	.st501{fill:#B3725E;}
	.st502{opacity:0.5;fill:#B3FF5E;}
	.st503{opacity:0.3;fill:#CC5748;}
	.st504{fill:#FFD1B1;}
	.st505{fill:#89242F;}
	.st506{fill:#9F3537;}
	.st507{fill:#F47E37;}
	.st508{fill:#F48D4A;}
	.st509{fill:url(#SVGID_328_);}
	.st510{fill:url(#SVGID_329_);}
	.st511{fill:#C25437;}
	.st512{fill:#F4AC44;}
	.st513{fill:#812137;}
	.st514{fill:#E75792;}
	.st515{fill:url(#SVGID_330_);}
	.st516{opacity:0.3;fill:#912774;}
	.st517{opacity:0.5;fill:#FFEFFF;}
	.st518{opacity:0.2;fill:#A85592;}
	.st519{fill:#FF77FF;}
	.st520{fill:#880000;}
	.st521{fill:#FF4D51;}
	.st522{opacity:0.5;fill:url(#SVGID_331_);}
	.st523{opacity:0.5;fill:url(#SVGID_332_);}
</style>
<g id="background">
</g>
<g id="layer1">
	<g>
		<path class="st446" d="M18.3,40.1C5.8,55.7,20,97.6,51.6,94.8s40.9-37.3,32.1-48.6C74.9,34.9,37.2,16.5,18.3,40.1z"/>
		<g>
			<linearGradient id="SVGID_2_" gradientUnits="userSpaceOnUse" x1="48.375" y1="83.5365" x2="48.375" y2="12.0254">
				<stop  offset="0" style="stop-color:#D14425"/>
				<stop  offset="1" style="stop-color:#BF342E"/>
			</linearGradient>
			<path style="fill:url(#SVGID_2_);" d="M46.9,12.2C26,13.2,3.4,15.9,9.9,53.8c0.2,1.4,0.6,2.8,1,4.2c0,0,0,0,0,0
				C15.4,73.1,29.7,83.2,47,83.5c18.3,0.3,35.9-12.1,39.9-29.1c0,0,0,0,0,0c0.3-1.2,0.5-2.5,0.6-3.7C91.7,12.4,68.6,11.2,46.9,12.2z
				 M48.2,35.9c7.6-0.3,14,5.1,13.8,11.9c-0.1,6.7-6.4,12-13.8,11.8c-7.1-0.1-12.8-5.2-12.9-11.5C35.1,41.7,40.8,36.2,48.2,35.9z"/>
			
				<linearGradient id="SVGID_3_" gradientUnits="userSpaceOnUse" x1="350.9185" y1="602.564" x2="280.4434" y2="602.564" gradientTransform="matrix(0 1 -1 0 650.7559 -277.4865)">
				<stop  offset="0" style="stop-color:#DB4A25"/>
				<stop  offset="1" style="stop-color:#E77A2E"/>
			</linearGradient>
			<path class="st1" d="M87.3,39.5C88.4,18.8,69.9,2,46.8,3C24.6,4,8,21.1,9.1,40.4c1,18.3,17.7,32.7,37.8,33
				C67.9,73.8,86.2,59,87.3,39.5z M35.1,36.9c-0.1-6.6,5.6-12.3,13.1-12.6c7.8-0.3,14.2,5.2,14,12.3c-0.1,6.9-6.5,12.4-14,12.2
				C41,48.7,35.2,43.4,35.1,36.9z"/>
			<path class="st409" d="M37.2,41.7c-2.9,1.1-2.7-13.1,6.9-16.7c9.7-3.7,13.1,4.4,13.4,7.9c0.4,3.5-6.8,2.2-12,2.9
				C40.3,36.7,37.2,41.7,37.2,41.7z"/>
			<path class="st449" d="M56.9,81.8c-6.2-1.4,18.4-17.1,25.2-26.4c7-9.6,2.3,8.9-4.6,15.6C67.6,80.9,56.9,81.8,56.9,81.8z"/>
			<path class="st406" d="M86.9,54.5c-3.9,17-21.6,29.4-39.9,29.1C29.7,83.2,15.4,73.1,10.9,58c0.3,0.7,10,25.2,38.9,23.9
				C78.7,80.5,86.7,55.1,86.9,54.5z"/>
			<path class="st407" d="M10.9,35.9c-0.4,14,21.1,11.3,23.3,10.5c2.2-0.9-6.9-23.8,16.4-24.1c14.7-0.2,12.3,16.3,13.3,23.2
				c1,6.9,20.6,6.2,23.4-6C90.1,27.3,75.2,3.4,49.1,4C22.9,4.7,11.2,23.7,10.9,35.9z"/>
			<path class="st450" d="M30.8,67c-6.9-2.9,25.7-15.3,43-15.8C91.2,50.6,62.2,80.3,30.8,67z"/>
			<path class="st449" d="M10,52.3c0.2-3.5,6.8,12,21.1,18.1c14.2,6.1,15.1,10.6,3.4,8.8C22.9,77.5,12.8,64.4,10,52.3z"/>
			<linearGradient id="SVGID_4_" gradientUnits="userSpaceOnUse" x1="48.4547" y1="70.2119" x2="48.4547" y2="2.5899">
				<stop  offset="0" style="stop-color:#BA6AEC"/>
				<stop  offset="0.4575" style="stop-color:#B570EA"/>
				<stop  offset="1" style="stop-color:#AA7FE5"/>
			</linearGradient>
			<path class="st2" d="M73.4,14.3C57.5,6.3,62.8,1.1,43.8,3c-19,1.8-25.5,10.1-29.2,17.5c-3.7,7.4-4.8,9-4.9,11.7
				c-0.2,7.6,2.4,21.1,10.8,30.3c8.4,9.2,22.1,6.3,35.3,7.6c13.2,1.4,20-10.8,27-21.3C89.9,38.3,89.3,22.4,73.4,14.3z M63.9,34.9
				c-1.7,12.5-13.2,20.6-24.5,10.7c-11.2-9.8-2.1-21.5,5.2-23C48.7,21.8,65.2,24.7,63.9,34.9z"/>
			<path class="st452" d="M35,39.8c0,0-4.5-10.3,6.5-18.6c11-8.3,21,2.3,22.8,7.9c1.8,5.5-2.3,12.2-2.3,12.2s2.1-7.2-0.9-12.1
				c-3-4.9-17.5-4.3-22.2-0.3C34.3,32.8,34,36.4,35,39.8z"/>
			<path class="st452" d="M10,37.8c0,0,4.1,20.2,16.8,26.3c6.3,3,12.5,3.8,18.8,3.7c6.5-0.1,12.5-0.2,17.6-1.5
				C73.4,63.8,77.1,56,83.1,46.3s3-18,3-18s2.5,6.4,0.7,15.4c-1.8,9-8.1,11.4-12.4,19.6c-4.3,8.3-9.5,8.3-24,6.9
				c-14.5-1.5-15.5,2.4-24.1-0.7C17.7,66.4,9.9,51.8,10,37.8z"/>
			<path class="st453" d="M11.5,40c3,11.6,19,14.7,24.1,14c5.1-0.8-4.3-13.6-1.5-25.6c2.8-12,17.8-14,25.7-6.7
				c7.9,7.4,7.9,13,2,24.1c-5.9,11.1,19.5,1.7,23.2-9.2c3.6-10.9-9.3-20.5-16.9-23.7C60.6,9.6,58.3,2.2,48.2,3
				C38.1,3.8,21.4,7.9,15.8,20.3C10.3,32.7,11.5,40,11.5,40z"/>
			<path class="st407" d="M56.6,67.5C45.2,67.8,67.6,59,73.4,56.8C79.2,54.7,71,67,56.6,67.5z"/>
			<path class="st407" d="M16.5,53.3c0,0,6.2,9.9,14,11.9c7.8,2,12.6,1.1,12.6,1.1S31,49.7,16.5,53.3z"/>
			<path class="st407" d="M19.2,14.6c-1,3.9,16-6.7,26.2-9.4C55.7,2.6,28.7,0.3,19.2,14.6z"/>
			<path class="st55" d="M68.8,58.2c-3.9,3.9,1.3,6.3,3.9,2.5C75.3,56.9,71.5,55.5,68.8,58.2z"/>
			<path class="st55" d="M19.7,14.2c-4.1,4,0.6,5.9,3.3,2S22.4,11.5,19.7,14.2z"/>
			<path class="st454" d="M35.6,67c1.8,0.3,5.7-0.1,13-0.5c7.4-0.4,14.9-0.3,14.9-0.3s-2.9,1.1-12.4,1.5C41.7,68.1,35.6,67,35.6,67z
				"/>
			<path class="st454" d="M80.9,19.9c0,0,4.3,5.9,4.2,13c-0.1,7.2-1.4,11.7-1.4,11.7s4.3-7.7,2.8-15C85,22.4,80.9,19.9,80.9,19.9z"
				/>
			<path class="st454" d="M10,36.4c0,0,0-4.8,2.2-10.7c2.2-5.9,6.5-11.7,6.5-11.7s-5.1,7.3-7.4,10.3C9.1,27.2,10,36.4,10,36.4z"/>
			<linearGradient id="SVGID_5_" gradientUnits="userSpaceOnUse" x1="38.9953" y1="66.3684" x2="38.9953" y2="39.9628">
				<stop  offset="0" style="stop-color:#FF9500"/>
				<stop  offset="1" style="stop-color:#FFA200"/>
			</linearGradient>
			<path class="st3" d="M12.3,41.6c2.4-6.6,25,8.2,42.1,14.9c17.1,6.7,10.7,10.6,6.6,9.8c-4.1-0.9-10.8-8.3-26.9-13.6
				C18,47.4,11.8,47.6,12.3,41.6z"/>
			<linearGradient id="SVGID_6_" gradientUnits="userSpaceOnUse" x1="23.9508" y1="34.2288" x2="23.9508" y2="20.9415">
				<stop  offset="0" style="stop-color:#FF9500"/>
				<stop  offset="1" style="stop-color:#FFA200"/>
			</linearGradient>
			<path class="st4" d="M12.9,23.4c-1.1,4,15.8,8.8,18.3,10.3c2.5,1.5,3.8-0.6,3.9-3.1c0.1-2.6-8.4-5.3-12.9-8.1
				C17.7,19.7,13.5,21.1,12.9,23.4z"/>
			<linearGradient id="SVGID_7_" gradientUnits="userSpaceOnUse" x1="34.5308" y1="22.1525" x2="34.5308" y2="6.8782">
				<stop  offset="0" style="stop-color:#FF9500"/>
				<stop  offset="1" style="stop-color:#FFA200"/>
			</linearGradient>
			<path class="st5" d="M24.1,8.7C22.2,12.2,37,20.9,39.7,21.9c2.7,1,5.7-0.5,5.4-4.3c-0.3-3.8-16.4-11-18.3-10.7
				C24.8,7.2,24.7,7.6,24.1,8.7z"/>
			
				<linearGradient id="SVGID_8_" gradientUnits="userSpaceOnUse" x1="67.9515" y1="15.0179" x2="67.9515" y2="-13.7352" gradientTransform="matrix(0.9995 -3.270000e-02 3.270000e-02 0.9995 -4.7829 15.9993)">
				<stop  offset="0" style="stop-color:#FF9500"/>
				<stop  offset="1" style="stop-color:#FFA200"/>
			</linearGradient>
			<path class="st7" d="M39.2,3.8c2.2,2,24.3,9.6,34,18c9.6,8.4,14.2,7,14.3,3.7c0.1-3.3-11.5-9.6-19.6-14.1
				c-8-4.5-19.2-10.7-23.8-10.8C39.5,0.6,38.2,2.9,39.2,3.8z"/>
			<linearGradient id="SVGID_9_" gradientUnits="userSpaceOnUse" x1="75.905" y1="41.5324" x2="75.905" y2="29.5345">
				<stop  offset="0" style="stop-color:#FF9500"/>
				<stop  offset="1" style="stop-color:#FFA200"/>
			</linearGradient>
			<path class="st8" d="M66,33c1.5,3.7,14.4,7.6,16.1,8.3c4.7,1.7,4.4-4.4,3.5-5.6c-0.9-1.3-14.9-5-17.6-5.9
				C65.2,28.8,65.4,31.4,66,33z"/>
			
				<linearGradient id="SVGID_10_" gradientUnits="userSpaceOnUse" x1="64.5345" y1="70.2177" x2="64.5345" y2="60.7279" gradientTransform="matrix(0.9992 3.910000e-02 -3.910000e-02 0.9992 7.9285 -19.3554)">
				<stop  offset="0" style="stop-color:#FF9500"/>
				<stop  offset="1" style="stop-color:#FFA200"/>
			</linearGradient>
			<path class="st9" d="M59.9,44.1c-3,2.6,6.1,6.5,12.7,8.6c6.6,2.2,7.7-0.4,7.7-2.7c0-1-4.2-2.8-8.6-4.1
				C66.8,44.6,61.8,42.5,59.9,44.1z"/>
			<path class="st397" d="M39.5,1.9c-0.5,1.2,1.7,3.2,7.2,5c6.1,2,13.9,0.2,20.8,7.5c10,10.5,16.9,13.9,18.8,13.5c0,0-0.8,1.3-4,1.3
				c-3.3-0.1-11.8-8.6-21-13.2C52,11.2,38.8,6.1,38.3,5.3c-0.2-0.4,0.3-0.9,0.6-1.6C38.6,2.6,39.5,1.9,39.5,1.9z"/>
			<path class="st397" d="M25,11.7c1.6,1.7,10.9,7.4,14.3,7.7c3.4,0.4,5.7-1.8,5.7-1.8s2.5,4.8-3.7,5.1C35.3,23,25,11.7,25,11.7z"/>
			<path class="st397" d="M65.7,30.6c0.3,2.8,2.9,5.1,13.8,8.3c4.7,1.4,6.7,0.4,6.7,0.4s0.4,2.4-3.9,2.5C78,42,67.5,37.8,65.8,35.6
				C64.1,33.3,65.7,30.6,65.7,30.6z"/>
			<path class="st397" d="M59.4,44.7c0.1,1,4.1,4.9,14.4,7.1c5.3,1.1,6.6-0.2,6.6-0.2s-0.4,3.5-4,4c-3.6,0.5-15.4-5.4-17.1-7.4
				C57.6,46.1,59.4,44.7,59.4,44.7z"/>
			<path class="st397" d="M12.3,42.3c0,0,0.1,1.5,5.1,3.8c5,2.3,20.8,5.3,30.8,10.7S61.8,66,63.5,65c1.8-1,1.4-2.5,1.4-2.5
				s1.6,1,1.8,2.7c0.2,1.8-2.9,2.6-5.1,2.7c-2.1,0.1-12.5-6.6-24.2-11.3c-11.7-4.7-23-8-24.6-9.8C11.2,45,12.3,42.3,12.3,42.3z"/>
			<path class="st397" d="M12.8,24.3c0,0,8.8,4.3,15.6,6.4c6.8,2,5.3-2,5.3-2s1.3,0.1,2.2,2c0.9,1.9,0.6,5.7-1.8,5.4
				c-2.5-0.3-9.1-3.4-14.9-5.4C13.4,28.6,12.8,24.3,12.8,24.3z"/>
			<path class="st55" d="M40.1,15c-1.7-0.7-1.6,2.6,0.2,2.9C42.2,18.2,41.6,15.6,40.1,15z"/>
			<path class="st55" d="M18.1,44.2c-0.2,1.5,3.2,2.8,3.8,1.1S18.3,42.8,18.1,44.2z"/>
			<path class="st289" d="M60.9,61.8c-0.8,0.6,1,1.6,2.1,1.7C64,63.6,62.3,60.8,60.9,61.8z"/>
			<path class="st55" d="M81.7,36.6c-1.5-1.9,1.8-0.9,2.4,0C84.7,37.5,82.3,37.3,81.7,36.6z"/>
			<path class="st55" d="M72.2,51.2c-2.8-2.5,2.5-1.8,3.6-0.7C76.9,51.8,73.2,52.1,72.2,51.2z"/>
			<path class="st55" d="M77.7,18.9c-2.5,1,0.5,4.8,3.4,4.2C84,22.4,79.6,18.1,77.7,18.9z"/>
		</g>
	</g>
</g>
</svg>
