<?xml version="1.0" encoding="utf-8"?>
<!-- Generator: Adobe Illustrator 22.0.1, SVG Export Plug-In . SVG Version: 6.00 Build 0)  -->
<svg version="1.1" xmlns="http://www.w3.org/2000/svg" xmlns:xlink="http://www.w3.org/1999/xlink" x="0px" y="0px"
	 viewBox="0 0 100 100" style="enable-background:new 0 0 100 100;" xml:space="preserve">
<style type="text/css">
	.st0{clip-path:url(#SVGID_2_);}
	.st1{fill:url(#SVGID_3_);}
	.st2{fill:url(#SVGID_4_);}
	.st3{fill:url(#SVGID_5_);}
	.st4{fill:url(#SVGID_6_);}
	.st5{fill:url(#SVGID_7_);}
	.st6{opacity:0.5;}
	.st7{fill:url(#SVGID_8_);}
	.st8{fill:url(#SVGID_9_);}
	.st9{fill:url(#SVGID_10_);}
	.st10{fill:url(#SVGID_11_);}
	.st11{fill:url(#SVGID_12_);}
	.st12{fill:url(#SVGID_13_);}
	.st13{fill:url(#SVGID_14_);}
	.st14{fill:url(#SVGID_15_);}
	.st15{fill:url(#SVGID_16_);}
	.st16{fill:url(#SVGID_17_);}
	.st17{fill:url(#SVGID_18_);}
	.st18{fill:url(#SVGID_19_);}
	.st19{fill:url(#SVGID_20_);}
	.st20{fill:url(#SVGID_21_);}
	.st21{fill:url(#SVGID_22_);}
	.st22{fill:url(#SVGID_23_);}
	.st23{fill:url(#SVGID_24_);}
	.st24{fill:url(#SVGID_25_);}
	.st25{fill:url(#SVGID_26_);}
	.st26{fill:url(#SVGID_27_);}
	.st27{fill:url(#SVGID_28_);}
	.st28{fill:url(#SVGID_29_);}
	.st29{fill:url(#SVGID_30_);}
	.st30{fill:url(#SVGID_31_);}
	.st31{fill:url(#SVGID_32_);}
	.st32{fill:url(#SVGID_33_);}
	.st33{fill:url(#SVGID_34_);}
	.st34{fill:url(#SVGID_35_);}
	.st35{fill:url(#SVGID_36_);}
	.st36{fill:url(#SVGID_37_);}
	.st37{fill:url(#SVGID_38_);}
	.st38{fill:url(#SVGID_39_);}
	.st39{fill:url(#SVGID_40_);}
	.st40{fill:url(#SVGID_41_);}
	.st41{fill:url(#SVGID_42_);}
	.st42{fill:url(#SVGID_43_);}
	.st43{fill:url(#SVGID_44_);}
	.st44{fill:url(#SVGID_45_);}
	.st45{fill:url(#SVGID_46_);}
	.st46{fill:url(#SVGID_47_);}
	.st47{fill:url(#SVGID_48_);}
	.st48{fill:url(#SVGID_49_);}
	.st49{fill:url(#SVGID_50_);}
	.st50{fill:url(#SVGID_51_);}
	.st51{fill:url(#SVGID_52_);}
	.st52{fill:url(#SVGID_53_);}
	.st53{fill:url(#SVGID_54_);}
	.st54{opacity:0.5;fill:url(#SVGID_55_);}
	.st55{fill:#FFFFFF;}
	.st56{opacity:0.5;fill:url(#SVGID_56_);}
	.st57{opacity:0.3;fill:#6D109D;}
	.st58{opacity:0.3;fill:#FFFFFF;}
	.st59{opacity:0.5;fill:url(#SVGID_57_);}
	.st60{fill:url(#SVGID_58_);}
	.st61{opacity:0.5;fill:url(#SVGID_59_);}
	.st62{opacity:0.5;fill:url(#SVGID_60_);}
	.st63{opacity:0.5;fill:url(#SVGID_61_);}
	.st64{fill:url(#SVGID_62_);}
	.st65{opacity:0.5;fill:url(#SVGID_63_);}
	.st66{opacity:0.5;fill:url(#SVGID_64_);}
	.st67{opacity:0.5;fill:url(#SVGID_65_);}
	.st68{fill:url(#SVGID_66_);}
	.st69{opacity:0.5;fill:url(#SVGID_67_);}
	.st70{opacity:0.5;fill:url(#SVGID_68_);}
	.st71{opacity:0.5;fill:url(#SVGID_69_);}
	.st72{opacity:0.5;fill:url(#SVGID_70_);}
	.st73{opacity:0.5;fill:url(#SVGID_71_);}
	.st74{opacity:0.5;fill:#FFFFFF;}
	.st75{opacity:0.5;fill:url(#SVGID_72_);}
	.st76{opacity:0.5;fill:url(#SVGID_73_);}
	.st77{opacity:0.5;fill:url(#SVGID_74_);}
	.st78{opacity:0.5;fill:url(#SVGID_75_);}
	.st79{opacity:0.5;fill:url(#SVGID_76_);}
	.st80{opacity:0.5;fill:url(#SVGID_77_);}
	.st81{opacity:0.3;fill:url(#SVGID_78_);}
	.st82{opacity:0.3;fill:url(#SVGID_79_);}
	.st83{opacity:0.3;fill:url(#SVGID_80_);}
	.st84{opacity:0.3;fill:url(#SVGID_81_);}
	.st85{opacity:0.3;fill:url(#SVGID_82_);}
	.st86{opacity:0.3;fill:url(#SVGID_83_);}
	.st87{opacity:0.3;fill:url(#SVGID_84_);}
	.st88{opacity:0.3;fill:url(#SVGID_85_);}
	.st89{opacity:0.3;fill:url(#SVGID_86_);}
	.st90{opacity:0.3;fill:url(#SVGID_87_);}
	.st91{opacity:0.3;fill:url(#SVGID_88_);}
	.st92{opacity:0.3;fill:url(#SVGID_89_);}
	.st93{opacity:0.3;fill:url(#SVGID_90_);}
	.st94{opacity:0.3;fill:url(#SVGID_91_);}
	.st95{opacity:0.3;fill:url(#SVGID_92_);}
	.st96{opacity:0.3;fill:url(#SVGID_93_);}
	.st97{opacity:0.3;fill:url(#SVGID_94_);}
	.st98{opacity:0.3;fill:url(#SVGID_95_);}
	.st99{opacity:0.3;fill:url(#SVGID_96_);}
	.st100{opacity:0.3;fill:url(#SVGID_97_);}
	.st101{opacity:0.3;fill:url(#SVGID_98_);}
	.st102{opacity:0.3;fill:url(#SVGID_99_);}
	.st103{opacity:0.3;fill:url(#SVGID_100_);}
	.st104{opacity:0.3;fill:url(#SVGID_101_);}
	.st105{opacity:0.3;fill:url(#SVGID_102_);}
	.st106{opacity:0.3;fill:url(#SVGID_103_);}
	.st107{opacity:0.3;fill:url(#SVGID_104_);}
	.st108{opacity:0.3;fill:url(#SVGID_105_);}
	.st109{opacity:0.3;fill:url(#SVGID_106_);}
	.st110{opacity:0.3;fill:url(#SVGID_107_);}
	.st111{opacity:0.3;fill:url(#SVGID_108_);}
	.st112{opacity:0.3;fill:url(#SVGID_109_);}
	.st113{opacity:0.3;fill:url(#SVGID_110_);}
	.st114{opacity:0.3;fill:url(#SVGID_111_);}
	.st115{opacity:0.3;fill:url(#SVGID_112_);}
	.st116{opacity:0.3;fill:url(#SVGID_113_);}
	.st117{opacity:0.3;fill:url(#SVGID_114_);}
	.st118{opacity:0.3;fill:url(#SVGID_115_);}
	.st119{opacity:0.3;fill:url(#SVGID_116_);}
	.st120{opacity:0.3;fill:url(#SVGID_117_);}
	.st121{fill:#2B0038;}
	.st122{fill:url(#SVGID_118_);}
	.st123{fill:url(#SVGID_119_);}
	.st124{fill:url(#SVGID_120_);}
	.st125{fill:url(#SVGID_121_);}
	.st126{fill:url(#SVGID_122_);}
	.st127{fill:url(#SVGID_123_);}
	.st128{opacity:0.6;fill:#9A1842;}
	.st129{opacity:0.8;fill:#9A2E69;}
	.st130{fill:#8300C0;}
	.st131{fill:url(#SVGID_124_);}
	.st132{opacity:0.4;fill:#D41892;}
	.st133{fill:#FF9650;}
	.st134{fill:url(#SVGID_125_);}
	.st135{fill:url(#SVGID_126_);}
	.st136{fill:url(#SVGID_127_);}
	.st137{fill:url(#SVGID_128_);}
	.st138{opacity:0.4;}
	.st139{fill:#98003B;}
	.st140{fill:#FF7A4A;}
	.st141{fill:#FF924A;}
	.st142{fill:url(#SVGID_129_);}
	.st143{fill:url(#SVGID_130_);}
	.st144{fill:url(#SVGID_131_);}
	.st145{opacity:0.71;fill:#CA6D92;}
	.st146{fill:#FFE3EA;}
	.st147{fill:url(#SVGID_132_);}
	.st148{fill:url(#SVGID_133_);}
	.st149{fill:url(#SVGID_134_);}
	.st150{fill:url(#SVGID_135_);}
	.st151{fill:url(#SVGID_136_);}
	.st152{fill:url(#SVGID_137_);}
	.st153{fill:url(#SVGID_138_);}
	.st154{fill:url(#SVGID_139_);}
	.st155{fill:url(#SVGID_140_);}
	.st156{fill:url(#SVGID_141_);}
	.st157{fill:url(#SVGID_142_);}
	.st158{fill:url(#SVGID_143_);}
	.st159{fill:url(#SVGID_144_);}
	.st160{fill:url(#SVGID_145_);}
	.st161{opacity:0.8;}
	.st162{fill:#9A2E69;}
	.st163{fill:url(#SVGID_146_);}
	.st164{fill:url(#SVGID_147_);}
	.st165{fill:url(#SVGID_148_);}
	.st166{fill:url(#SVGID_149_);}
	.st167{fill:url(#SVGID_150_);}
	.st168{fill:url(#SVGID_151_);}
	.st169{fill:url(#SVGID_152_);}
	.st170{fill:url(#SVGID_153_);}
	.st171{fill:url(#SVGID_154_);}
	.st172{fill:url(#SVGID_155_);}
	.st173{fill:url(#SVGID_156_);}
	.st174{fill:url(#SVGID_157_);}
	.st175{fill:url(#SVGID_158_);}
	.st176{fill:url(#SVGID_159_);}
	.st177{fill:url(#SVGID_160_);}
	.st178{fill:url(#SVGID_161_);}
	.st179{fill:url(#SVGID_162_);}
	.st180{fill:url(#SVGID_163_);}
	.st181{fill:url(#SVGID_164_);}
	.st182{fill:url(#SVGID_165_);}
	.st183{fill:url(#SVGID_166_);}
	.st184{fill:url(#SVGID_167_);}
	.st185{fill:url(#SVGID_168_);}
	.st186{fill:url(#SVGID_169_);}
	.st187{fill:url(#SVGID_170_);}
	.st188{fill:url(#SVGID_171_);}
	.st189{fill:url(#SVGID_172_);}
	.st190{fill:url(#SVGID_173_);}
	.st191{fill:#90DEFF;}
	.st192{opacity:0.5;fill:url(#SVGID_174_);}
	.st193{opacity:0.5;fill:url(#SVGID_175_);}
	.st194{fill:url(#SVGID_176_);}
	.st195{opacity:0.2;fill:#FFFFFF;}
	.st196{fill:#BF77D8;}
	.st197{fill:url(#SVGID_177_);}
	.st198{fill:url(#SVGID_178_);}
	.st199{fill:url(#SVGID_179_);}
	.st200{fill:url(#SVGID_180_);}
	.st201{fill:url(#SVGID_181_);}
	.st202{fill:url(#SVGID_182_);}
	.st203{fill:url(#SVGID_183_);}
	.st204{opacity:0.8;fill:#E72F92;}
	.st205{opacity:0.6;fill:#E72F92;}
	.st206{opacity:0.5;fill:#E72F92;}
	.st207{fill:#FFD8FF;}
	.st208{opacity:0.8;fill:#A6004A;}
	.st209{opacity:0.5;fill:#A6004A;}
	.st210{opacity:0.5;fill:#BD004A;}
	.st211{opacity:0.3;fill:#FFD8FF;}
	.st212{fill:url(#SVGID_184_);}
	.st213{fill:url(#SVGID_185_);}
	.st214{opacity:0.5;fill:#E75992;}
	.st215{opacity:0.5;fill:#FFD8FF;}
	.st216{fill:url(#SVGID_186_);}
	.st217{opacity:0.6;fill:#BF2A92;}
	.st218{fill:#FFB8DF;}
	.st219{opacity:0.5;fill:#D15992;}
	.st220{fill:#FFB895;}
	.st221{fill:#FF938B;}
	.st222{fill:url(#SVGID_187_);}
	.st223{fill:#6D181D;}
	.st224{fill:url(#SVGID_188_);}
	.st225{opacity:0.6;fill:#BF6D92;}
	.st226{opacity:0.7;fill:#BF6D92;}
	.st227{fill:#BF6D92;}
	.st228{opacity:0.5;fill:#FFA7A1;}
	.st229{fill:#FF7A5F;}
	.st230{fill:#A8292F;}
	.st231{opacity:0.6;fill:#CB89A7;}
	.st232{fill:#E0574F;}
	.st233{opacity:0.7;}
	.st234{opacity:0.8;fill:#BF6D92;}
	.st235{opacity:0.3;fill:#BF6D92;}
	.st236{fill:#FFA9A4;}
	.st237{opacity:0.5;fill:#BF6D92;}
	.st238{fill:#FF8189;}
	.st239{fill:url(#SVGID_189_);}
	.st240{fill:url(#SVGID_190_);}
	.st241{opacity:0.2;fill:#E72F92;}
	.st242{opacity:0.5;fill:#FFECA4;}
	.st243{opacity:0.3;fill:#FF6D92;}
	.st244{opacity:0.6;fill:#D41892;}
	.st245{opacity:0.69;fill:#FFECA4;}
	.st246{opacity:0.6;fill:#E77592;}
	.st247{opacity:0.5;fill:#FFFFA4;}
	.st248{fill:#FFECA4;}
	.st249{fill:url(#SVGID_191_);}
	.st250{fill:url(#SVGID_192_);}
	.st251{fill:#FFAE90;}
	.st252{fill:url(#SVGID_193_);}
	.st253{fill:url(#SVGID_194_);}
	.st254{fill:url(#SVGID_195_);}
	.st255{opacity:0.5;fill:#BF2A92;}
	.st256{fill:#BE5548;}
	.st257{opacity:0.8;fill:#BF2A92;}
	.st258{opacity:0.5;fill:#CC7777;}
	.st259{fill:#A74E48;}
	.st260{fill:#F77A77;}
	.st261{opacity:0.3;fill:#BF2A92;}
	.st262{fill:url(#SVGID_196_);}
	.st263{fill:url(#SVGID_197_);}
	.st264{fill:url(#SVGID_198_);}
	.st265{fill:#420714;}
	.st266{fill:url(#SVGID_199_);}
	.st267{fill:url(#SVGID_200_);}
	.st268{fill:url(#SVGID_201_);}
	.st269{fill:url(#SVGID_202_);}
	.st270{opacity:0.5;fill:#F77A77;}
	.st271{fill:#B3424D;}
	.st272{fill:url(#SVGID_203_);}
	.st273{fill:url(#SVGID_204_);}
	.st274{opacity:0.57;fill:#E33292;}
	.st275{fill:#FF75C7;}
	.st276{fill:url(#SVGID_205_);}
	.st277{opacity:0.8;fill:#E50092;}
	.st278{fill:#FFB3C7;}
	.st279{opacity:0.5;fill:#E33292;}
	.st280{fill:#E50092;}
	.st281{fill:url(#SVGID_206_);}
	.st282{fill:#FF8B9A;}
	.st283{fill:url(#SVGID_207_);}
	.st284{fill:url(#SVGID_208_);}
	.st285{fill:url(#SVGID_209_);}
	.st286{fill:url(#SVGID_210_);}
	.st287{fill:url(#SVGID_211_);}
	.st288{opacity:0.5;fill:#989310;}
	.st289{fill:#B3B35E;}
	.st290{opacity:0.2;fill:#989310;}
	.st291{fill:#DBF15E;}
	.st292{fill:#B3F25E;}
	.st293{fill:url(#SVGID_212_);}
	.st294{fill:#CCE031;}
	.st295{fill:url(#SVGID_213_);}
	.st296{fill:url(#SVGID_214_);}
	.st297{fill:url(#SVGID_215_);}
	.st298{fill:url(#SVGID_216_);}
	.st299{fill:url(#SVGID_217_);}
	.st300{fill:url(#SVGID_218_);}
	.st301{fill:url(#SVGID_219_);}
	.st302{opacity:0.71;fill:#CA0092;}
	.st303{opacity:0.3;fill:#CA0092;}
	.st304{opacity:0.4;fill:#FFD8FF;}
	.st305{opacity:0.47;fill:#FFCCE0;}
	.st306{fill:url(#SVGID_220_);}
	.st307{fill:url(#SVGID_221_);}
	.st308{fill:url(#SVGID_222_);}
	.st309{fill:#FFE0D3;}
	.st310{opacity:0.2;fill:#FE5B92;}
	.st311{fill:url(#SVGID_223_);}
	.st312{opacity:0.8;fill:#CA0092;}
	.st313{fill:#FFDEC7;}
	.st314{fill:#CA0092;}
	.st315{fill:url(#SVGID_224_);}
	.st316{fill:url(#SVGID_225_);}
	.st317{fill:url(#SVGID_226_);}
	.st318{fill:url(#SVGID_227_);}
	.st319{fill:url(#SVGID_228_);}
	.st320{fill:url(#SVGID_229_);}
	.st321{fill:url(#SVGID_230_);}
	.st322{fill:url(#SVGID_231_);}
	.st323{fill:url(#SVGID_232_);}
	.st324{fill:#FF5C7F;}
	.st325{fill:url(#SVGID_233_);}
	.st326{fill:url(#SVGID_234_);}
	.st327{fill:url(#SVGID_235_);}
	.st328{fill:#D65963;}
	.st329{fill:#9A2754;}
	.st330{fill:#FFD9C7;}
	.st331{fill:#B8ABC7;}
	.st332{opacity:0.5;fill:#C23E86;}
	.st333{fill:#FFA67C;}
	.st334{fill:#D8D1E0;}
	.st335{fill:url(#SVGID_236_);}
	.st336{fill:url(#SVGID_237_);}
	.st337{fill:url(#SVGID_238_);}
	.st338{opacity:0.5;fill:#E06E00;}
	.st339{fill:url(#SVGID_239_);}
	.st340{fill:#FFE250;}
	.st341{opacity:0.3;fill:#C62792;}
	.st342{fill:#B3FF5E;}
	.st343{fill:url(#SVGID_240_);}
	.st344{opacity:0.5;fill:#FF5410;}
	.st345{fill:url(#SVGID_241_);}
	.st346{fill:url(#SVGID_242_);}
	.st347{fill:url(#SVGID_243_);}
	.st348{fill:url(#SVGID_244_);}
	.st349{fill:url(#SVGID_245_);}
	.st350{fill:url(#SVGID_246_);}
	.st351{opacity:0.62;fill:#C44C90;}
	.st352{opacity:0.5;fill:#CB1192;}
	.st353{fill:#FFA486;}
	.st354{opacity:0.3;fill:#C61192;}
	.st355{fill:#FF6DA0;}
	.st356{opacity:0.8;fill:#C44790;}
	.st357{opacity:0.5;fill:#C44C90;}
	.st358{opacity:0.7;fill:#C44790;}
	.st359{fill:#FF72AA;}
	.st360{fill:url(#SVGID_247_);}
	.st361{opacity:0.5;fill:#C95459;}
	.st362{fill:url(#SVGID_248_);}
	.st363{fill:url(#SVGID_249_);}
	.st364{fill:url(#SVGID_250_);}
	.st365{opacity:0.2;fill:#FFD8FF;}
	.st366{fill:#893537;}
	.st367{fill:#9D4648;}
	.st368{fill:url(#SVGID_251_);}
	.st369{fill:#FFC1A7;}
	.st370{fill:#FFAA86;}
	.st371{fill:#FFAB9F;}
	.st372{fill:url(#SVGID_252_);}
	.st373{opacity:0.5;fill:#C0673B;}
	.st374{fill:#A94F37;}
	.st375{fill:url(#SVGID_253_);}
	.st376{fill:url(#SVGID_254_);}
	.st377{fill:url(#SVGID_255_);}
	.st378{fill:url(#SVGID_256_);}
	.st379{fill:url(#SVGID_257_);}
	.st380{fill:url(#SVGID_258_);}
	.st381{fill:url(#SVGID_259_);}
	.st382{fill:url(#SVGID_260_);}
	.st383{fill:url(#SVGID_261_);}
	.st384{fill:url(#SVGID_262_);}
	.st385{fill:url(#SVGID_263_);}
	.st386{fill:url(#SVGID_264_);}
	.st387{opacity:0.2;fill:#CA1B3B;}
	.st388{opacity:0.64;fill:#CC5748;}
	.st389{opacity:0.5;fill:#D31F90;}
	.st390{opacity:0.2;fill:#CA0092;}
	.st391{fill:url(#SVGID_265_);}
	.st392{fill:url(#SVGID_266_);}
	.st393{fill:url(#SVGID_267_);}
	.st394{fill:url(#SVGID_268_);}
	.st395{fill:url(#SVGID_269_);}
	.st396{opacity:0.2;fill:#F2513B;}
	.st397{opacity:0.97;fill:#FFECA4;}
	.st398{fill:#FF956D;}
	.st399{opacity:0.3;fill:#E77592;}
	.st400{opacity:0.36;fill:#E77592;}
	.st401{fill:url(#SVGID_270_);}
	.st402{fill:url(#SVGID_271_);}
	.st403{fill:url(#SVGID_272_);}
	.st404{fill:url(#SVGID_273_);}
	.st405{fill:#AE4648;}
	.st406{fill:url(#SVGID_274_);}
	.st407{fill:url(#SVGID_275_);}
	.st408{fill:#988D89;}
	.st409{fill:#F4837C;}
	.st410{opacity:0.5;fill:#C94CA3;}
	.st411{fill:url(#SVGID_276_);}
	.st412{fill:url(#SVGID_277_);}
	.st413{fill:url(#SVGID_278_);}
	.st414{fill:url(#SVGID_279_);}
	.st415{fill:url(#SVGID_280_);}
	.st416{fill:url(#SVGID_281_);}
	.st417{fill:url(#SVGID_282_);}
	.st418{fill:url(#SVGID_283_);}
	.st419{opacity:0.64;fill:#DB877C;}
	.st420{opacity:0.2;fill:#DB877C;}
	.st421{fill:#FF9840;}
	.st422{opacity:0.5;fill:#FF956D;}
	.st423{fill:#CD5436;}
	.st424{fill:url(#SVGID_284_);}
	.st425{opacity:0.4;fill:#BB1892;}
	.st426{fill:#A0003B;}
	.st427{fill:url(#SVGID_285_);}
	.st428{opacity:0.64;fill:#DB727C;}
	.st429{fill:url(#SVGID_286_);}
	.st430{fill:url(#SVGID_287_);}
	.st431{opacity:0.6;fill:#C25792;}
	.st432{fill:#FF8140;}
	.st433{fill:#FF6A4D;}
	.st434{fill:url(#SVGID_288_);}
	.st435{fill:url(#SVGID_289_);}
	.st436{fill:url(#SVGID_290_);}
	.st437{fill:url(#SVGID_291_);}
	.st438{fill:url(#SVGID_292_);}
	.st439{fill:url(#SVGID_293_);}
	.st440{fill:url(#SVGID_294_);}
	.st441{fill:url(#SVGID_295_);}
	.st442{fill:url(#SVGID_296_);}
	.st443{fill:url(#SVGID_297_);}
	.st444{fill:url(#SVGID_298_);}
	.st445{opacity:0.5;fill:#CA6D92;}
	.st446{opacity:0.55;fill:#C46581;}
	.st447{fill:url(#SVGID_299_);}
	.st448{opacity:0.55;fill:#FA6D92;}
	.st449{opacity:0.55;fill:#FFD8FF;}
	.st450{fill:url(#SVGID_300_);}
	.st451{fill:#932933;}
	.st452{fill:url(#SVGID_301_);}
	.st453{fill:url(#SVGID_302_);}
	.st454{fill:url(#SVGID_303_);}
	.st455{opacity:0.5;fill:#CAC5ED;}
	.st456{opacity:0.2;fill:#CAC5ED;}
	.st457{opacity:0.5;fill:#7577D6;}
	.st458{opacity:0.55;fill:#AEB0FF;}
	.st459{fill:#7C95FF;}
	.st460{opacity:0.3;fill:#9FBFD6;}
	.st461{fill:#74B0FF;}
	.st462{fill:#90BAFF;}
	.st463{fill:#90CAFF;}
	.st464{fill:#7492FF;}
	.st465{fill:url(#SVGID_304_);}
	.st466{opacity:0.4;fill:#8125AE;}
	.st467{fill:url(#SVGID_305_);}
	.st468{opacity:0.3;fill:#7577D6;}
	.st469{fill:url(#SVGID_306_);}
	.st470{fill:url(#SVGID_307_);}
	.st471{fill:url(#SVGID_308_);}
	.st472{fill:url(#SVGID_309_);}
	.st473{fill:#FFA5A4;}
	.st474{fill:#FF837C;}
	.st475{fill:url(#SVGID_310_);}
	.st476{fill:url(#SVGID_311_);}
	.st477{fill:#B3725E;}
	.st478{opacity:0.5;fill:#B3FF5E;}
	.st479{opacity:0.3;fill:#CC5748;}
	.st480{fill:#FFD1B1;}
	.st481{fill:#89242F;}
	.st482{fill:#9F3537;}
	.st483{fill:#F47E37;}
	.st484{fill:#F48D4A;}
	.st485{fill:url(#SVGID_312_);}
	.st486{fill:url(#SVGID_313_);}
	.st487{fill:#C25437;}
	.st488{fill:#F4AC44;}
	.st489{fill:#812137;}
	.st490{fill:#E75792;}
	.st491{fill:url(#SVGID_314_);}
	.st492{opacity:0.3;fill:#912774;}
	.st493{opacity:0.5;fill:#FFEFFF;}
	.st494{opacity:0.2;fill:#A85592;}
	.st495{fill:#FF77FF;}
	.st496{fill:#880000;}
	.st497{fill:#FF4D51;}
	.st498{opacity:0.5;fill:url(#SVGID_315_);}
	.st499{opacity:0.5;fill:url(#SVGID_316_);}
	.st500{fill:#250032;}
	.st501{fill:url(#SVGID_317_);}
	.st502{opacity:0.3;fill:#FFA7A1;}
	.st503{fill:url(#SVGID_318_);}
	.st504{fill:url(#SVGID_319_);}
	.st505{fill:url(#SVGID_320_);}
	.st506{fill:url(#SVGID_321_);}
	.st507{fill:url(#SVGID_322_);}
	.st508{fill:url(#SVGID_323_);}
	.st509{fill:#FFBF97;}
</style>
<g id="background">
</g>
<g id="layer1">
	<path class="st500" d="M21.1,45.2c-9.4,12.4-13.1,41.9,5,51.9c4.7,2.6,20.8,0.8,27,0.2c5.4-0.5,17.3,1,21.3-1.3
		c18.3-10.2,15.4-35.5,8.6-44.7C74.6,40,39,21.6,21.1,45.2z"/>
	<g>
		<linearGradient id="SVGID_2_" gradientUnits="userSpaceOnUse" x1="49.9994" y1="93.5267" x2="49.9994" y2="1.6655">
			<stop  offset="0" style="stop-color:#C04A48"/>
			<stop  offset="1" style="stop-color:#D9612C"/>
		</linearGradient>
		<path style="fill:url(#SVGID_2_);" d="M86.4,55.9c-4.3,2.8-14.2,0.9-17.6,3.9c-0.8,0.7-0.5,2.4,0.4,4.5c0,0,0,0,0,0
			c2.4,5.9,9.3,15.5,10.2,20.9c0.2,0.8,0.2,1.5,0,2.1c-1.5,5.9-14.5,6.6-18.4,6c-3.9-0.6-8.6-14.2-12.2-14.2
			c-4.7,0-8.9,13.6-12.8,14.2c-3.9,0.6-16.9-0.1-18.4-6c-0.2-0.6-0.1-1.4,0.1-2.3c1-4.4,6.1-11.5,9.3-16.9c0,0,0,0,0,0
			c2-3.5,3.2-6.3,2-7.4c-3.3-3.1-11.7-2.1-16-4.9c-2.5-1.6-3.8-6.5-3.8-10.9c0-0.3,0-0.6,0-0.9c0.1-3,0.9-5.6,2.3-6.7
			c3.6-2.9,7-2.2,16.7,0.3c1.3,0.3,2.4,0.5,3.3,0.6c8.7,0.9-2.4-9.8-2.4-16.1c0-1.9,0.2-3.7,0.7-5.4C32.1,8.1,40.2,1.7,49.7,1.7
			c9.5,0,17.5,6.5,19.9,15.2c0.5,1.7,0.7,3.5,0.7,5.4c0,6.3-13.4,17-2.8,16.1c0,0,0,0,0,0c1-0.1,2.2-0.3,3.7-0.6
			c9.8-2.2,14.1-3.8,17.7-0.9c0.9,0.7,1.5,2.1,1.7,3.8C91.5,45.8,89.7,53.8,86.4,55.9z"/>
		<path class="st145" d="M31.5,38.3c8.7,0.9-2.4-9.8-2.4-16.1c0-1.9,0.2-3.7,0.7-5.4c-0.7,5.4,5.2,16,6.5,19.3
			C37.6,39.6,31.5,38.3,31.5,38.3z"/>
		<path class="st145" d="M67.4,38.3c-0.4,0.1-6,1.3-6-0.6c0-2,9.1-13,8.1-20.8c0.5,1.7,0.7,3.5,0.7,5.4
			C70.3,28.5,56.9,39.3,67.4,38.3z"/>
		<path class="st145" d="M86.4,55.9c-4.3,2.8-14.2,0.9-17.6,3.9c-0.8,0.7-0.5,2.4,0.4,4.5c-0.3-0.3-5.2-5.6-3.4-6.8
			c1.8-1.2,13.6-1.1,19.2-4.2c5.3-3,5.6-11.8,5.6-12.7C91.5,45.8,89.7,53.8,86.4,55.9z"/>
		<path class="st145" d="M26.9,68.1c2-3.5,3.2-6.3,2-7.4c-3.3-3.1-11.7-2.1-16-4.9c-2.5-1.6-3.8-6.5-3.8-10.9
			c0.2,12.4,17.7,12.2,21.8,13.9C35,60.7,27.3,67.8,26.9,68.1z"/>
		<path class="st145" d="M79.5,87.4c-1.5,5.9-14.5,6.6-18.4,6c-3.9-0.6-8.6-14.2-12.2-14.2c-4.7,0-8.9,13.6-12.8,14.2
			c-3.9,0.6-16.9-0.1-18.4-6c-0.2-0.6-0.1-1.4,0.1-2.3c0.3,3.3,8.8,5.6,15.2,5.6c6.4,0,14.2-15.3,16.6-17.5
			c2.4-2.2,7.2,14.1,12.1,16.4c4.9,2.3,16.7-2.4,17.9-4.2C79.6,86.1,79.7,86.8,79.5,87.4z"/>
		<path class="st145" d="M65.5,57.8c-0.5,0.9,0.1,2,5.2,1c5-0.9,6.3-2.2,6.3-2.2S66.8,56.5,65.5,57.8z"/>
		<path class="st145" d="M47.3,79.7c-1.9,0.3,1.6-6.8,2.8-6.7c1.2,0.1,3.6,8.8,3.4,9.7C53.3,83.5,50.6,77.4,47.3,79.7z"/>
		<path class="st145" d="M24.2,57.5c-3.4,0.7,5,2,5.8,4.1c0.9,2.1,2.8,0.1,2.1-1.8C31.4,58,24.2,57.5,24.2,57.5z"/>
		<path class="st228" d="M30.8,15.1c-2.9,4.7,3.7,21.3,14.4,25.5c10.6,4.2,23-11.8,23.4-22.7C68.9,6.9,43.6-5.3,30.8,15.1z"/>
		<path class="st228" d="M13.1,36.3C7.7,39,9,51.9,18.8,55.3s21.7,4.1,26.8,2.6c5-1.5-1-17.7-6.8-18.1
			C32.9,39.4,19.2,33.3,13.1,36.3z"/>
		<path class="st502" d="M59.5,40.6c-8.1,1.6-8.6,8.6-7.6,14.5c1,5.9,22.7-1,30-0.8c7.3,0.2,9.8-15,4.7-17.5
			C81.6,34.3,59.5,40.6,59.5,40.6z"/>
		<path class="st502" d="M49.4,59.2c-6.9,1.8-14.1,2.6-20.7,10.7c-6.6,8.1-11.2,13.5-6.4,17.3c4.8,3.8,11.7,2.7,17.2-2.6
			C45,79.4,48.2,73.8,50,74.3c1.8,0.4,5.8,11.3,10.2,14.6c4.4,3.3,15.1-2.8,16.7-4.8c1.5-2-12-23.1-14.9-24.1
			C59,58.8,51.2,58.7,49.4,59.2z"/>
		<path class="st145" d="M61.4,93.4c-2.5-1.5,12.2-5,15.5-5.9c3.3-0.9-0.7,3.5-0.7,3.5S71.3,94.2,61.4,93.4z"/>
		<path class="st145" d="M18.6,87.4c-1.9,0,1,3.2,4.7,4.7c3.7,1.5,10.7,1.7,12.1,1.1c1.4-0.6,1-2.8,0-3c-1-0.1-6.3,0.8-9.8-0.3
			C22,88.9,19.4,87.4,18.6,87.4z"/>
		<path class="st229" d="M29.8,16.9c0,0,5-11.5,18.1-12.8s19.3,7.3,19.3,7.3s-3.8-9.1-17.5-9.8C36,1,30.1,15.7,29.8,16.9z"/>
		<path class="st229" d="M77,36.4c-0.7,0.5,8.3,0.6,10.9,2.2c2.6,1.6,2.3,0.4,2.3,0.4s-0.9-3.3-4.8-3.6C81.5,35,77,36.4,77,36.4z"/>
		<path class="st229" d="M9.9,39.4c-0.2,1.2,8.7-2,12.9-2.1c4.2-0.1,4.2-0.1,4.2-0.1s-7.6-2.8-12.2-1.8C10.3,36.5,9.9,39.4,9.9,39.4
			z"/>
		<path class="st235" d="M11.4,39.8c-3.5,2.4-0.3,8.8,3.3,10.6c3.6,1.8,12.7-9.2,13.1-10.9C28.2,37.7,15.5,37,11.4,39.8z"/>
		<path class="st235" d="M17.6,85.1c-0.2,1.3,5.3,3.9,5.7,4.1c0.4,0.2-3.8-6.1-3.6-7.9C20,79.6,17.6,84,17.6,85.1z"/>
		<path class="st235" d="M77.7,80.4c0.5,1.1-3.1,7.3-4,7.9c-0.9,0.6,4.3-1.8,5.2-2.6C80,85,77.7,80.4,77.7,80.4z"/>
		<path class="st145" d="M86.4,55.9c-1.3-0.3,1.1-2.5,2.8-7.7c1.6-5.2,1.6-6.1,1.6-6.1S91,52.4,86.4,55.9z"/>
		<path class="st145" d="M12.5,55.6c1.9,0.5,1-1.8,1-1.8s-3-3.1-3.9-5.7C9.6,48.1,9.8,52.9,12.5,55.6z"/>
		<linearGradient id="SVGID_3_" gradientUnits="userSpaceOnUse" x1="77.1079" y1="55.1487" x2="77.1079" y2="34.7056">
			<stop  offset="0" style="stop-color:#FFAAA4"/>
			<stop  offset="1" style="stop-color:#FFBFC9"/>
		</linearGradient>
		<path class="st1" d="M80.2,35.1c-2.9-1.4-8,1.5-8.1,4.1c-0.1,2.5,3.3,2.4,4.4,5.8c1,2.8-2.5,3-2.8,6.6c-0.4,3.7,5.4,4.4,7.4,2.7
			c2-1.8,1-3.5-1-3.5s-2,0-1.6-1.4c0.4-1.4,1.6-2.3,1.8-4.4c0.2-2-3.9-3.5-3.4-5.5c0.5-2,2.4-0.4,3.1-1.4
			C80.8,37.1,81.2,35.6,80.2,35.1z"/>
		<linearGradient id="SVGID_4_" gradientUnits="userSpaceOnUse" x1="67.0134" y1="84.4508" x2="67.0134" y2="71.4436">
			<stop  offset="0" style="stop-color:#FFAAA4"/>
			<stop  offset="1" style="stop-color:#FFBFC9"/>
		</linearGradient>
		<path class="st2" d="M58.6,84.4c-1.5-0.1-2.4-6.2-0.1-7.9c2.3-1.7,5.3,2.8,7.4,2.3c2.1-0.5,1.3-6.3,3.8-7.2
			c2.5-0.9,6.9,2.5,7.2,5.1c0.3,2.6-3.5,1-5.2-0.5c-1.7-1.5-0.8,3.6-3.1,5.5c-2.3,1.9-4.4-0.1-6.4-0.4C60.2,81,63,84.7,58.6,84.4z"
			/>
		
			<linearGradient id="SVGID_5_" gradientUnits="userSpaceOnUse" x1="1243.9675" y1="55.1487" x2="1243.9675" y2="34.1559" gradientTransform="matrix(-1 0 0 1 1265.1648 0)">
			<stop  offset="0" style="stop-color:#FFAAA4"/>
			<stop  offset="1" style="stop-color:#FFBFC9"/>
		</linearGradient>
		<path class="st3" d="M18.1,34.5c2.9-1.4,8,1.6,8.1,4.2c0.1,2.6-3.3,2.5-4.4,5.9c-1,2.9,2.5,3.1,2.8,6.8c0.4,3.8-5.4,4.5-7.4,2.7
			c-2-1.8-1-3.6,1-3.6s2,0,1.6-1.5c-0.4-1.5-1.6-2.4-1.8-4.5c-0.2-2.1,3.9-3.6,3.4-5.6c-0.5-2-2.4-0.4-3.1-1.4
			C17.5,36.6,17.1,35,18.1,34.5z"/>
		
			<linearGradient id="SVGID_6_" gradientUnits="userSpaceOnUse" x1="1233.8732" y1="84.4508" x2="1233.8732" y2="71.4436" gradientTransform="matrix(-1 0 0 1 1265.1648 0)">
			<stop  offset="0" style="stop-color:#FFAAA4"/>
			<stop  offset="1" style="stop-color:#FFBFC9"/>
		</linearGradient>
		<path class="st4" d="M39.7,84.4c1.5-0.1,2.4-6.2,0.1-7.9s-5.3,2.8-7.4,2.3c-2.1-0.5-1.3-6.3-3.8-7.2c-2.5-0.9-6.9,2.5-7.2,5.1
			c-0.3,2.6,3.5,1,5.2-0.5s0.8,3.6,3.1,5.5c2.3,1.9,4.4-0.1,6.4-0.4C38.1,81,35.3,84.7,39.7,84.4z"/>
		
			<linearGradient id="SVGID_7_" gradientUnits="userSpaceOnUse" x1="1281.1625" y1="51.5148" x2="1281.1625" y2="43.6331" gradientTransform="matrix(-1 0 0 1 1330.1685 0)">
			<stop  offset="0" style="stop-color:#FFAAA4"/>
			<stop  offset="1" style="stop-color:#FFBFC9"/>
		</linearGradient>
		<path class="st5" d="M49.8,43.7c3.6,0.6,5,6.7-0.2,7.7C44,52.5,42.8,42.6,49.8,43.7z"/>
		
			<linearGradient id="SVGID_8_" gradientUnits="userSpaceOnUse" x1="1281.1625" y1="66.4139" x2="1281.1625" y2="58.5322" gradientTransform="matrix(-1 0 0 1 1330.1685 0)">
			<stop  offset="0" style="stop-color:#FFAAA4"/>
			<stop  offset="1" style="stop-color:#FFBFC9"/>
		</linearGradient>
		<path class="st7" d="M49.8,58.6c3.6,0.6,5,6.7-0.2,7.7C44,67.4,42.8,57.5,49.8,58.6z"/>
		<path class="st145" d="M80.7,35.6c-0.1,1.4-4.1,2.5-4.3,3.2c-0.3,0.7,0.9,2.1,0.9,2.1s-0.6-1.5,0.2-1.9c0.8-0.4,1,0.4,2.9,0.1
			C82.3,38.8,80.7,35.6,80.7,35.6z"/>
		<path class="st145" d="M80.3,44.3c0.2,1.1-2.5,4.7-2.8,5.6c-0.2,0.9,1.6,0.8,1.6,0.8s-0.7-1-0.1-1.7c0.5-0.7,2.2-1,2.3-2.4
			C81.4,45.3,80.3,44.3,80.3,44.3z"/>
		<path class="st145" d="M73.7,52.3c0,0,0.5,1.3,3.8,2.2c3.3,0.8,4.6-1.6,4.6-1.6s0.1,3.6-4.2,3.6C73.6,56.4,73.7,52.3,73.7,52.3z"
			/>
		<path class="st145" d="M17.5,35.6c0.2,2.4,3.4,2,4.4,2.5c1,0.5-0.7,2.1-0.7,2.1s0.2-1.6-1-1.7c-1.2,0-2.3,0.1-2.5-0.5
			C17.5,37.5,17.5,35.6,17.5,35.6z"/>
		<path class="st145" d="M18.1,45.4c1.2,2.6,2.9,4.4,3.1,4.9c0.2,0.5-2.7,0.3-2.7,0.3S18.6,47.5,18.1,45.4z"/>
		<path class="st145" d="M16.6,53.5c0.7,0.7,5.7,1,6.7,0.3c1-0.7,1.3-2.3,1.3-2.3s1.2,3.6-3,4.2C17.4,56.3,16.6,53.5,16.6,53.5z"/>
		<path class="st145" d="M45,48.1c0,0,0.8,2,3.6,2.6c2.9,0.6,4.2-1.7,4.2-1.7s-0.2,4.1-3.8,4.8C45.4,54.5,45,48.1,45,48.1z"/>
		<path class="st145" d="M45,63c0,0,1,2.6,4.3,2.7C52.7,65.8,53,63,53,63s0.2,5.2-4,5.4C44.9,68.6,45,63,45,63z"/>
		<path class="st145" d="M21.4,76.7c0.6,1.9,4.5-1.5,5.8-1.7c1.3-0.2,0.1,5,3,6.6c3,1.6,5.4-1.3,6.4-1.9s-0.3,3,2,3.5
			c2.2,0.4,2.5-3.2,2.5-3.2s0.3,4.3-0.9,5.6c-1.2,1.3-2.7,1.6-3.7,0.5c-1-1.1-0.3-3-1-3.4c-0.7-0.4-1.7,1.7-4.6,1.6
			c-2.9-0.1-3.5-5.8-4.4-6c-0.9-0.1-2.7,0.7-4.1,0.8C21.2,79.2,21.4,76.7,21.4,76.7z"/>
		<path class="st145" d="M57.2,81.4c0,0,0.5,2.2,1.9,2.2c3.9,0,1.4-2.7,2.7-4.2c1.3-1.4,1.8,1.6,5.3,2c3.5,0.4,2.8-6,3.7-6.8
			c0.9-0.8,2,2.2,4.1,2.9c2.1,0.7,2.1-0.4,2.1-0.4s0,0.6-0.4,0.8l0.4,0.7c0,0-0.4,2.3-2.7,1c-2.3-1.3-2.7-2.1-2.9-1.6
			c-0.2,0.5,0,4.7-3.3,5.2c-3.3,0.5-4.8-2.4-5.5-0.3c-0.2,0.7-0.9,3.8-3.8,2.7C57.4,85.2,57,82.9,57.2,81.4z"/>
		<path class="st55" d="M47.3,46.5c0.2,2.2,2.6,1.6,2.7-0.4C50.1,44.1,47.2,45.2,47.3,46.5z"/>
		<path class="st55" d="M47.2,60.8c-0.4,1,0.5,3.1,1.5,1C49.6,59.8,47.8,59.4,47.2,60.8z"/>
		<path class="st55" d="M25.8,72.9c-1.7,1,1,2.3,2.3,0.8C29.5,72.2,27.3,72,25.8,72.9z"/>
		<path class="st55" d="M74,37.9c0.1,1.1,2.7,0.8,3-1.1C77.3,34.8,73.8,35.8,74,37.9z"/>
		<path class="st55" d="M69.7,72.1c-1,0.3-1,3.9-0.7,4.1c0.4,0.2,1.8-2.4,1.8-3.3S69.7,72.1,69.7,72.1z"/>
		<path class="st55" d="M18.1,35.3c-0.5,1.4,2,2.5,2.8,0.9C21.7,34.7,18.6,33.9,18.1,35.3z"/>
		<path class="st55" d="M73.8,51.4c0.3,1.5,2.3,0.8,2.3-0.9C76.2,48.9,73.5,49.8,73.8,51.4z"/>
		<path class="st55" d="M18.7,44.1c0.3,1.5,2.3,0.8,2.3-0.9C21.1,41.6,18.4,42.5,18.7,44.1z"/>
		<g class="st233">
			<path class="st227" d="M58.4,55.2c-1.8-2.3,2-4,3.7-3C63.9,53.2,60,57.3,58.4,55.2z"/>
			<path class="st227" d="M55.3,7.3c0-1.6,2.1-1.7,2.2-0.4C57.6,8.1,55.3,8.9,55.3,7.3z"/>
			<path class="st227" d="M40.8,7.3c-3.7,3.2,1.9,5.3,3,2.5C44.9,6.9,42.8,5.5,40.8,7.3z"/>
			<path class="st227" d="M33.9,22.5c0-0.4,1.8-1,1.9-0.5C35.9,22.4,33.9,23.6,33.9,22.5z"/>
			<path class="st227" d="M33.1,50c-2.9,0.3-1.8,4.4,1,3.1C37,51.8,34.2,49.9,33.1,50z"/>
			<path class="st227" d="M32.9,44.9c-1.1,0.5-0.2,2.8,1.3,1.6C35.7,45.2,34.3,44.2,32.9,44.9z"/>
			<path class="st227" d="M61.4,69.1c-0.3-1,1.4-2.4,2.3-1.5C64.6,68.5,61.7,70.3,61.4,69.1z"/>
		</g>
		<g>
			<path class="st223" d="M56.6,12.9c4.4,0.7,5.9,7.3-0.3,9.4C51.4,24,48,11.5,56.6,12.9z"/>
			<path class="st145" d="M51.3,17c0,0,0.6,3.1,3.6,3.6c3,0.5,5.1-1.3,5.4-2.5c0,0,0.6,6-5.5,6.9C48.8,25.8,51.3,17,51.3,17z"/>
			<path class="st238" d="M52.7,14.7c-0.2,1.8,1.8,1.6,2.4,0C55.8,13.1,52.9,12.6,52.7,14.7z"/>
			<path class="st228" d="M55.3,19.7c-2.6-0.1-3.9-3-2.9-4.9c1-1.9,4.7-2.3,6.9,0.3S57.4,19.7,55.3,19.7z"/>
		</g>
		<g>
			<path class="st223" d="M41,13.5c-4.4,0.7-5.9,7.3,0.3,9.4C46.2,24.6,49.6,12.2,41,13.5z"/>
			<path class="st145" d="M37.3,19.1c0.8,3.5,6.3,1.6,7.8,0.7c1.5-0.9,1.1-3.6,1.1-3.6s1.7,5.4-1.9,7.8
				C40.7,26.4,37.2,24.2,37.3,19.1z"/>
			<path class="st238" d="M39,15.9c-0.2,1.8,1.8,1.6,2.4,0C42.1,14.3,39.2,13.8,39,15.9z"/>
			<path class="st228" d="M41,20.1c-2.6-0.1-3.9-3-2.9-4.9s4.7-2.3,6.9,0.3S43.1,20.2,41,20.1z"/>
		</g>
		<g>
			<path class="st223" d="M42.6,26c-1.4,1.8,0.6,7.2,5.9,7.5c5.4,0.2,8.3-6.6,6.4-8c-1.8-1.4-3.6,3.2-6.1,3.4
				C46.3,29.1,44.2,24,42.6,26z"/>
			<path class="st145" d="M42.5,29.2c0,0,1.6,3.1,6.5,3.3c4.9,0.1,6.2-3.9,6.2-3.9s-1.1,6-6.3,6.7C43.6,36.1,42.5,29.2,42.5,29.2z"
				/>
			<path class="st238" d="M53.2,26.4c-0.5-0.5-2.2,1.3-1.5,1.9C52.3,28.9,53.7,26.8,53.2,26.4z"/>
			<path class="st228" d="M43.5,26c-1.1,0.8-0.8,3.4,0.9,4.9c1.7,1.5,3.7,1.9,5.6,1.2c1.9-0.7-1-2-3-3.5C45.2,27,44.2,25.5,43.5,26z
				"/>
		</g>
		<path class="st509" d="M37.3,6.5c-0.6,1.5,7.6-2.7,9-3.8S38.8,2.6,37.3,6.5z"/>
		<path class="st229" d="M61.4,38.3c0,0,0.8,1,2.2,1.4c1.4,0.4,6.6-1.8,6.6-1.8S63.7,39.1,61.4,38.3z"/>
		<path class="st229" d="M29.5,38c0,0,4,1.7,7.3,1.7c3.4,0-1-4.6-1-4.6s1.1,2.6-1.2,3.2C32.2,38.9,29.5,38,29.5,38z"/>
	</g>
</g>
</svg>
