<?xml version="1.0" encoding="utf-8"?>
<!-- Generator: Adobe Illustrator 22.0.1, SVG Export Plug-In . SVG Version: 6.00 Build 0)  -->
<svg version="1.1" xmlns="http://www.w3.org/2000/svg" xmlns:xlink="http://www.w3.org/1999/xlink" x="0px" y="0px"
	 viewBox="0 0 100 100" style="enable-background:new 0 0 100 100;" xml:space="preserve">
<style type="text/css">
	.st0{clip-path:url(#SVGID_2_);}
	.st1{fill:url(#SVGID_3_);}
	.st2{fill:url(#SVGID_4_);}
	.st3{fill:url(#SVGID_5_);}
	.st4{fill:url(#SVGID_6_);}
	.st5{fill:url(#SVGID_7_);}
	.st6{opacity:0.5;}
	.st7{fill:url(#SVGID_8_);}
	.st8{fill:url(#SVGID_9_);}
	.st9{fill:url(#SVGID_10_);}
	.st10{fill:url(#SVGID_11_);}
	.st11{fill:url(#SVGID_12_);}
	.st12{fill:url(#SVGID_13_);}
	.st13{fill:url(#SVGID_14_);}
	.st14{fill:url(#SVGID_15_);}
	.st15{fill:url(#SVGID_16_);}
	.st16{fill:url(#SVGID_17_);}
	.st17{fill:url(#SVGID_18_);}
	.st18{fill:url(#SVGID_19_);}
	.st19{fill:url(#SVGID_20_);}
	.st20{fill:url(#SVGID_21_);}
	.st21{fill:url(#SVGID_22_);}
	.st22{fill:url(#SVGID_23_);}
	.st23{fill:url(#SVGID_24_);}
	.st24{fill:url(#SVGID_25_);}
	.st25{fill:url(#SVGID_26_);}
	.st26{fill:url(#SVGID_27_);}
	.st27{fill:url(#SVGID_28_);}
	.st28{fill:url(#SVGID_29_);}
	.st29{fill:url(#SVGID_30_);}
	.st30{fill:url(#SVGID_31_);}
	.st31{fill:url(#SVGID_32_);}
	.st32{fill:url(#SVGID_33_);}
	.st33{fill:url(#SVGID_34_);}
	.st34{fill:url(#SVGID_35_);}
	.st35{fill:url(#SVGID_36_);}
	.st36{fill:url(#SVGID_37_);}
	.st37{fill:url(#SVGID_38_);}
	.st38{fill:url(#SVGID_39_);}
	.st39{fill:url(#SVGID_40_);}
	.st40{fill:url(#SVGID_41_);}
	.st41{fill:url(#SVGID_42_);}
	.st42{fill:url(#SVGID_43_);}
	.st43{fill:url(#SVGID_44_);}
	.st44{fill:url(#SVGID_45_);}
	.st45{fill:url(#SVGID_46_);}
	.st46{fill:url(#SVGID_47_);}
	.st47{fill:url(#SVGID_48_);}
	.st48{fill:url(#SVGID_49_);}
	.st49{fill:url(#SVGID_50_);}
	.st50{fill:url(#SVGID_51_);}
	.st51{fill:url(#SVGID_52_);}
	.st52{fill:url(#SVGID_53_);}
	.st53{fill:url(#SVGID_54_);}
	.st54{opacity:0.5;fill:url(#SVGID_55_);}
	.st55{fill:#FFFFFF;}
	.st56{opacity:0.5;fill:url(#SVGID_56_);}
	.st57{opacity:0.3;fill:#6D109D;}
	.st58{opacity:0.3;fill:#FFFFFF;}
	.st59{opacity:0.5;fill:url(#SVGID_57_);}
	.st60{fill:url(#SVGID_58_);}
	.st61{opacity:0.5;fill:url(#SVGID_59_);}
	.st62{opacity:0.5;fill:url(#SVGID_60_);}
	.st63{opacity:0.5;fill:url(#SVGID_61_);}
	.st64{fill:url(#SVGID_62_);}
	.st65{opacity:0.5;fill:url(#SVGID_63_);}
	.st66{opacity:0.5;fill:url(#SVGID_64_);}
	.st67{opacity:0.5;fill:url(#SVGID_65_);}
	.st68{fill:url(#SVGID_66_);}
	.st69{opacity:0.5;fill:url(#SVGID_67_);}
	.st70{opacity:0.5;fill:url(#SVGID_68_);}
	.st71{opacity:0.5;fill:url(#SVGID_69_);}
	.st72{opacity:0.5;fill:url(#SVGID_70_);}
	.st73{opacity:0.5;fill:url(#SVGID_71_);}
	.st74{opacity:0.5;fill:#FFFFFF;}
	.st75{opacity:0.5;fill:url(#SVGID_72_);}
	.st76{opacity:0.5;fill:url(#SVGID_73_);}
	.st77{opacity:0.5;fill:url(#SVGID_74_);}
	.st78{opacity:0.5;fill:url(#SVGID_75_);}
	.st79{opacity:0.5;fill:url(#SVGID_76_);}
	.st80{opacity:0.5;fill:url(#SVGID_77_);}
	.st81{opacity:0.3;fill:url(#SVGID_78_);}
	.st82{opacity:0.3;fill:url(#SVGID_79_);}
	.st83{opacity:0.3;fill:url(#SVGID_80_);}
	.st84{opacity:0.3;fill:url(#SVGID_81_);}
	.st85{opacity:0.3;fill:url(#SVGID_82_);}
	.st86{opacity:0.3;fill:url(#SVGID_83_);}
	.st87{opacity:0.3;fill:url(#SVGID_84_);}
	.st88{opacity:0.3;fill:url(#SVGID_85_);}
	.st89{opacity:0.3;fill:url(#SVGID_86_);}
	.st90{opacity:0.3;fill:url(#SVGID_87_);}
	.st91{opacity:0.3;fill:url(#SVGID_88_);}
	.st92{opacity:0.3;fill:url(#SVGID_89_);}
	.st93{opacity:0.3;fill:url(#SVGID_90_);}
	.st94{opacity:0.3;fill:url(#SVGID_91_);}
	.st95{opacity:0.3;fill:url(#SVGID_92_);}
	.st96{opacity:0.3;fill:url(#SVGID_93_);}
	.st97{opacity:0.3;fill:url(#SVGID_94_);}
	.st98{opacity:0.3;fill:url(#SVGID_95_);}
	.st99{opacity:0.3;fill:url(#SVGID_96_);}
	.st100{opacity:0.3;fill:url(#SVGID_97_);}
	.st101{opacity:0.3;fill:url(#SVGID_98_);}
	.st102{opacity:0.3;fill:url(#SVGID_99_);}
	.st103{opacity:0.3;fill:url(#SVGID_100_);}
	.st104{opacity:0.3;fill:url(#SVGID_101_);}
	.st105{opacity:0.3;fill:url(#SVGID_102_);}
	.st106{opacity:0.3;fill:url(#SVGID_103_);}
	.st107{opacity:0.3;fill:url(#SVGID_104_);}
	.st108{opacity:0.3;fill:url(#SVGID_105_);}
	.st109{opacity:0.3;fill:url(#SVGID_106_);}
	.st110{opacity:0.3;fill:url(#SVGID_107_);}
	.st111{opacity:0.3;fill:url(#SVGID_108_);}
	.st112{opacity:0.3;fill:url(#SVGID_109_);}
	.st113{opacity:0.3;fill:url(#SVGID_110_);}
	.st114{opacity:0.3;fill:url(#SVGID_111_);}
	.st115{opacity:0.3;fill:url(#SVGID_112_);}
	.st116{opacity:0.3;fill:url(#SVGID_113_);}
	.st117{opacity:0.3;fill:url(#SVGID_114_);}
	.st118{opacity:0.3;fill:url(#SVGID_115_);}
	.st119{opacity:0.3;fill:url(#SVGID_116_);}
	.st120{opacity:0.3;fill:url(#SVGID_117_);}
	.st121{fill:#2B0038;}
	.st122{fill:url(#SVGID_118_);}
	.st123{fill:url(#SVGID_119_);}
	.st124{fill:url(#SVGID_120_);}
	.st125{fill:url(#SVGID_121_);}
	.st126{fill:url(#SVGID_122_);}
	.st127{fill:url(#SVGID_123_);}
	.st128{opacity:0.6;fill:#9A1842;}
	.st129{opacity:0.8;fill:#9A2E69;}
	.st130{fill:#8300C0;}
	.st131{fill:url(#SVGID_124_);}
	.st132{opacity:0.4;fill:#D41892;}
	.st133{fill:#FF9650;}
	.st134{fill:url(#SVGID_125_);}
	.st135{fill:url(#SVGID_126_);}
	.st136{fill:url(#SVGID_127_);}
	.st137{fill:url(#SVGID_128_);}
	.st138{opacity:0.4;}
	.st139{fill:#98003B;}
	.st140{fill:#FF7A4A;}
	.st141{fill:#FF924A;}
	.st142{fill:url(#SVGID_129_);}
	.st143{fill:url(#SVGID_130_);}
	.st144{fill:url(#SVGID_131_);}
	.st145{opacity:0.71;fill:#CA6D92;}
	.st146{fill:#FFE3EA;}
	.st147{fill:url(#SVGID_132_);}
	.st148{fill:url(#SVGID_133_);}
	.st149{fill:url(#SVGID_134_);}
	.st150{fill:url(#SVGID_135_);}
	.st151{fill:url(#SVGID_136_);}
	.st152{fill:url(#SVGID_137_);}
	.st153{fill:url(#SVGID_138_);}
	.st154{fill:url(#SVGID_139_);}
	.st155{fill:url(#SVGID_140_);}
	.st156{fill:url(#SVGID_141_);}
	.st157{fill:url(#SVGID_142_);}
	.st158{fill:url(#SVGID_143_);}
	.st159{fill:url(#SVGID_144_);}
	.st160{fill:url(#SVGID_145_);}
	.st161{opacity:0.8;}
	.st162{fill:#9A2E69;}
	.st163{fill:url(#SVGID_146_);}
	.st164{fill:url(#SVGID_147_);}
	.st165{fill:url(#SVGID_148_);}
	.st166{fill:url(#SVGID_149_);}
	.st167{fill:url(#SVGID_150_);}
	.st168{fill:url(#SVGID_151_);}
	.st169{fill:url(#SVGID_152_);}
	.st170{fill:url(#SVGID_153_);}
	.st171{fill:url(#SVGID_154_);}
	.st172{fill:url(#SVGID_155_);}
	.st173{fill:url(#SVGID_156_);}
	.st174{fill:url(#SVGID_157_);}
	.st175{fill:url(#SVGID_158_);}
	.st176{fill:url(#SVGID_159_);}
	.st177{fill:url(#SVGID_160_);}
	.st178{fill:url(#SVGID_161_);}
	.st179{fill:url(#SVGID_162_);}
	.st180{fill:url(#SVGID_163_);}
	.st181{fill:url(#SVGID_164_);}
	.st182{fill:url(#SVGID_165_);}
	.st183{fill:url(#SVGID_166_);}
	.st184{fill:url(#SVGID_167_);}
	.st185{fill:url(#SVGID_168_);}
	.st186{fill:url(#SVGID_169_);}
	.st187{fill:url(#SVGID_170_);}
	.st188{fill:url(#SVGID_171_);}
	.st189{fill:url(#SVGID_172_);}
	.st190{fill:url(#SVGID_173_);}
	.st191{fill:#90DEFF;}
	.st192{opacity:0.5;fill:url(#SVGID_174_);}
	.st193{opacity:0.5;fill:url(#SVGID_175_);}
	.st194{fill:url(#SVGID_176_);}
	.st195{opacity:0.2;fill:#FFFFFF;}
	.st196{fill:#BF77D8;}
	.st197{fill:url(#SVGID_177_);}
	.st198{fill:url(#SVGID_178_);}
	.st199{fill:url(#SVGID_179_);}
	.st200{fill:url(#SVGID_180_);}
	.st201{fill:url(#SVGID_181_);}
	.st202{fill:url(#SVGID_182_);}
	.st203{fill:url(#SVGID_183_);}
	.st204{opacity:0.8;fill:#E72F92;}
	.st205{opacity:0.6;fill:#E72F92;}
	.st206{opacity:0.5;fill:#E72F92;}
	.st207{fill:#FFD8FF;}
	.st208{opacity:0.8;fill:#A6004A;}
	.st209{opacity:0.5;fill:#A6004A;}
	.st210{opacity:0.5;fill:#BD004A;}
	.st211{opacity:0.3;fill:#FFD8FF;}
	.st212{fill:url(#SVGID_184_);}
	.st213{fill:url(#SVGID_185_);}
	.st214{opacity:0.5;fill:#E75992;}
	.st215{opacity:0.5;fill:#FFD8FF;}
	.st216{fill:url(#SVGID_186_);}
	.st217{opacity:0.6;fill:#BF2A92;}
	.st218{fill:#FFB8DF;}
	.st219{opacity:0.5;fill:#D15992;}
	.st220{fill:#FFB895;}
	.st221{fill:#FF938B;}
	.st222{fill:url(#SVGID_187_);}
	.st223{fill:#6D181D;}
	.st224{fill:url(#SVGID_188_);}
	.st225{opacity:0.6;fill:#BF6D92;}
	.st226{opacity:0.7;fill:#BF6D92;}
	.st227{fill:#BF6D92;}
	.st228{opacity:0.5;fill:#FFA7A1;}
	.st229{fill:#FF7A5F;}
	.st230{fill:#A8292F;}
	.st231{opacity:0.6;fill:#CB89A7;}
	.st232{fill:#E0574F;}
	.st233{opacity:0.7;}
	.st234{opacity:0.8;fill:#BF6D92;}
	.st235{opacity:0.3;fill:#BF6D92;}
	.st236{fill:#FFA9A4;}
	.st237{opacity:0.5;fill:#BF6D92;}
	.st238{fill:#FF8189;}
	.st239{fill:url(#SVGID_189_);}
	.st240{fill:url(#SVGID_190_);}
	.st241{opacity:0.2;fill:#E72F92;}
	.st242{opacity:0.5;fill:#FFECA4;}
	.st243{opacity:0.3;fill:#FF6D92;}
	.st244{opacity:0.6;fill:#D41892;}
	.st245{opacity:0.69;fill:#FFECA4;}
	.st246{opacity:0.6;fill:#E77592;}
	.st247{opacity:0.5;fill:#FFFFA4;}
	.st248{fill:#FFECA4;}
	.st249{fill:url(#SVGID_191_);}
	.st250{fill:url(#SVGID_192_);}
	.st251{fill:#FFAE90;}
	.st252{fill:url(#SVGID_193_);}
	.st253{fill:url(#SVGID_194_);}
	.st254{fill:url(#SVGID_195_);}
	.st255{opacity:0.5;fill:#BF2A92;}
	.st256{fill:#BE5548;}
	.st257{opacity:0.8;fill:#BF2A92;}
	.st258{opacity:0.5;fill:#CC7777;}
	.st259{fill:#A74E48;}
	.st260{fill:#F77A77;}
	.st261{opacity:0.3;fill:#BF2A92;}
	.st262{fill:url(#SVGID_196_);}
	.st263{fill:url(#SVGID_197_);}
	.st264{fill:url(#SVGID_198_);}
	.st265{fill:#420714;}
	.st266{fill:url(#SVGID_199_);}
	.st267{fill:url(#SVGID_200_);}
	.st268{fill:url(#SVGID_201_);}
	.st269{fill:url(#SVGID_202_);}
	.st270{opacity:0.5;fill:#F77A77;}
	.st271{fill:#B3424D;}
	.st272{fill:url(#SVGID_203_);}
	.st273{fill:url(#SVGID_204_);}
	.st274{opacity:0.57;fill:#E33292;}
	.st275{fill:#FF75C7;}
	.st276{fill:url(#SVGID_205_);}
	.st277{opacity:0.8;fill:#E50092;}
	.st278{fill:#FFB3C7;}
	.st279{opacity:0.5;fill:#E33292;}
	.st280{fill:#E50092;}
	.st281{fill:url(#SVGID_206_);}
	.st282{fill:#FF8B9A;}
	.st283{fill:url(#SVGID_207_);}
	.st284{fill:url(#SVGID_208_);}
	.st285{fill:url(#SVGID_209_);}
	.st286{fill:url(#SVGID_210_);}
	.st287{fill:url(#SVGID_211_);}
	.st288{opacity:0.5;fill:#989310;}
	.st289{fill:#B3B35E;}
	.st290{opacity:0.2;fill:#989310;}
	.st291{fill:#DBF15E;}
	.st292{fill:#B3F25E;}
	.st293{fill:url(#SVGID_212_);}
	.st294{fill:#CCE031;}
	.st295{fill:url(#SVGID_213_);}
	.st296{fill:url(#SVGID_214_);}
	.st297{fill:url(#SVGID_215_);}
	.st298{fill:url(#SVGID_216_);}
	.st299{fill:url(#SVGID_217_);}
	.st300{fill:url(#SVGID_218_);}
	.st301{fill:url(#SVGID_219_);}
	.st302{opacity:0.71;fill:#CA0092;}
	.st303{opacity:0.3;fill:#CA0092;}
	.st304{opacity:0.4;fill:#FFD8FF;}
	.st305{opacity:0.47;fill:#FFCCE0;}
	.st306{fill:url(#SVGID_220_);}
	.st307{fill:url(#SVGID_221_);}
	.st308{fill:url(#SVGID_222_);}
	.st309{fill:#FFE0D3;}
	.st310{opacity:0.2;fill:#FE5B92;}
	.st311{fill:url(#SVGID_223_);}
	.st312{opacity:0.8;fill:#CA0092;}
	.st313{fill:#FFDEC7;}
	.st314{fill:#CA0092;}
	.st315{fill:url(#SVGID_224_);}
	.st316{fill:url(#SVGID_225_);}
	.st317{fill:url(#SVGID_226_);}
	.st318{fill:url(#SVGID_227_);}
	.st319{fill:url(#SVGID_228_);}
	.st320{opacity:0.5;fill:#E06E00;}
	.st321{fill:url(#SVGID_229_);}
	.st322{fill:#FFE250;}
	.st323{opacity:0.3;fill:#C62792;}
	.st324{fill:#B3FF5E;}
	.st325{fill:url(#SVGID_230_);}
	.st326{opacity:0.5;fill:#FF5410;}
	.st327{fill:url(#SVGID_231_);}
	.st328{fill:url(#SVGID_232_);}
	.st329{fill:url(#SVGID_233_);}
	.st330{fill:url(#SVGID_234_);}
	.st331{fill:url(#SVGID_235_);}
	.st332{fill:url(#SVGID_236_);}
	.st333{opacity:0.62;fill:#C44C90;}
	.st334{opacity:0.5;fill:#CB1192;}
	.st335{fill:#FFA486;}
	.st336{opacity:0.3;fill:#C61192;}
	.st337{fill:#FF6DA0;}
	.st338{opacity:0.8;fill:#C44790;}
	.st339{opacity:0.5;fill:#C44C90;}
	.st340{opacity:0.7;fill:#C44790;}
	.st341{fill:#FF72AA;}
	.st342{fill:url(#SVGID_237_);}
	.st343{opacity:0.5;fill:#C95459;}
	.st344{fill:url(#SVGID_238_);}
	.st345{fill:url(#SVGID_239_);}
	.st346{fill:url(#SVGID_240_);}
	.st347{opacity:0.2;fill:#FFD8FF;}
	.st348{fill:#893537;}
	.st349{fill:#9D4648;}
	.st350{fill:url(#SVGID_241_);}
	.st351{fill:#FFC1A7;}
	.st352{fill:#FFAA86;}
	.st353{fill:#FFAB9F;}
	.st354{fill:url(#SVGID_242_);}
	.st355{opacity:0.5;fill:#C0673B;}
	.st356{fill:#A94F37;}
	.st357{fill:url(#SVGID_243_);}
	.st358{fill:url(#SVGID_244_);}
	.st359{fill:url(#SVGID_245_);}
	.st360{fill:url(#SVGID_246_);}
	.st361{fill:url(#SVGID_247_);}
	.st362{fill:url(#SVGID_248_);}
	.st363{fill:url(#SVGID_249_);}
	.st364{fill:url(#SVGID_250_);}
	.st365{fill:url(#SVGID_251_);}
	.st366{fill:url(#SVGID_252_);}
	.st367{fill:url(#SVGID_253_);}
	.st368{fill:url(#SVGID_254_);}
	.st369{opacity:0.2;fill:#CA1B3B;}
	.st370{opacity:0.64;fill:#CC5748;}
	.st371{opacity:0.5;fill:#D31F90;}
	.st372{opacity:0.2;fill:#CA0092;}
	.st373{fill:url(#SVGID_255_);}
	.st374{fill:url(#SVGID_256_);}
	.st375{fill:url(#SVGID_257_);}
	.st376{fill:url(#SVGID_258_);}
	.st377{fill:url(#SVGID_259_);}
	.st378{opacity:0.2;fill:#F2513B;}
	.st379{opacity:0.97;fill:#FFECA4;}
	.st380{fill:#FF956D;}
	.st381{opacity:0.3;fill:#E77592;}
	.st382{opacity:0.36;fill:#E77592;}
	.st383{fill:url(#SVGID_260_);}
	.st384{fill:url(#SVGID_261_);}
	.st385{fill:url(#SVGID_262_);}
	.st386{fill:url(#SVGID_263_);}
	.st387{fill:#AE4648;}
	.st388{fill:url(#SVGID_264_);}
	.st389{fill:url(#SVGID_265_);}
	.st390{fill:#988D89;}
	.st391{fill:#F4837C;}
	.st392{opacity:0.5;fill:#C94CA3;}
	.st393{fill:url(#SVGID_266_);}
	.st394{fill:url(#SVGID_267_);}
	.st395{fill:url(#SVGID_268_);}
	.st396{fill:url(#SVGID_269_);}
	.st397{fill:url(#SVGID_270_);}
	.st398{fill:url(#SVGID_271_);}
	.st399{fill:url(#SVGID_272_);}
	.st400{fill:url(#SVGID_273_);}
	.st401{opacity:0.64;fill:#DB877C;}
	.st402{opacity:0.2;fill:#DB877C;}
	.st403{fill:#FF9840;}
	.st404{opacity:0.5;fill:#FF956D;}
	.st405{fill:#CD5436;}
	.st406{fill:url(#SVGID_274_);}
	.st407{opacity:0.4;fill:#BB1892;}
	.st408{fill:#A0003B;}
	.st409{fill:url(#SVGID_275_);}
	.st410{opacity:0.64;fill:#DB727C;}
	.st411{fill:url(#SVGID_276_);}
	.st412{fill:url(#SVGID_277_);}
	.st413{opacity:0.6;fill:#C25792;}
	.st414{fill:#FF8140;}
	.st415{fill:#FF6A4D;}
	.st416{fill:url(#SVGID_278_);}
	.st417{fill:url(#SVGID_279_);}
	.st418{fill:url(#SVGID_280_);}
	.st419{fill:url(#SVGID_281_);}
	.st420{fill:url(#SVGID_282_);}
	.st421{fill:url(#SVGID_283_);}
	.st422{fill:url(#SVGID_284_);}
	.st423{fill:url(#SVGID_285_);}
	.st424{fill:url(#SVGID_286_);}
	.st425{fill:url(#SVGID_287_);}
	.st426{fill:url(#SVGID_288_);}
	.st427{opacity:0.5;fill:#CA6D92;}
	.st428{opacity:0.55;fill:#C46581;}
	.st429{fill:url(#SVGID_289_);}
	.st430{opacity:0.55;fill:#FA6D92;}
	.st431{opacity:0.55;fill:#FFD8FF;}
	.st432{fill:url(#SVGID_290_);}
	.st433{fill:#932933;}
	.st434{fill:url(#SVGID_291_);}
	.st435{fill:url(#SVGID_292_);}
	.st436{fill:url(#SVGID_293_);}
	.st437{opacity:0.5;fill:#CAC5ED;}
	.st438{opacity:0.2;fill:#CAC5ED;}
	.st439{opacity:0.5;fill:#7577D6;}
	.st440{opacity:0.55;fill:#AEB0FF;}
	.st441{fill:#7C95FF;}
	.st442{opacity:0.3;fill:#9FBFD6;}
	.st443{fill:#74B0FF;}
	.st444{fill:#90BAFF;}
	.st445{fill:#90CAFF;}
	.st446{fill:#7492FF;}
	.st447{fill:url(#SVGID_294_);}
	.st448{opacity:0.4;fill:#8125AE;}
	.st449{fill:url(#SVGID_295_);}
	.st450{opacity:0.3;fill:#7577D6;}
	.st451{fill:url(#SVGID_296_);}
	.st452{fill:url(#SVGID_297_);}
	.st453{fill:url(#SVGID_298_);}
	.st454{fill:url(#SVGID_299_);}
	.st455{fill:#FFA5A4;}
	.st456{fill:#FF837C;}
	.st457{fill:url(#SVGID_300_);}
	.st458{fill:url(#SVGID_301_);}
	.st459{fill:#B3725E;}
	.st460{opacity:0.5;fill:#B3FF5E;}
	.st461{opacity:0.3;fill:#CC5748;}
	.st462{fill:#FFD1B1;}
	.st463{fill:#89242F;}
	.st464{fill:#9F3537;}
	.st465{fill:#F47E37;}
	.st466{fill:#F48D4A;}
	.st467{fill:url(#SVGID_302_);}
	.st468{fill:url(#SVGID_303_);}
	.st469{fill:#C25437;}
	.st470{fill:#F4AC44;}
	.st471{fill:#812137;}
	.st472{fill:#E75792;}
	.st473{fill:url(#SVGID_304_);}
	.st474{opacity:0.3;fill:#912774;}
	.st475{opacity:0.5;fill:#FFEFFF;}
	.st476{opacity:0.2;fill:#A85592;}
	.st477{fill:#FF77FF;}
	.st478{fill:#880000;}
	.st479{fill:#FF4D51;}
	.st480{opacity:0.5;fill:url(#SVGID_305_);}
	.st481{opacity:0.5;fill:url(#SVGID_306_);}
	.st482{fill:#250032;}
	.st483{fill:url(#SVGID_307_);}
	.st484{fill:url(#SVGID_308_);}
	.st485{fill:url(#SVGID_309_);}
	.st486{fill:url(#SVGID_310_);}
	.st487{fill:url(#SVGID_311_);}
	.st488{fill:url(#SVGID_312_);}
	.st489{fill:url(#SVGID_313_);}
	.st490{fill:#FF5C7F;}
	.st491{fill:url(#SVGID_314_);}
	.st492{fill:url(#SVGID_315_);}
	.st493{fill:url(#SVGID_316_);}
	.st494{fill:#D65963;}
	.st495{fill:#9A2754;}
	.st496{fill:#FFD9C7;}
	.st497{fill:#B8ABC7;}
	.st498{opacity:0.5;fill:#C23E86;}
	.st499{fill:#FFA67C;}
	.st500{fill:#D8D1E0;}
</style>
<g id="background">
</g>
<g id="layer1">
	<path class="st482" d="M18.2,36.5C5.6,52.7,20,96.3,51.9,93.4c31.9-2.9,41.3-38.9,32.5-50.6C75.5,31.1,37.4,11.9,18.2,36.5z"/>
	<g>
		<radialGradient id="SVGID_2_" cx="57.7148" cy="35.023" r="46.6537" gradientUnits="userSpaceOnUse">
			<stop  offset="0" style="stop-color:#8E2E25"/>
			<stop  offset="0.4804" style="stop-color:#862724"/>
			<stop  offset="0.6847" style="stop-color:#691B1C"/>
			<stop  offset="0.8713" style="stop-color:#561416"/>
			<stop  offset="1" style="stop-color:#4F1114"/>
		</radialGradient>
		<path style="fill:url(#SVGID_2_);" d="M88,45.1c0,5.3-1.1,10.3-3,14.9c-5.8,13.7-19.4,23.4-35.3,23.4c-21.1,0-38.3-17.1-38.3-38.3
			C11.5,24,28.6,6.9,49.7,6.9S88,24,88,45.1z"/>
		<path class="st214" d="M28.2,16.7C22.1,13.4-0.1,53.8,32.6,76c27.9,18.9,50.8-13.9,51.4-19.5c0.6-5.6-15.1,9.7-37.8,2.1
			C23.6,51.1,32.1,18.8,28.2,16.7z"/>
		<path class="st211" d="M56.2,8.6C37.4,6.8,27,28.5,35.2,48c8.3,19.6,45.2,11.2,48.9,2.1C87.7,41,79.9,10.9,56.2,8.6z"/>
		<path class="st215" d="M85,60c-5.8,13.7-19.4,23.4-35.3,23.4c-21.1,0-38.3-17.1-38.3-38.3c0,0,4.4,31.9,29.5,35.4
			C66,84,84.9,60,85,60L85,60z"/>
		<linearGradient id="SVGID_3_" gradientUnits="userSpaceOnUse" x1="30.2274" y1="28.2908" x2="30.2274" y2="11.7831">
			<stop  offset="0" style="stop-color:#FF7600"/>
			<stop  offset="0.6173" style="stop-color:#FF9200"/>
			<stop  offset="1" style="stop-color:#FFA000"/>
		</linearGradient>
		<path class="st1" d="M23.3,27.2c1.4,2.5,8.4,0.3,12.7-3.3c4.3-3.7,3.9-13.1-5.2-12C21.7,12.9,20.3,22.1,23.3,27.2z"/>
		<linearGradient id="SVGID_4_" gradientUnits="userSpaceOnUse" x1="68.7648" y1="51.2552" x2="68.7648" y2="32.5071">
			<stop  offset="0" style="stop-color:#FF7600"/>
			<stop  offset="0.6173" style="stop-color:#FF9200"/>
			<stop  offset="1" style="stop-color:#FFA000"/>
		</linearGradient>
		<path class="st2" d="M64.7,33.9c-7.6,5.6-5.2,12.7,1.3,16.6c6.4,3.9,12.4-6.8,11.5-12.2S68.7,31,64.7,33.9z"/>
		<linearGradient id="SVGID_5_" gradientUnits="userSpaceOnUse" x1="43.1859" y1="68.695" x2="43.1859" y2="50.1736">
			<stop  offset="0" style="stop-color:#D60042"/>
			<stop  offset="1" style="stop-color:#FF1820"/>
		</linearGradient>
		<path class="st3" d="M49.6,66.1c-5.3,5.8-12.3,0.6-14.2-4c-2.3-5.5-1.2-9.2,2.2-10.9c1.6-0.8,3.7-1.2,6.3-1.1
			c4.9,0.2,7.9,4,8.3,8.2C52.4,61.1,51.6,63.9,49.6,66.1z"/>
		<linearGradient id="SVGID_6_" gradientUnits="userSpaceOnUse" x1="67.5804" y1="17.4647" x2="81.8659" y2="17.4647">
			<stop  offset="0" style="stop-color:#FF7600"/>
			<stop  offset="0.6173" style="stop-color:#FF9200"/>
			<stop  offset="1" style="stop-color:#FFA000"/>
		</linearGradient>
		<path class="st4" d="M67.6,11.2c0,0,7.8-0.9,10.8,1.3c5.3,3.8,3,11.5,3,11.5S75.8,15.1,67.6,11.2z"/>
		<linearGradient id="SVGID_7_" gradientUnits="userSpaceOnUse" x1="80.8599" y1="64.9741" x2="80.8599" y2="47.2774">
			<stop  offset="0" style="stop-color:#657CEC"/>
			<stop  offset="0.3891" style="stop-color:#6680E6"/>
			<stop  offset="0.9214" style="stop-color:#688BD4"/>
			<stop  offset="1" style="stop-color:#688DD1"/>
		</linearGradient>
		<path class="st5" d="M86.2,61.4c-4.4,4.7-11,4.4-12.8,1.4c-0.8-1.3-0.9-2.6-0.7-4.1c0.9-5.7,8.5-11.8,12.1-11.4
			c0.3,0,0.6,0.1,0.9,0.2c0,0,0,0,0,0C91.1,49.1,89.3,58.1,86.2,61.4z"/>
		<linearGradient id="SVGID_8_" gradientUnits="userSpaceOnUse" x1="17.7373" y1="63.0469" x2="17.7373" y2="43.5816">
			<stop  offset="0" style="stop-color:#657CEC"/>
			<stop  offset="0.3891" style="stop-color:#6680E6"/>
			<stop  offset="0.9214" style="stop-color:#688BD4"/>
			<stop  offset="1" style="stop-color:#688DD1"/>
		</linearGradient>
		<path class="st7" d="M24,60.4c-0.1,0.4-0.4,0.7-0.6,1c-2.3,3-10.3,2.4-12-5.5c-1.4-6.7-0.2-11.8,3.1-12.3c0,0,0,0,0,0
			c0.6-0.1,1.2,0,1.9,0.2C21.7,45.5,26.2,55.5,24,60.4z"/>
		<path class="st490" d="M63.1,84.1c-6,1.8-12.6-0.2-12.4-3.5c0-0.2,0.1-0.5,0.1-0.7c1.3-4.2,10.8-6.2,16.4-5.1c0,0,0,0,0,0
			c0.3,0.1,0.5,0.1,0.8,0.2C73.8,76.6,69.1,82.3,63.1,84.1z"/>
		<linearGradient id="SVGID_9_" gradientUnits="userSpaceOnUse" x1="45.1894" y1="10.6018" x2="45.1894" y2="1.4231">
			<stop  offset="0" style="stop-color:#D60042"/>
			<stop  offset="1" style="stop-color:#FF1820"/>
		</linearGradient>
		<path class="st8" d="M33.2,10.6c0,0,1-7.9,10-9.1c9.1-1.2,14,6,14,6S45.6,4.3,33.2,10.6z"/>
		<linearGradient id="SVGID_10_" gradientUnits="userSpaceOnUse" x1="22.593" y1="77.5277" x2="22.593" y2="64.2282">
			<stop  offset="0" style="stop-color:#D60042"/>
			<stop  offset="1" style="stop-color:#AE0020"/>
		</linearGradient>
		<path class="st9" d="M16.6,64.2c0,0-3.9,15.4,12.4,13C29,77.3,20.7,71.2,16.6,64.2z"/>
		<linearGradient id="SVGID_11_" gradientUnits="userSpaceOnUse" x1="57.3936" y1="27.9706" x2="57.3936" y2="8.9853">
			<stop  offset="0" style="stop-color:#BA6AEC"/>
			<stop  offset="0.4575" style="stop-color:#B570EA"/>
			<stop  offset="1" style="stop-color:#AA7FE5"/>
		</linearGradient>
		<path class="st10" d="M49.6,10c-5.8,2.4-1.1,14.4,6.3,17.4c7.4,3,13.2-5.8,11.5-11.4C65.7,10.4,55.9,7.3,49.6,10z"/>
		<path class="st145" d="M86.2,61.4c-4.4,4.7-11,4.4-12.8,1.4c-0.8-1.3-0.9-2.6-0.7-4.1l0,0c0.5,5.9,10.1,0.9,13-3.9
			c2.7-4.6,0.2-7.1,0-7.3C91.1,49.1,89.3,58.1,86.2,61.4z"/>
		<path class="st145" d="M49.6,66.1c-5.3,5.8-12.3,0.6-14.2-4c-2.3-5.5-1.2-9.2,2.2-10.9c-3.7,2.4,6.3,11.5,10.4,12.3
			c3.3,0.7,4.1-3.6,4.2-5.2C52.4,61.1,51.6,63.9,49.6,66.1z"/>
		<path class="st145" d="M24,60.4c-0.1,0.4-0.4,0.7-0.6,1c-2.3,3-10.3,2.4-12-5.5c-1.4-6.7-0.2-11.8,3.1-12.3
			c-2,1.6,3.7,14.9,6.3,17.1C22.1,61.8,23.2,61.3,24,60.4z"/>
		<path class="st145" d="M63.1,84.1c-6,1.8-12.6-0.2-12.4-3.5c0-0.2,0.1-0.5,0.1-0.7c1.4,1.6,15.2-1.4,17.9-2.4
			c2.7-1-1.2-2.6-1.5-2.7c0.3,0.1,0.5,0.1,0.8,0.2C73.8,76.6,69.1,82.3,63.1,84.1z"/>
		<path class="st145" d="M23.1,16.7c-1,2.8,0.1,7.4,2.2,8.5c2,1.2,9.4-1.5,12.1-3.1c0,0-2.3,5.4-9.6,7.1
			C20.5,31,18.9,24.8,23.1,16.7z"/>
		<path class="st145" d="M60,42.3c1.3,3.6,4.2,6.2,8.7,6.5c4.6,0.3,8.7-5.9,8.8-9.7c0,0,1.1,3.6-1.2,7.5c-2.3,3.8-3.3,5.4-7.6,5.8
			C64.5,52.7,60.4,48.6,60,42.3z"/>
		<path class="st145" d="M47.1,15.1c0,0,4.8,9.5,12.5,10.1c7.8,0.6,8.1-8.5,8.1-8.5s0.4,5.9-3.4,10.3c-3.8,4.5-8.6,2.3-12.6-1.6
			C47.7,21.6,47.1,15.1,47.1,15.1z"/>
		<path class="st145" d="M36.6,64.2c2.6,2.6,9.5,2,12.5-0.6c3-2.6,3-6,3-6s1.2,3.2-0.6,8c-1.4,3.6-5.3,5.2-7.9,4.8
			C39.2,69.8,36.6,64.2,36.6,64.2z"/>
		<path class="st145" d="M17.4,65.7c0,0,0,3.7,1.8,7.8c1.8,4.1,9.8,3.8,9.8,3.8S23.2,73,17.4,65.7z"/>
		<path class="st145" d="M13.5,60.2c0,0,3.6,1.7,7.2,1.2c3.6-0.5,3.9-3.4,3.9-3.4s0.2,5.4-2.9,6.1C18.7,64.8,15.2,62.6,13.5,60.2z"
			/>
		<path class="st145" d="M24,27.9c0.5,0.4,2.1-1.7,4-2.5c1.9-0.8,7.5-1.8,7.5-1.8S30.7,29.3,24,27.9z"/>
		<path class="st145" d="M55.9,27.4c0.1-1.6,4.7-1.7,6.3-2.4c1.6-0.6,4.2-2.7,4.2-2.7S64.8,27,60.7,28
			C56.7,28.9,55.9,27.4,55.9,27.4z"/>
		<path class="st145" d="M61.4,45.9c0.5-0.3,4.6,3.1,6.8,3.8c2.2,0.7,0,1.8,0,1.8S63.1,51.8,61.4,45.9z"/>
		<path class="st145" d="M35.7,5.2c-0.3,1.2,3.2-1.3,9.1-2c5.9-0.7,12.4,4.3,12.4,4.3s-8.7-3.9-24,3C33.2,10.6,33.6,7.1,35.7,5.2z"
			/>
		<path class="st145" d="M67.6,11.2c0,0,5.1,1.7,8.9,5.6c3.7,3.8,4.7,6.9,4.7,6.9S74.4,14.7,67.6,11.2z"/>
		<path class="st494" d="M48.2,22.8c0,0,1,4.4,5.1,6.7c5.4,3,10.1-1,10.4-1.3c0.3-0.3-2.3,2-6.5,0.9C53.1,28,48.2,22.8,48.2,22.8z"
			/>
		<path class="st494" d="M22.3,29.6c0,0,2.3,1.2,5.8,0.8c3.5-0.5,5.5-3.8,5.5-3.8S27.2,30.4,22.3,29.6z"/>
		<path class="st494" d="M62.1,49.2c0,0,2.2,3.7,6.8,4.2c4.6,0.5,6.1-4.6,6.1-4.6s-1.9,4-6.3,3.6C64.4,52,62.1,49.2,62.1,49.2z"/>
		<path class="st495" d="M39.8,68.7c0,0,2,2.5,6.1,2.2c4.2-0.3,5.6-5.2,5.6-5.2S46.3,73.9,39.8,68.7z"/>
		<path class="st495" d="M17.7,64.1c-1.2,0.1-0.1,1.2,2.4,0.9C22.5,64.6,18.9,64,17.7,64.1z"/>
		<path class="st495" d="M73.6,63.7c-0.9,0.1,1.1,2.8,3.6,3.1c2.6,0.3-0.2-1.4-1.9-1.9C73.6,64.5,73.6,63.7,73.6,63.7z"/>
		<path class="st145" d="M54.7,84.3c-4.7-2.5,5.7-5.4,10.3-5.8c4.6-0.4,4.4,1.2,4.1,1.9C68.8,81.2,64.4,85.9,54.7,84.3z"/>
		<path class="st496" d="M61.2,40.3c-1.2,4.8,3.5,6.6,7.1,7.2c3.6,0.6,8.6-5.9,8.7-9.2c0.1-3.3-7.1-5.7-10.2-4.7
			C63.7,34.7,61.6,38.6,61.2,40.3z"/>
		<path class="st496" d="M37.7,52c-1.8,2,6.8,10.6,9.9,11.1s4.5-5.7,2.7-9.1C48.5,50.6,40.6,48.9,37.7,52z"/>
		<path class="st497" d="M15.2,44.2c-1.8,1.6,3,12,5.6,14.6c2.6,2.6,3.7-3.2,2.1-7.5C21.2,46.9,16.3,43.2,15.2,44.2z"/>
		<path class="st496" d="M27,12.9c-2.5,1.5-4.8,9.1-1.7,11.8c3.1,2.7,11.8-3.5,12.1-7.4C37.8,13.6,31.9,10,27,12.9z"/>
		<path class="st496" d="M48.1,11.2c-3,2,4.4,12.7,11.9,13.6c7.5,0.9,7.1-8.7,6.1-11.2C65.1,11,53.6,7.4,48.1,11.2z"/>
		<path class="st497" d="M77,51.8c-3.6,4.7,1.8,7.6,4.9,6.5c3.1-1.1,5.7-9.8,2.9-11C82,46.1,77,51.8,77,51.8z"/>
		<path class="st55" d="M69.1,41c-0.8-2.1,1.9-3,2.7-1.9C72.6,40.2,69.8,42.6,69.1,41z"/>
		<path class="st55" d="M42.4,56.2c-1.5,1-0.1,2.1,1.9,2.3C46.3,58.6,44.5,54.9,42.4,56.2z"/>
		<path class="st55" d="M50.7,14.1c-0.9,1.4,1.9,2.3,3,0.6C54.8,13.1,51.9,12.4,50.7,14.1z"/>
		<path class="st55" d="M29.1,15.1c-1.2,2.3,3.7,1.8,4.1,0C33.6,13.3,29.9,13.5,29.1,15.1z"/>
		<path class="st55" d="M15.5,49c-1,0.5,0.2,1.9,0.6,2.3C16.6,51.7,16.1,48.7,15.5,49z"/>
		<path class="st55" d="M81.9,50.2c-0.9,1.5,2.2,2.8,2.2,1.4S82.7,48.7,81.9,50.2z"/>
		<path class="st498" d="M47.4,24.6c-1.9-3.6-1.5-11.1-1.2-12.9c0.3-1.8-4.2,2.6-4.4,6.7C41.6,22.6,47.4,24.6,47.4,24.6z"/>
		<path class="st214" d="M59.2,44.1c-1.1-1.3-1.3,6.1,3.5,9.6c3.4,2.4,6.5,0.5,6.8,0.1c0.3-0.4-3.9-0.5-7-4.1
			C59.4,46.1,59.2,44.1,59.2,44.1z"/>
		<path class="st498" d="M39.6,20.1c-1.3-0.3-0.6,3.8-8,8.6c-2.6,1.7-1.3,2.8,3.8,0.8C40.6,27.6,39.6,20.1,39.6,20.1z"/>
		<path class="st498" d="M69.1,16.5c0.2,1.1-0.8,2.7,3.8,5.8c4.6,3.1,7.6,6.3,7.9,4.2c0.3-2-5.8-11.8-12.1-13.2
			C67.2,13,68.6,13.5,69.1,16.5z"/>
		<path class="st498" d="M20.8,66.4c3.8,2.7,7.9,1.4,7.2-4.3c-0.7-5.6-2.6-3.9-3-2.7C24.7,60.6,24,65.2,20.8,66.4z"/>
		<path class="st55" d="M62.1,76.5c-0.8,3.1,3.6,1.2,4.3,0C67.2,75.2,62.4,75.4,62.1,76.5z"/>
		<path class="st215" d="M32.4,33.4c-1.4,2.8,0.9,8.7,3.1,10.9c2.2,2.2,6.2-7.2,4.2-10.3C37.7,30.8,33,32,32.4,33.4z"/>
		<path class="st215" d="M81.9,32.4c-1.9,0.4,0.3,5.8,2.2,6.2C86,39.1,85.6,31.5,81.9,32.4z"/>
		<path class="st496" d="M77.5,12.5c-2.4-1.1,0.8,6.7,2.1,7C80.9,19.8,83.3,15,77.5,12.5z"/>
		<path class="st499" d="M33.9,26.3c-0.5,0.5,1.2-0.2,1.6-1S33.9,26.3,33.9,26.3z"/>
		<path class="st499" d="M56.6,28.9c-1.4-0.3-0.1,1.6,2.1,1.5c2.1-0.1,2.8-1.1,2.5-1.1C60.9,29.3,58.8,29.4,56.6,28.9z"/>
		<path class="st499" d="M48.9,69.2c-1.2,0.2,0.6-1.2,1.2-1.9C50.8,66.5,50.3,69,48.9,69.2z"/>
		<path class="st145" d="M17.4,73.5c0.5,0.8,2.1-1.4,4.6-1.1c2.5,0.4,7,4.9,7,4.9S20.2,79.1,17.4,73.5z"/>
		<path class="st500" d="M80.5,64.7c0,0,5.1-3,7-6.5c2-3.5,1.6-5.7,1.6-5.7s0.5,3.6-1.6,6.9S82.9,64.1,80.5,64.7z"/>
		<path class="st500" d="M12.2,45.1c0,0-0.8,9.4,1.2,15.1C13.5,60.2,8.4,52.1,12.2,45.1z"/>
		<path class="st55" d="M44.7,2c-1.5,0.4,5,1.5,6.6,1.7C53,3.8,49.4,0.8,44.7,2z"/>
		<path class="st500" d="M16.2,69.2c0,0,2,7.4,12.8,8C29,77.3,16.5,79.4,16.2,69.2z"/>
	</g>
</g>
</svg>
