<?xml version="1.0" encoding="utf-8"?>
<!-- Generator: Adobe Illustrator 22.0.1, SVG Export Plug-In . SVG Version: 6.00 Build 0)  -->
<svg version="1.1" xmlns="http://www.w3.org/2000/svg" xmlns:xlink="http://www.w3.org/1999/xlink" x="0px" y="0px"
	 viewBox="0 0 100 100" style="enable-background:new 0 0 100 100;" xml:space="preserve">
<style type="text/css">
	.st0{clip-path:url(#SVGID_2_);}
	.st1{fill:url(#SVGID_3_);}
	.st2{fill:url(#SVGID_4_);}
	.st3{fill:url(#SVGID_5_);}
	.st4{fill:url(#SVGID_6_);}
	.st5{fill:url(#SVGID_7_);}
	.st6{opacity:0.5;}
	.st7{fill:url(#SVGID_8_);}
	.st8{fill:url(#SVGID_9_);}
	.st9{fill:url(#SVGID_10_);}
	.st10{fill:url(#SVGID_11_);}
	.st11{fill:url(#SVGID_12_);}
	.st12{fill:url(#SVGID_13_);}
	.st13{fill:url(#SVGID_14_);}
	.st14{fill:url(#SVGID_15_);}
	.st15{fill:url(#SVGID_16_);}
	.st16{fill:url(#SVGID_17_);}
	.st17{fill:url(#SVGID_18_);}
	.st18{fill:url(#SVGID_19_);}
	.st19{fill:url(#SVGID_20_);}
	.st20{fill:url(#SVGID_21_);}
	.st21{fill:url(#SVGID_22_);}
	.st22{fill:url(#SVGID_23_);}
	.st23{fill:url(#SVGID_24_);}
	.st24{fill:url(#SVGID_25_);}
	.st25{fill:url(#SVGID_26_);}
	.st26{fill:url(#SVGID_27_);}
	.st27{fill:url(#SVGID_28_);}
	.st28{fill:url(#SVGID_29_);}
	.st29{fill:url(#SVGID_30_);}
	.st30{fill:url(#SVGID_31_);}
	.st31{fill:url(#SVGID_32_);}
	.st32{fill:url(#SVGID_33_);}
	.st33{fill:url(#SVGID_34_);}
	.st34{fill:url(#SVGID_35_);}
	.st35{fill:url(#SVGID_36_);}
	.st36{fill:url(#SVGID_37_);}
	.st37{fill:url(#SVGID_38_);}
	.st38{fill:url(#SVGID_39_);}
	.st39{fill:url(#SVGID_40_);}
	.st40{fill:url(#SVGID_41_);}
	.st41{fill:url(#SVGID_42_);}
	.st42{fill:url(#SVGID_43_);}
	.st43{fill:url(#SVGID_44_);}
	.st44{fill:url(#SVGID_45_);}
	.st45{fill:url(#SVGID_46_);}
	.st46{fill:url(#SVGID_47_);}
	.st47{fill:url(#SVGID_48_);}
	.st48{fill:url(#SVGID_49_);}
	.st49{fill:url(#SVGID_50_);}
	.st50{fill:url(#SVGID_51_);}
	.st51{fill:url(#SVGID_52_);}
	.st52{fill:url(#SVGID_53_);}
	.st53{fill:url(#SVGID_54_);}
	.st54{opacity:0.5;fill:url(#SVGID_55_);}
	.st55{fill:#FFFFFF;}
	.st56{opacity:0.5;fill:url(#SVGID_56_);}
	.st57{opacity:0.3;fill:#6D109D;}
	.st58{opacity:0.3;fill:#FFFFFF;}
	.st59{opacity:0.5;fill:url(#SVGID_57_);}
	.st60{fill:url(#SVGID_58_);}
	.st61{opacity:0.5;fill:url(#SVGID_59_);}
	.st62{opacity:0.5;fill:url(#SVGID_60_);}
	.st63{opacity:0.5;fill:url(#SVGID_61_);}
	.st64{fill:url(#SVGID_62_);}
	.st65{opacity:0.5;fill:url(#SVGID_63_);}
	.st66{opacity:0.5;fill:url(#SVGID_64_);}
	.st67{opacity:0.5;fill:url(#SVGID_65_);}
	.st68{fill:url(#SVGID_66_);}
	.st69{opacity:0.5;fill:url(#SVGID_67_);}
	.st70{opacity:0.5;fill:url(#SVGID_68_);}
	.st71{opacity:0.5;fill:url(#SVGID_69_);}
	.st72{opacity:0.5;fill:url(#SVGID_70_);}
	.st73{opacity:0.5;fill:url(#SVGID_71_);}
	.st74{opacity:0.5;fill:#FFFFFF;}
	.st75{opacity:0.5;fill:url(#SVGID_72_);}
	.st76{opacity:0.5;fill:url(#SVGID_73_);}
	.st77{opacity:0.5;fill:url(#SVGID_74_);}
	.st78{opacity:0.5;fill:url(#SVGID_75_);}
	.st79{opacity:0.5;fill:url(#SVGID_76_);}
	.st80{opacity:0.5;fill:url(#SVGID_77_);}
	.st81{opacity:0.3;fill:url(#SVGID_78_);}
	.st82{opacity:0.3;fill:url(#SVGID_79_);}
	.st83{opacity:0.3;fill:url(#SVGID_80_);}
	.st84{opacity:0.3;fill:url(#SVGID_81_);}
	.st85{opacity:0.3;fill:url(#SVGID_82_);}
	.st86{opacity:0.3;fill:url(#SVGID_83_);}
	.st87{opacity:0.3;fill:url(#SVGID_84_);}
	.st88{opacity:0.3;fill:url(#SVGID_85_);}
	.st89{opacity:0.3;fill:url(#SVGID_86_);}
	.st90{opacity:0.3;fill:url(#SVGID_87_);}
	.st91{opacity:0.3;fill:url(#SVGID_88_);}
	.st92{opacity:0.3;fill:url(#SVGID_89_);}
	.st93{opacity:0.3;fill:url(#SVGID_90_);}
	.st94{opacity:0.3;fill:url(#SVGID_91_);}
	.st95{opacity:0.3;fill:url(#SVGID_92_);}
	.st96{opacity:0.3;fill:url(#SVGID_93_);}
	.st97{opacity:0.3;fill:url(#SVGID_94_);}
	.st98{opacity:0.3;fill:url(#SVGID_95_);}
	.st99{opacity:0.3;fill:url(#SVGID_96_);}
	.st100{opacity:0.3;fill:url(#SVGID_97_);}
	.st101{opacity:0.3;fill:url(#SVGID_98_);}
	.st102{opacity:0.3;fill:url(#SVGID_99_);}
	.st103{opacity:0.3;fill:url(#SVGID_100_);}
	.st104{opacity:0.3;fill:url(#SVGID_101_);}
	.st105{opacity:0.3;fill:url(#SVGID_102_);}
	.st106{opacity:0.3;fill:url(#SVGID_103_);}
	.st107{opacity:0.3;fill:url(#SVGID_104_);}
	.st108{opacity:0.3;fill:url(#SVGID_105_);}
	.st109{opacity:0.3;fill:url(#SVGID_106_);}
	.st110{opacity:0.3;fill:url(#SVGID_107_);}
	.st111{opacity:0.3;fill:url(#SVGID_108_);}
	.st112{opacity:0.3;fill:url(#SVGID_109_);}
	.st113{opacity:0.3;fill:url(#SVGID_110_);}
	.st114{opacity:0.3;fill:url(#SVGID_111_);}
	.st115{opacity:0.3;fill:url(#SVGID_112_);}
	.st116{opacity:0.3;fill:url(#SVGID_113_);}
	.st117{opacity:0.3;fill:url(#SVGID_114_);}
	.st118{opacity:0.3;fill:url(#SVGID_115_);}
	.st119{opacity:0.3;fill:url(#SVGID_116_);}
	.st120{opacity:0.3;fill:url(#SVGID_117_);}
	.st121{fill:#2B0038;}
	.st122{fill:url(#SVGID_118_);}
	.st123{fill:url(#SVGID_119_);}
	.st124{fill:url(#SVGID_120_);}
	.st125{fill:url(#SVGID_121_);}
	.st126{fill:url(#SVGID_122_);}
	.st127{fill:url(#SVGID_123_);}
	.st128{opacity:0.6;fill:#9A1842;}
	.st129{opacity:0.8;fill:#9A2E69;}
	.st130{fill:#8300C0;}
	.st131{fill:url(#SVGID_124_);}
	.st132{opacity:0.4;fill:#D41892;}
	.st133{fill:#FF9650;}
	.st134{fill:url(#SVGID_125_);}
	.st135{fill:url(#SVGID_126_);}
	.st136{fill:url(#SVGID_127_);}
	.st137{fill:url(#SVGID_128_);}
	.st138{opacity:0.4;}
	.st139{fill:#98003B;}
	.st140{fill:#FF7A4A;}
	.st141{fill:#FF924A;}
	.st142{fill:url(#SVGID_129_);}
	.st143{fill:url(#SVGID_130_);}
	.st144{fill:url(#SVGID_131_);}
	.st145{opacity:0.71;fill:#CA6D92;}
	.st146{fill:#FFE3EA;}
	.st147{fill:url(#SVGID_132_);}
	.st148{fill:url(#SVGID_133_);}
	.st149{fill:url(#SVGID_134_);}
	.st150{fill:url(#SVGID_135_);}
	.st151{fill:url(#SVGID_136_);}
	.st152{fill:url(#SVGID_137_);}
	.st153{fill:url(#SVGID_138_);}
	.st154{fill:url(#SVGID_139_);}
	.st155{fill:url(#SVGID_140_);}
	.st156{fill:url(#SVGID_141_);}
	.st157{fill:url(#SVGID_142_);}
	.st158{fill:url(#SVGID_143_);}
	.st159{fill:url(#SVGID_144_);}
	.st160{fill:url(#SVGID_145_);}
	.st161{opacity:0.8;}
	.st162{fill:#9A2E69;}
	.st163{fill:url(#SVGID_146_);}
	.st164{fill:url(#SVGID_147_);}
	.st165{fill:url(#SVGID_148_);}
	.st166{fill:url(#SVGID_149_);}
	.st167{fill:url(#SVGID_150_);}
	.st168{fill:url(#SVGID_151_);}
	.st169{fill:url(#SVGID_152_);}
	.st170{fill:url(#SVGID_153_);}
	.st171{fill:url(#SVGID_154_);}
	.st172{fill:url(#SVGID_155_);}
	.st173{fill:url(#SVGID_156_);}
	.st174{fill:url(#SVGID_157_);}
	.st175{fill:url(#SVGID_158_);}
	.st176{fill:url(#SVGID_159_);}
	.st177{fill:url(#SVGID_160_);}
	.st178{fill:url(#SVGID_161_);}
	.st179{fill:url(#SVGID_162_);}
	.st180{fill:url(#SVGID_163_);}
	.st181{fill:url(#SVGID_164_);}
	.st182{fill:url(#SVGID_165_);}
	.st183{fill:url(#SVGID_166_);}
	.st184{fill:url(#SVGID_167_);}
	.st185{fill:url(#SVGID_168_);}
	.st186{fill:url(#SVGID_169_);}
	.st187{fill:url(#SVGID_170_);}
	.st188{fill:url(#SVGID_171_);}
	.st189{fill:url(#SVGID_172_);}
	.st190{fill:url(#SVGID_173_);}
	.st191{fill:#90DEFF;}
	.st192{opacity:0.5;fill:url(#SVGID_174_);}
	.st193{opacity:0.5;fill:url(#SVGID_175_);}
	.st194{fill:url(#SVGID_176_);}
	.st195{opacity:0.2;fill:#FFFFFF;}
	.st196{fill:#BF77D8;}
	.st197{fill:url(#SVGID_177_);}
	.st198{fill:url(#SVGID_178_);}
	.st199{fill:url(#SVGID_179_);}
	.st200{fill:url(#SVGID_180_);}
	.st201{fill:url(#SVGID_181_);}
	.st202{fill:url(#SVGID_182_);}
	.st203{fill:url(#SVGID_183_);}
	.st204{opacity:0.8;fill:#E72F92;}
	.st205{opacity:0.6;fill:#E72F92;}
	.st206{opacity:0.5;fill:#E72F92;}
	.st207{fill:#FFD8FF;}
	.st208{opacity:0.8;fill:#A6004A;}
	.st209{opacity:0.5;fill:#A6004A;}
	.st210{opacity:0.5;fill:#BD004A;}
	.st211{opacity:0.3;fill:#FFD8FF;}
	.st212{fill:url(#SVGID_184_);}
	.st213{fill:url(#SVGID_185_);}
	.st214{opacity:0.5;fill:#E75992;}
	.st215{opacity:0.5;fill:#FFD8FF;}
	.st216{fill:url(#SVGID_186_);}
	.st217{opacity:0.6;fill:#BF2A92;}
	.st218{fill:#FFB8DF;}
	.st219{opacity:0.5;fill:#D15992;}
	.st220{fill:#FFB895;}
	.st221{fill:#FF938B;}
	.st222{fill:url(#SVGID_187_);}
	.st223{fill:#6D181D;}
	.st224{fill:url(#SVGID_188_);}
	.st225{opacity:0.6;fill:#BF6D92;}
	.st226{opacity:0.7;fill:#BF6D92;}
	.st227{fill:#BF6D92;}
	.st228{opacity:0.5;fill:#FFA7A1;}
	.st229{fill:#FF7A5F;}
	.st230{fill:#A8292F;}
	.st231{opacity:0.6;fill:#CB89A7;}
	.st232{fill:#E0574F;}
	.st233{opacity:0.7;}
	.st234{opacity:0.8;fill:#BF6D92;}
	.st235{opacity:0.3;fill:#BF6D92;}
	.st236{fill:#FFA9A4;}
	.st237{opacity:0.5;fill:#BF6D92;}
	.st238{fill:#FF8189;}
	.st239{fill:url(#SVGID_189_);}
	.st240{fill:url(#SVGID_190_);}
	.st241{opacity:0.2;fill:#E72F92;}
	.st242{opacity:0.5;fill:#FFECA4;}
	.st243{opacity:0.3;fill:#FF6D92;}
	.st244{opacity:0.6;fill:#D41892;}
	.st245{opacity:0.69;fill:#FFECA4;}
	.st246{opacity:0.6;fill:#E77592;}
	.st247{opacity:0.5;fill:#FFFFA4;}
	.st248{fill:#FFECA4;}
	.st249{fill:url(#SVGID_191_);}
	.st250{fill:url(#SVGID_192_);}
	.st251{fill:#FFAE90;}
	.st252{fill:url(#SVGID_193_);}
	.st253{fill:url(#SVGID_194_);}
	.st254{fill:url(#SVGID_195_);}
	.st255{opacity:0.5;fill:#BF2A92;}
	.st256{fill:#BE5548;}
	.st257{opacity:0.8;fill:#BF2A92;}
	.st258{opacity:0.5;fill:#CC7777;}
	.st259{fill:#A74E48;}
	.st260{fill:#F77A77;}
	.st261{opacity:0.3;fill:#BF2A92;}
	.st262{fill:url(#SVGID_196_);}
	.st263{fill:url(#SVGID_197_);}
	.st264{fill:url(#SVGID_198_);}
	.st265{fill:#420714;}
	.st266{fill:url(#SVGID_199_);}
	.st267{fill:url(#SVGID_200_);}
	.st268{fill:url(#SVGID_201_);}
	.st269{fill:url(#SVGID_202_);}
	.st270{opacity:0.5;fill:#F77A77;}
	.st271{fill:#B3424D;}
	.st272{fill:url(#SVGID_203_);}
	.st273{fill:url(#SVGID_204_);}
	.st274{opacity:0.57;fill:#E33292;}
	.st275{fill:#FF75C7;}
	.st276{fill:url(#SVGID_205_);}
	.st277{opacity:0.8;fill:#E50092;}
	.st278{fill:#FFB3C7;}
	.st279{opacity:0.5;fill:#E33292;}
	.st280{fill:#E50092;}
	.st281{fill:url(#SVGID_206_);}
	.st282{fill:#FF8B9A;}
	.st283{fill:url(#SVGID_207_);}
	.st284{fill:url(#SVGID_208_);}
	.st285{fill:url(#SVGID_209_);}
	.st286{fill:url(#SVGID_210_);}
	.st287{fill:url(#SVGID_211_);}
	.st288{opacity:0.5;fill:#989310;}
	.st289{fill:#B3B35E;}
	.st290{opacity:0.2;fill:#989310;}
	.st291{fill:#DBF15E;}
	.st292{fill:#B3F25E;}
	.st293{fill:url(#SVGID_212_);}
	.st294{fill:#CCE031;}
	.st295{fill:url(#SVGID_213_);}
	.st296{fill:url(#SVGID_214_);}
	.st297{fill:url(#SVGID_215_);}
	.st298{fill:url(#SVGID_216_);}
	.st299{fill:url(#SVGID_217_);}
	.st300{fill:#FFE0D3;}
	.st301{opacity:0.2;fill:#FE5B92;}
	.st302{fill:url(#SVGID_218_);}
	.st303{opacity:0.8;fill:#CA0092;}
	.st304{opacity:0.71;fill:#CA0092;}
	.st305{fill:#FFDEC7;}
	.st306{fill:#CA0092;}
	.st307{fill:url(#SVGID_219_);}
	.st308{fill:url(#SVGID_220_);}
	.st309{fill:url(#SVGID_221_);}
	.st310{fill:url(#SVGID_222_);}
	.st311{fill:url(#SVGID_223_);}
	.st312{fill:url(#SVGID_224_);}
	.st313{fill:url(#SVGID_225_);}
	.st314{fill:url(#SVGID_226_);}
	.st315{fill:url(#SVGID_227_);}
	.st316{fill:#FF5C7F;}
	.st317{fill:url(#SVGID_228_);}
	.st318{fill:url(#SVGID_229_);}
	.st319{fill:url(#SVGID_230_);}
	.st320{fill:#D65963;}
	.st321{fill:#9A2754;}
	.st322{fill:#FFD9C7;}
	.st323{fill:#B8ABC7;}
	.st324{opacity:0.5;fill:#C23E86;}
	.st325{fill:#FFA67C;}
	.st326{fill:#D8D1E0;}
	.st327{fill:url(#SVGID_231_);}
	.st328{fill:url(#SVGID_232_);}
	.st329{fill:url(#SVGID_233_);}
	.st330{opacity:0.5;fill:#E06E00;}
	.st331{fill:url(#SVGID_234_);}
	.st332{fill:#FFE250;}
	.st333{opacity:0.3;fill:#C62792;}
	.st334{fill:#B3FF5E;}
	.st335{fill:url(#SVGID_235_);}
	.st336{opacity:0.5;fill:#FF5410;}
	.st337{fill:url(#SVGID_236_);}
	.st338{fill:url(#SVGID_237_);}
	.st339{fill:url(#SVGID_238_);}
	.st340{fill:url(#SVGID_239_);}
	.st341{fill:url(#SVGID_240_);}
	.st342{fill:url(#SVGID_241_);}
	.st343{opacity:0.62;fill:#C44C90;}
	.st344{opacity:0.5;fill:#CB1192;}
	.st345{fill:#FFA486;}
	.st346{opacity:0.3;fill:#C61192;}
	.st347{fill:#FF6DA0;}
	.st348{opacity:0.8;fill:#C44790;}
	.st349{opacity:0.5;fill:#C44C90;}
	.st350{opacity:0.7;fill:#C44790;}
	.st351{fill:#FF72AA;}
	.st352{fill:url(#SVGID_242_);}
	.st353{opacity:0.5;fill:#C95459;}
	.st354{fill:url(#SVGID_243_);}
	.st355{fill:url(#SVGID_244_);}
	.st356{fill:url(#SVGID_245_);}
	.st357{opacity:0.2;fill:#FFD8FF;}
	.st358{fill:#893537;}
	.st359{fill:#9D4648;}
	.st360{fill:url(#SVGID_246_);}
	.st361{fill:#FFC1A7;}
	.st362{fill:#FFAA86;}
	.st363{fill:#FFAB9F;}
	.st364{fill:url(#SVGID_247_);}
	.st365{opacity:0.5;fill:#C0673B;}
	.st366{fill:#A94F37;}
	.st367{fill:url(#SVGID_248_);}
	.st368{fill:url(#SVGID_249_);}
	.st369{fill:url(#SVGID_250_);}
	.st370{fill:url(#SVGID_251_);}
	.st371{fill:url(#SVGID_252_);}
	.st372{fill:url(#SVGID_253_);}
	.st373{fill:url(#SVGID_254_);}
	.st374{fill:url(#SVGID_255_);}
	.st375{fill:url(#SVGID_256_);}
	.st376{fill:url(#SVGID_257_);}
	.st377{fill:url(#SVGID_258_);}
	.st378{fill:url(#SVGID_259_);}
	.st379{opacity:0.2;fill:#CA1B3B;}
	.st380{opacity:0.64;fill:#CC5748;}
	.st381{opacity:0.5;fill:#D31F90;}
	.st382{opacity:0.2;fill:#CA0092;}
	.st383{fill:url(#SVGID_260_);}
	.st384{fill:url(#SVGID_261_);}
	.st385{fill:url(#SVGID_262_);}
	.st386{fill:url(#SVGID_263_);}
	.st387{fill:url(#SVGID_264_);}
	.st388{opacity:0.2;fill:#F2513B;}
	.st389{opacity:0.97;fill:#FFECA4;}
	.st390{fill:#FF956D;}
	.st391{opacity:0.3;fill:#E77592;}
	.st392{opacity:0.36;fill:#E77592;}
	.st393{fill:url(#SVGID_265_);}
	.st394{fill:url(#SVGID_266_);}
	.st395{fill:url(#SVGID_267_);}
	.st396{fill:url(#SVGID_268_);}
	.st397{fill:#AE4648;}
	.st398{fill:url(#SVGID_269_);}
	.st399{fill:url(#SVGID_270_);}
	.st400{fill:#988D89;}
	.st401{fill:#F4837C;}
	.st402{opacity:0.5;fill:#C94CA3;}
	.st403{fill:url(#SVGID_271_);}
	.st404{fill:url(#SVGID_272_);}
	.st405{fill:url(#SVGID_273_);}
	.st406{fill:url(#SVGID_274_);}
	.st407{fill:url(#SVGID_275_);}
	.st408{fill:url(#SVGID_276_);}
	.st409{fill:url(#SVGID_277_);}
	.st410{fill:url(#SVGID_278_);}
	.st411{opacity:0.64;fill:#DB877C;}
	.st412{opacity:0.2;fill:#DB877C;}
	.st413{fill:#FF9840;}
	.st414{opacity:0.5;fill:#FF956D;}
	.st415{fill:#CD5436;}
	.st416{fill:url(#SVGID_279_);}
	.st417{opacity:0.4;fill:#BB1892;}
	.st418{fill:#A0003B;}
	.st419{fill:url(#SVGID_280_);}
	.st420{opacity:0.64;fill:#DB727C;}
	.st421{fill:url(#SVGID_281_);}
	.st422{fill:url(#SVGID_282_);}
	.st423{opacity:0.6;fill:#C25792;}
	.st424{fill:#FF8140;}
	.st425{fill:#FF6A4D;}
	.st426{fill:url(#SVGID_283_);}
	.st427{fill:url(#SVGID_284_);}
	.st428{fill:url(#SVGID_285_);}
	.st429{fill:url(#SVGID_286_);}
	.st430{fill:url(#SVGID_287_);}
	.st431{fill:url(#SVGID_288_);}
	.st432{fill:url(#SVGID_289_);}
	.st433{fill:url(#SVGID_290_);}
	.st434{fill:url(#SVGID_291_);}
	.st435{fill:url(#SVGID_292_);}
	.st436{fill:url(#SVGID_293_);}
	.st437{opacity:0.5;fill:#CA6D92;}
	.st438{opacity:0.55;fill:#C46581;}
	.st439{fill:url(#SVGID_294_);}
	.st440{opacity:0.55;fill:#FA6D92;}
	.st441{opacity:0.55;fill:#FFD8FF;}
	.st442{fill:url(#SVGID_295_);}
	.st443{fill:#932933;}
	.st444{fill:url(#SVGID_296_);}
	.st445{fill:url(#SVGID_297_);}
	.st446{fill:url(#SVGID_298_);}
	.st447{opacity:0.5;fill:#CAC5ED;}
	.st448{opacity:0.2;fill:#CAC5ED;}
	.st449{opacity:0.5;fill:#7577D6;}
	.st450{opacity:0.55;fill:#AEB0FF;}
	.st451{fill:#7C95FF;}
	.st452{opacity:0.3;fill:#9FBFD6;}
	.st453{fill:#74B0FF;}
	.st454{fill:#90BAFF;}
	.st455{fill:#90CAFF;}
	.st456{fill:#7492FF;}
	.st457{fill:url(#SVGID_299_);}
	.st458{opacity:0.4;fill:#8125AE;}
	.st459{fill:url(#SVGID_300_);}
	.st460{opacity:0.3;fill:#7577D6;}
	.st461{fill:url(#SVGID_301_);}
	.st462{fill:url(#SVGID_302_);}
	.st463{fill:url(#SVGID_303_);}
	.st464{fill:url(#SVGID_304_);}
	.st465{fill:#FFA5A4;}
	.st466{fill:#FF837C;}
	.st467{fill:url(#SVGID_305_);}
	.st468{fill:url(#SVGID_306_);}
	.st469{fill:#B3725E;}
	.st470{opacity:0.5;fill:#B3FF5E;}
	.st471{opacity:0.3;fill:#CC5748;}
	.st472{fill:#FFD1B1;}
	.st473{fill:#89242F;}
	.st474{fill:#9F3537;}
	.st475{fill:#F47E37;}
	.st476{fill:#F48D4A;}
	.st477{fill:url(#SVGID_307_);}
	.st478{fill:url(#SVGID_308_);}
	.st479{fill:#C25437;}
	.st480{fill:#F4AC44;}
	.st481{fill:#812137;}
	.st482{fill:#E75792;}
	.st483{fill:url(#SVGID_309_);}
	.st484{opacity:0.3;fill:#912774;}
	.st485{opacity:0.5;fill:#FFEFFF;}
	.st486{opacity:0.2;fill:#A85592;}
	.st487{fill:#FF77FF;}
	.st488{fill:#880000;}
	.st489{fill:#FF4D51;}
	.st490{opacity:0.5;fill:url(#SVGID_310_);}
	.st491{opacity:0.5;fill:url(#SVGID_311_);}
	.st492{fill:#250032;}
	.st493{fill:url(#SVGID_312_);}
	.st494{fill:url(#SVGID_313_);}
	.st495{fill:url(#SVGID_314_);}
	.st496{fill:url(#SVGID_315_);}
	.st497{fill:url(#SVGID_316_);}
	.st498{opacity:0.3;fill:#CA0092;}
	.st499{opacity:0.4;fill:#FFD8FF;}
	.st500{opacity:0.47;fill:#FFCCE0;}
</style>
<g id="background">
</g>
<g id="layer1">
	<path class="st492" d="M28.5,30.7c-9.7,19,1.3,70.1,25.7,66.7C78.6,94,85.8,51.8,79,38.1C72.2,24.3,43.1,1.8,28.5,30.7z"/>
	<g>
		<linearGradient id="SVGID_2_" gradientUnits="userSpaceOnUse" x1="48.4991" y1="96.2795" x2="48.4991" y2="1.8916">
			<stop  offset="0" style="stop-color:#FFBBA4"/>
			<stop  offset="1" style="stop-color:#FFD1C9"/>
		</linearGradient>
		<path style="fill:url(#SVGID_2_);" d="M82.5,65l-0.1,1.5l0,0.1c-0.1,1.5-0.2,2.9-0.3,4.3c0,0,0,0.1,0,0.2c-0.2,2.1-0.4,4.1-0.6,6
			c0,0.1,0,0.2,0,0.3c-0.9,8.1-2.1,13.9-3,15.1C75.2,96.7,62.9,98,58,93.4c-0.8-0.7-1.3-2.1-1.7-3.9v0c-0.1-0.3-0.1-0.6-0.2-1v0
			c-0.9-6.3,0.1-16.9,1-26.8c0.4-4.8,0.7-9.4,0.8-13.3v0c0-0.7,0-1.4,0-2c0-3.3-0.3-6-0.7-8.3c-0.2-1-0.4-2-0.7-2.8
			c-0.2-0.7-0.5-1.4-0.7-2c0,0,0,0,0,0c-0.9-2.1-2.1-3.5-3.4-4.4c-3.2-2.3-7.2-1.3-9.7,0.3c-0.1,0.1-0.2,0.1-0.3,0.2
			c-0.1,0.1-0.3,0.2-0.4,0.3c-0.3,0.2-0.5,0.5-0.7,0.8c0,0-0.1,0.1-0.1,0.1c-1.4,2.3-1.8,6.9-1.9,11.1c0,0.2,0,0.5,0,0.7
			c0,0.3,0,0.5,0,0.8c0,0.4,0,0.7,0,1.1c0,0,0,0,0,0c0,1.4,0,2.7,0,3.7c0,4.7-6.6,7.7-13.2,6.8l-0.1,0c-0.5-0.1-1-0.1-1.4-0.3h0
			c-1.1-0.3-2.3-0.7-3.4-1.2c-0.7-0.3-1.3-0.7-2-1.1c-3.2-2.2-4.9-7.9-5.1-14.5c-0.2-6.5,1.1-13.8,3.7-19.6c0,0,0,0,0,0
			c0,0,0-0.1,0.1-0.1c1.3-2.8,2.9-5.3,4.8-7c4.2-3.9,10.9-6.8,18.2-8.2C47.6,1.5,55,1.5,61.6,3.4c5.8,1.7,11,4.8,14.6,9.8
			c0.6,0.9,1.2,1.9,1.7,3c0.5,1.1,1,2.4,1.4,3.7c0,0,0,0,0,0c1.8,5.6,2.8,12.8,3.2,20.7C83.1,48.6,83,57.2,82.5,65z"/>
		<linearGradient id="SVGID_3_" gradientUnits="userSpaceOnUse" x1="69.6706" y1="88.4911" x2="69.6706" y2="39.7336">
			<stop  offset="0" style="stop-color:#D60042"/>
			<stop  offset="1" style="stop-color:#FF1820"/>
		</linearGradient>
		<path class="st1" d="M82.4,66.7C82.4,66.7,82.4,66.7,82.4,66.7C75.8,79.5,59,78,56.2,88.5c-2.2-8.8,1-26.8,1-26.8
			c0.8-0.4,1.6-0.7,2.4-1.1c16.3-7.7,21.8-17.2,23.1-20c0.2-0.5,0.3-0.8,0.3-0.8C85.4,55.5,82.4,66.7,82.4,66.7z"/>
		<linearGradient id="SVGID_4_" gradientUnits="userSpaceOnUse" x1="67.5968" y1="48.3784" x2="67.5968" y2="3.4324">
			<stop  offset="0" style="stop-color:#D60042"/>
			<stop  offset="1" style="stop-color:#FF1820"/>
		</linearGradient>
		<path class="st2" d="M79.3,20.1c0,0.1-0.1,0.3-0.2,0.5c-0.3,1.1-0.9,2.2-1.7,3.4C72.3,31.8,59.2,40.3,58,48.4
			c-2-2.9-2.1-15.1-2.1-15.1s0,0,0,0c0.1-0.2,0.8-1.9,2.5-6.5c0,0,0-0.1,0-0.1h0v0c0,0,0,0,0,0c0.4-1.2,0.9-2.5,1.4-4.1
			c2.9-8.3,1.8-19.1,1.8-19.1c9.7,1.4,14.2,7.6,16.2,12c0,0,0,0,0,0c1.1,2.3,1.4,4.1,1.5,4.4c0,0,0,0,0,0
			C79.4,19.9,79.4,20,79.3,20.1z"/>
		<linearGradient id="SVGID_5_" gradientUnits="userSpaceOnUse" x1="35.1186" y1="30.5125" x2="35.1186" y2="2.3631">
			<stop  offset="0" style="stop-color:#D60042"/>
			<stop  offset="1" style="stop-color:#FF1820"/>
		</linearGradient>
		<path class="st3" d="M52.5,28.9c0,0-4.5,2.8-8.6,1c-0.4-0.2-0.7-0.4-1.1-0.6c-3.6-2.7-6.6-9.9-13.2-12.7c-6.9-3-11.4,1.2-11.8,1.6
			c0,0,0,0,0,0s0,0,0,0C18.3,7.6,30.3,0.5,40.8,2.8c4,0.9,5.7,3.2,6.7,6.4c0,0,0,0,0,0c0,0,0,0.1,0.1,0.3c0.1,0.3,0.2,0.9,0.4,1.7
			c0,0,0,0.1,0,0.1C49,16.4,49,22.9,52.5,28.9C52.5,28.9,52.5,28.9,52.5,28.9z"/>
		<linearGradient id="SVGID_6_" gradientUnits="userSpaceOnUse" x1="27.125" y1="54.5567" x2="27.125" y2="30.5123">
			<stop  offset="0" style="stop-color:#D60042"/>
			<stop  offset="1" style="stop-color:#FF1820"/>
		</linearGradient>
		<path class="st4" d="M41.4,30.5c-1.7,3.1-22.8,1.1-27.3,7.3c-4.5,6.2,2.5,16,10.5,16.7c0,0,4.4-10.1,14.8-12.1
			C39.4,42.5,42.3,36.7,41.4,30.5z"/>
		<path class="st304" d="M18.4,52.1c4.8,4.4,7.9-3.7,13.5-7.3c5.6-3.6,7.3-2.6,7.9-3.1s-0.4,0.9-0.4,0.9l0,0.8c0,0-6.1,1.5-9.8,5.1
			c-3.6,3.7-3.5,6.5-3.5,6.5l-1.6-0.3C24.6,54.6,21.7,54.5,18.4,52.1z"/>
		<path class="st304" d="M82.5,65l-0.1,1.5l0,0.1c0,0,0,0,0,0c-0.1,0.4-2,6.8-10.6,10.7c-8.8,4.1-15.3,8.8-15.5,12.1
			c-0.1-0.3-0.1-0.6-0.2-1v0c-2.2-8.8,1-26.8,1-26.8c0.4-4.8,0.7-9.4,0.8-13.3v0c-2-2.9-2.1-15.1-2.1-15.1s0,0,0,0
			c-0.9-2.1-2.1-3.5-3.4-4.4c0,0,0,0,0,0c0,0-4.5,2.8-8.6,1c-0.4-0.2-0.7-0.4-1.1-0.6c-0.1,0.1-0.2,0.1-0.3,0.2
			c-1.1-1.2-10.7-11.8-15.3-13c-4.7-1.2-8.9,1.4-9.3,1.7c0,0,0,0,0,0s0,0,0,0c0,0,0-0.1,0.1-0.1c0.3-0.6,1.8-3,7.9-3.4
			c7-0.4,12.1,9.9,17.2,12c5.1,2.1,7.3-1.6,7.3-1.6s-1.8-7.6-2.6-15.8c0,0,0,0.1,0.1,0.3c0.1,0.3,0.2,0.9,0.4,1.7c0,0,0,0.1,0,0.1
			c0.2,1.1,0.5,2.5,0.8,4.4c0.7,4.3,2.7,10,5.6,11.5c2.6,1.4,3.7-0.3,3.9-0.6c0,0,0,0,0,0c0,0,0,0,0,0s0,0,0,0c0,0,0,0.1,0,0.1
			C58,27.6,57,31,56.6,34.9c0,0.1,0,0.3,0,0.4c-0.1,1.3,0.2,2.3,0.7,2.8c1,1.2,3,1.1,4.5,0.8c2.3-0.5,11.2-11,14.1-14
			c2.3-2.3,2.2-6.9,2.1-8.7c0-0.4-0.1-0.6-0.1-0.7c0.1,0.4,1.1,3.2,1.5,4.4c0,0,0,0,0,0c0,0,0,0.1-0.1,0.3c-0.1,0.5-0.6,1.8-1.8,3.9
			c-0.6,1-1.3,2.1-2.3,3.4c-5,6.8-12.7,11.1-15.4,20.2c-2.8,9.1-0.2,12.9-0.2,12.9s-3.9,8.5-3.2,17C57.1,86.1,64.7,79,72,75
			C79.4,71,82.5,65,82.5,65z"/>
		<path class="st498" d="M81.5,77.5c-0.9,8.1-2.1,13.9-3,15.1C75.2,96.7,62.9,98,58,93.4c-0.8-0.7-1.3-2.1-1.7-3.9
			c1.1,3.2,11.6,8,18,4.3C78.7,91.2,80.6,83.3,81.5,77.5z"/>
		<path class="st498" d="M39.4,48.1c0,4.7-6.6,7.7-13.2,6.8c0,0,5.8-0.1,9.5-3.4c3.6-3.2,3.7-6.8,3.7-7
			C39.4,45.8,39.4,47.1,39.4,48.1z"/>
		<path class="st499" d="M14.1,37.8c-1.9,4.7,7.5,11.4,10.3,11.3c2.9-0.2,9-6,12.2-7.6c3.2-1.6,4.1-8,3.4-8.9
			c-0.7-0.9-11.8-0.2-17.1,1.2S14.1,37.8,14.1,37.8z"/>
		<path class="st499" d="M19.9,13.8c-0.3,1.3,2.8-1.2,12.8,2.7c10,3.9,13-5.8,12.6-9.3C45.1,3.7,26.8-2.4,19.9,13.8z"/>
		<path class="st499" d="M64.6,5.5c-2,0.3-2.2,9.8-2.9,17.4c-0.8,7.6,12.8,5.3,15.4-4.1S64.6,5.5,64.6,5.5z"/>
		<path class="st499" d="M61.7,60.4c-4.1,2.1-4.4,11.2-1.8,15.9c2.6,4.7,13.7-1.7,19.5-9.1c5.8-7.4,3.5-19.9,2.7-20.7
			C81.2,45.8,67.6,57.4,61.7,60.4z"/>
		<path class="st55" d="M33.3,8c-0.3,3.7,4.6,3.5,6.1-0.9C40.8,2.8,33.5,5.2,33.3,8z"/>
		<path class="st55" d="M67.1,12.5c-2.2,0.9,0,2.7,1.5,2.2C70.2,14.1,68.6,11.9,67.1,12.5z"/>
		<path class="st55" d="M17.8,40.6c-1.3,1.7,1.7,3.6,3.8,0.9C23.6,38.8,19,39,17.8,40.6z"/>
		<path class="st500" d="M59.2,61.5c0,0,4.3-0.8,12.2-5.2c7.9-4.4,11.1-13.4,11.1-13.4S74.5,55.3,59.2,61.5z"/>
		<path class="st500" d="M62.4,4.1c0,0,0.5,12.4-4.1,22.5C58.3,26.6,65.4,17.3,62.4,4.1z"/>
		<path class="st500" d="M19.1,12.8c0,0,5.1-8.2,14.2-9C42.4,3,45.6,5.5,45.6,5.5s-3.1-3.9-11.5-3C25.4,3.4,20.6,9.5,19.1,12.8z"/>
		<path class="st500" d="M16.3,36.5c0,0,4.8-2.7,13.3-3.3C38,32.7,40,31.8,40,31.8s-1.7,1.6-8.5,1.8C24.6,33.9,16.3,36.5,16.3,36.5z
			"/>
		<path class="st304" d="M40.8,32.8c-0.7-1.1-5,6.9-5,8.4c0,1.5,2,0.9,3.8-0.5C41.4,39.2,41.1,33.2,40.8,32.8z"/>
		<path class="st55" d="M23.9,18.7c-3.7,0.7-5.3,5.4-4.6,9.6c0.6,4.1,7.5-2.3,8.7-6.1C29.1,18.4,23.9,18.7,23.9,18.7z"/>
		<path class="st241" d="M28.1,32.8c-1.6-0.4,5-7.4,8-7.7c3-0.3,5.7,3.9,5.8,4.3c0.1,0.4-1.3,2.1-7,3C29.2,33.3,28.1,32.8,28.1,32.8
			z"/>
		<path class="st241" d="M67.6,93.8c-0.5-1.8,4.6-8.6,9.8-8.6c3.8,0,1.7,8.2-1,9.1C73.6,95.2,68.7,97.6,67.6,93.8z"/>
		<path class="st55" d="M79.7,36.5c-1.2-1-2.5,6.5-0.9,7.2C80.4,44.4,82.3,38.6,79.7,36.5z"/>
		<path class="st304" d="M83.2,45.3C82.6,43,80.2,62,81,65.6C81.8,69.2,85.8,56,83.2,45.3z"/>
		<path class="st55" d="M62.7,41.5c-0.8,1.4,6.6-4.6,10.2-8.6c3.6-3.9,4.6-8.9,4.6-8.9S64,39.3,62.7,41.5z"/>
		<path class="st55" d="M64.6,81.4c0,0,5.7-2.6,8.3-3.9s5.6-4.8,5.6-4.8s-2.7,2.3-7,4.3C67.3,79.2,64.6,81.4,64.6,81.4z"/>
		<path class="st55" d="M43.4,3.1c0,0,2.6,1.3,3.8,4.5c1.2,3.3,1.4,6.7,1.4,6.7s0.2-5.1-0.8-8C46.8,3.4,43.4,3.1,43.4,3.1z"/>
		<path class="st55" d="M27.1,51.6c0,0,1.9-3,5.6-4.9c3.7-1.9,5.8-3.2,5.8-3.2S30.7,44.7,27.1,51.6z"/>
		<path class="st55" d="M20.4,16.9c0,0,4.8-0.6,7.8,0.8s6.6,4,6.6,4s-4.4-4.8-7.5-5.6C24.2,15.2,20.4,16.9,20.4,16.9z"/>
	</g>
</g>
</svg>
