<?xml version="1.0" encoding="utf-8"?>
<!-- Generator: Adobe Illustrator 22.0.1, SVG Export Plug-In . SVG Version: 6.00 Build 0)  -->
<svg version="1.1" xmlns="http://www.w3.org/2000/svg" xmlns:xlink="http://www.w3.org/1999/xlink" x="0px" y="0px"
	 viewBox="0 0 100 100" style="enable-background:new 0 0 100 100;" xml:space="preserve">
<style type="text/css">
	.st0{clip-path:url(#SVGID_2_);}
	.st1{fill:url(#SVGID_3_);}
	.st2{fill:url(#SVGID_4_);}
	.st3{fill:url(#SVGID_5_);}
	.st4{fill:url(#SVGID_6_);}
	.st5{fill:url(#SVGID_7_);}
	.st6{opacity:0.5;}
	.st7{fill:url(#SVGID_8_);}
	.st8{fill:url(#SVGID_9_);}
	.st9{fill:url(#SVGID_10_);}
	.st10{fill:url(#SVGID_11_);}
	.st11{fill:url(#SVGID_12_);}
	.st12{fill:url(#SVGID_13_);}
	.st13{fill:url(#SVGID_14_);}
	.st14{fill:url(#SVGID_15_);}
	.st15{fill:url(#SVGID_16_);}
	.st16{fill:url(#SVGID_17_);}
	.st17{fill:url(#SVGID_18_);}
	.st18{fill:url(#SVGID_19_);}
	.st19{fill:url(#SVGID_20_);}
	.st20{fill:url(#SVGID_21_);}
	.st21{fill:url(#SVGID_22_);}
	.st22{fill:url(#SVGID_23_);}
	.st23{fill:url(#SVGID_24_);}
	.st24{fill:url(#SVGID_25_);}
	.st25{fill:url(#SVGID_26_);}
	.st26{fill:url(#SVGID_27_);}
	.st27{fill:url(#SVGID_28_);}
	.st28{fill:url(#SVGID_29_);}
	.st29{fill:url(#SVGID_30_);}
	.st30{fill:url(#SVGID_31_);}
	.st31{fill:url(#SVGID_32_);}
	.st32{fill:url(#SVGID_33_);}
	.st33{fill:url(#SVGID_34_);}
	.st34{fill:url(#SVGID_35_);}
	.st35{fill:url(#SVGID_36_);}
	.st36{fill:url(#SVGID_37_);}
	.st37{fill:url(#SVGID_38_);}
	.st38{fill:url(#SVGID_39_);}
	.st39{fill:url(#SVGID_40_);}
	.st40{fill:url(#SVGID_41_);}
	.st41{fill:url(#SVGID_42_);}
	.st42{fill:url(#SVGID_43_);}
	.st43{fill:url(#SVGID_44_);}
	.st44{fill:url(#SVGID_45_);}
	.st45{fill:url(#SVGID_46_);}
	.st46{fill:url(#SVGID_47_);}
	.st47{fill:url(#SVGID_48_);}
	.st48{fill:url(#SVGID_49_);}
	.st49{fill:url(#SVGID_50_);}
	.st50{fill:url(#SVGID_51_);}
	.st51{fill:url(#SVGID_52_);}
	.st52{fill:url(#SVGID_53_);}
	.st53{fill:url(#SVGID_54_);}
	.st54{opacity:0.5;fill:url(#SVGID_55_);}
	.st55{fill:#FFFFFF;}
	.st56{opacity:0.5;fill:url(#SVGID_56_);}
	.st57{opacity:0.3;fill:#6D109D;}
	.st58{opacity:0.3;fill:#FFFFFF;}
	.st59{opacity:0.5;fill:url(#SVGID_57_);}
	.st60{fill:url(#SVGID_58_);}
	.st61{opacity:0.5;fill:url(#SVGID_59_);}
	.st62{opacity:0.5;fill:url(#SVGID_60_);}
	.st63{opacity:0.5;fill:url(#SVGID_61_);}
	.st64{fill:url(#SVGID_62_);}
	.st65{opacity:0.5;fill:url(#SVGID_63_);}
	.st66{opacity:0.5;fill:url(#SVGID_64_);}
	.st67{opacity:0.5;fill:url(#SVGID_65_);}
	.st68{fill:url(#SVGID_66_);}
	.st69{opacity:0.5;fill:url(#SVGID_67_);}
	.st70{opacity:0.5;fill:url(#SVGID_68_);}
	.st71{opacity:0.5;fill:url(#SVGID_69_);}
	.st72{opacity:0.5;fill:url(#SVGID_70_);}
	.st73{opacity:0.5;fill:url(#SVGID_71_);}
	.st74{opacity:0.5;fill:#FFFFFF;}
	.st75{opacity:0.5;fill:url(#SVGID_72_);}
	.st76{opacity:0.5;fill:url(#SVGID_73_);}
	.st77{opacity:0.5;fill:url(#SVGID_74_);}
	.st78{opacity:0.5;fill:url(#SVGID_75_);}
	.st79{opacity:0.5;fill:url(#SVGID_76_);}
	.st80{opacity:0.5;fill:url(#SVGID_77_);}
	.st81{opacity:0.3;fill:url(#SVGID_78_);}
	.st82{opacity:0.3;fill:url(#SVGID_79_);}
	.st83{opacity:0.3;fill:url(#SVGID_80_);}
	.st84{opacity:0.3;fill:url(#SVGID_81_);}
	.st85{opacity:0.3;fill:url(#SVGID_82_);}
	.st86{opacity:0.3;fill:url(#SVGID_83_);}
	.st87{opacity:0.3;fill:url(#SVGID_84_);}
	.st88{opacity:0.3;fill:url(#SVGID_85_);}
	.st89{opacity:0.3;fill:url(#SVGID_86_);}
	.st90{opacity:0.3;fill:url(#SVGID_87_);}
	.st91{opacity:0.3;fill:url(#SVGID_88_);}
	.st92{opacity:0.3;fill:url(#SVGID_89_);}
	.st93{opacity:0.3;fill:url(#SVGID_90_);}
	.st94{opacity:0.3;fill:url(#SVGID_91_);}
	.st95{opacity:0.3;fill:url(#SVGID_92_);}
	.st96{opacity:0.3;fill:url(#SVGID_93_);}
	.st97{opacity:0.3;fill:url(#SVGID_94_);}
	.st98{opacity:0.3;fill:url(#SVGID_95_);}
	.st99{opacity:0.3;fill:url(#SVGID_96_);}
	.st100{opacity:0.3;fill:url(#SVGID_97_);}
	.st101{opacity:0.3;fill:url(#SVGID_98_);}
	.st102{opacity:0.3;fill:url(#SVGID_99_);}
	.st103{opacity:0.3;fill:url(#SVGID_100_);}
	.st104{opacity:0.3;fill:url(#SVGID_101_);}
	.st105{opacity:0.3;fill:url(#SVGID_102_);}
	.st106{opacity:0.3;fill:url(#SVGID_103_);}
	.st107{opacity:0.3;fill:url(#SVGID_104_);}
	.st108{opacity:0.3;fill:url(#SVGID_105_);}
	.st109{opacity:0.3;fill:url(#SVGID_106_);}
	.st110{opacity:0.3;fill:url(#SVGID_107_);}
	.st111{opacity:0.3;fill:url(#SVGID_108_);}
	.st112{opacity:0.3;fill:url(#SVGID_109_);}
	.st113{opacity:0.3;fill:url(#SVGID_110_);}
	.st114{opacity:0.3;fill:url(#SVGID_111_);}
	.st115{opacity:0.3;fill:url(#SVGID_112_);}
	.st116{opacity:0.3;fill:url(#SVGID_113_);}
	.st117{opacity:0.3;fill:url(#SVGID_114_);}
	.st118{opacity:0.3;fill:url(#SVGID_115_);}
	.st119{opacity:0.3;fill:url(#SVGID_116_);}
	.st120{opacity:0.3;fill:url(#SVGID_117_);}
	.st121{fill:#2B0038;}
	.st122{fill:url(#SVGID_118_);}
	.st123{fill:url(#SVGID_119_);}
	.st124{fill:url(#SVGID_120_);}
	.st125{fill:url(#SVGID_121_);}
	.st126{fill:url(#SVGID_122_);}
	.st127{fill:url(#SVGID_123_);}
	.st128{opacity:0.6;fill:#9A1842;}
	.st129{opacity:0.8;fill:#9A2E69;}
	.st130{fill:#8300C0;}
	.st131{fill:url(#SVGID_124_);}
	.st132{opacity:0.4;fill:#D41892;}
	.st133{fill:#FF9650;}
	.st134{fill:url(#SVGID_125_);}
	.st135{fill:url(#SVGID_126_);}
	.st136{fill:url(#SVGID_127_);}
	.st137{fill:url(#SVGID_128_);}
	.st138{opacity:0.4;}
	.st139{fill:#98003B;}
	.st140{fill:#FF7A4A;}
	.st141{fill:#FF924A;}
	.st142{fill:url(#SVGID_129_);}
	.st143{fill:url(#SVGID_130_);}
	.st144{fill:url(#SVGID_131_);}
	.st145{opacity:0.71;fill:#CA6D92;}
	.st146{fill:#FFE3EA;}
	.st147{fill:url(#SVGID_132_);}
	.st148{fill:url(#SVGID_133_);}
	.st149{fill:url(#SVGID_134_);}
	.st150{fill:url(#SVGID_135_);}
	.st151{fill:url(#SVGID_136_);}
	.st152{fill:url(#SVGID_137_);}
	.st153{fill:url(#SVGID_138_);}
	.st154{fill:url(#SVGID_139_);}
	.st155{fill:url(#SVGID_140_);}
	.st156{fill:url(#SVGID_141_);}
	.st157{fill:url(#SVGID_142_);}
	.st158{fill:url(#SVGID_143_);}
	.st159{fill:url(#SVGID_144_);}
	.st160{fill:url(#SVGID_145_);}
	.st161{opacity:0.8;}
	.st162{fill:#9A2E69;}
	.st163{fill:url(#SVGID_146_);}
	.st164{fill:url(#SVGID_147_);}
	.st165{fill:url(#SVGID_148_);}
	.st166{fill:url(#SVGID_149_);}
	.st167{fill:url(#SVGID_150_);}
	.st168{fill:url(#SVGID_151_);}
	.st169{fill:url(#SVGID_152_);}
	.st170{fill:url(#SVGID_153_);}
	.st171{fill:url(#SVGID_154_);}
	.st172{fill:url(#SVGID_155_);}
	.st173{fill:url(#SVGID_156_);}
	.st174{fill:url(#SVGID_157_);}
	.st175{fill:url(#SVGID_158_);}
	.st176{fill:url(#SVGID_159_);}
	.st177{fill:url(#SVGID_160_);}
	.st178{fill:url(#SVGID_161_);}
	.st179{fill:url(#SVGID_162_);}
	.st180{fill:url(#SVGID_163_);}
	.st181{fill:url(#SVGID_164_);}
	.st182{fill:url(#SVGID_165_);}
	.st183{fill:url(#SVGID_166_);}
	.st184{fill:url(#SVGID_167_);}
	.st185{fill:url(#SVGID_168_);}
	.st186{fill:url(#SVGID_169_);}
	.st187{fill:url(#SVGID_170_);}
	.st188{fill:url(#SVGID_171_);}
	.st189{fill:url(#SVGID_172_);}
	.st190{fill:url(#SVGID_173_);}
	.st191{fill:#90DEFF;}
	.st192{opacity:0.5;fill:url(#SVGID_174_);}
	.st193{opacity:0.5;fill:url(#SVGID_175_);}
	.st194{fill:url(#SVGID_176_);}
	.st195{opacity:0.2;fill:#FFFFFF;}
	.st196{fill:#BF77D8;}
	.st197{fill:url(#SVGID_177_);}
	.st198{fill:url(#SVGID_178_);}
	.st199{fill:url(#SVGID_179_);}
	.st200{fill:url(#SVGID_180_);}
	.st201{fill:url(#SVGID_181_);}
	.st202{fill:url(#SVGID_182_);}
	.st203{fill:url(#SVGID_183_);}
	.st204{opacity:0.8;fill:#E72F92;}
	.st205{opacity:0.6;fill:#E72F92;}
	.st206{opacity:0.5;fill:#E72F92;}
	.st207{fill:#FFD8FF;}
	.st208{opacity:0.8;fill:#A6004A;}
	.st209{opacity:0.5;fill:#A6004A;}
	.st210{opacity:0.5;fill:#BD004A;}
	.st211{opacity:0.3;fill:#FFD8FF;}
	.st212{fill:url(#SVGID_184_);}
	.st213{fill:url(#SVGID_185_);}
	.st214{opacity:0.5;fill:#E75992;}
	.st215{opacity:0.5;fill:#FFD8FF;}
	.st216{fill:url(#SVGID_186_);}
	.st217{opacity:0.6;fill:#BF2A92;}
	.st218{fill:#FFB8DF;}
	.st219{opacity:0.5;fill:#D15992;}
	.st220{fill:#FFB895;}
	.st221{fill:#FF938B;}
	.st222{fill:url(#SVGID_187_);}
	.st223{fill:#6D181D;}
	.st224{fill:url(#SVGID_188_);}
	.st225{opacity:0.6;fill:#BF6D92;}
	.st226{opacity:0.7;fill:#BF6D92;}
	.st227{fill:#BF6D92;}
	.st228{opacity:0.5;fill:#FFA7A1;}
	.st229{fill:#FF7A5F;}
	.st230{fill:#A8292F;}
	.st231{opacity:0.6;fill:#CB89A7;}
	.st232{fill:#E0574F;}
	.st233{opacity:0.7;}
	.st234{opacity:0.8;fill:#BF6D92;}
	.st235{opacity:0.3;fill:#BF6D92;}
	.st236{fill:#FFA9A4;}
	.st237{opacity:0.5;fill:#BF6D92;}
	.st238{fill:#FF8189;}
	.st239{fill:url(#SVGID_189_);}
	.st240{fill:url(#SVGID_190_);}
	.st241{opacity:0.2;fill:#E72F92;}
	.st242{opacity:0.5;fill:#FFECA4;}
	.st243{opacity:0.3;fill:#FF6D92;}
	.st244{opacity:0.6;fill:#D41892;}
	.st245{opacity:0.69;fill:#FFECA4;}
	.st246{opacity:0.6;fill:#E77592;}
	.st247{opacity:0.5;fill:#FFFFA4;}
	.st248{fill:#FFECA4;}
	.st249{fill:url(#SVGID_191_);}
	.st250{fill:url(#SVGID_192_);}
	.st251{fill:#FFAE90;}
	.st252{fill:url(#SVGID_193_);}
	.st253{fill:url(#SVGID_194_);}
	.st254{fill:url(#SVGID_195_);}
	.st255{opacity:0.5;fill:#BF2A92;}
	.st256{fill:#BE5548;}
	.st257{opacity:0.8;fill:#BF2A92;}
	.st258{opacity:0.5;fill:#CC7777;}
	.st259{fill:#A74E48;}
	.st260{fill:#F77A77;}
	.st261{opacity:0.3;fill:#BF2A92;}
	.st262{fill:url(#SVGID_196_);}
	.st263{fill:url(#SVGID_197_);}
	.st264{fill:url(#SVGID_198_);}
	.st265{fill:#420714;}
	.st266{fill:url(#SVGID_199_);}
	.st267{fill:url(#SVGID_200_);}
	.st268{fill:url(#SVGID_201_);}
	.st269{fill:url(#SVGID_202_);}
	.st270{opacity:0.5;fill:#F77A77;}
	.st271{fill:#B3424D;}
	.st272{fill:url(#SVGID_203_);}
	.st273{fill:url(#SVGID_204_);}
	.st274{fill:url(#SVGID_205_);}
	.st275{fill:url(#SVGID_206_);}
	.st276{fill:url(#SVGID_207_);}
	.st277{fill:url(#SVGID_208_);}
	.st278{opacity:0.5;fill:#989310;}
	.st279{fill:#B3B35E;}
	.st280{opacity:0.2;fill:#989310;}
	.st281{fill:#DBF15E;}
	.st282{fill:#B3F25E;}
	.st283{fill:url(#SVGID_209_);}
	.st284{fill:#CCE031;}
	.st285{fill:url(#SVGID_210_);}
	.st286{fill:url(#SVGID_211_);}
	.st287{fill:url(#SVGID_212_);}
	.st288{fill:url(#SVGID_213_);}
	.st289{fill:url(#SVGID_214_);}
	.st290{fill:url(#SVGID_215_);}
	.st291{fill:url(#SVGID_216_);}
	.st292{fill:url(#SVGID_217_);}
	.st293{fill:url(#SVGID_218_);}
	.st294{fill:url(#SVGID_219_);}
	.st295{fill:url(#SVGID_220_);}
	.st296{fill:url(#SVGID_221_);}
	.st297{fill:#FF5C7F;}
	.st298{fill:url(#SVGID_222_);}
	.st299{fill:url(#SVGID_223_);}
	.st300{fill:url(#SVGID_224_);}
	.st301{fill:#D65963;}
	.st302{fill:#9A2754;}
	.st303{fill:#FFD9C7;}
	.st304{fill:#B8ABC7;}
	.st305{opacity:0.5;fill:#C23E86;}
	.st306{fill:#FFA67C;}
	.st307{fill:#D8D1E0;}
	.st308{fill:url(#SVGID_225_);}
	.st309{fill:url(#SVGID_226_);}
	.st310{fill:url(#SVGID_227_);}
	.st311{fill:url(#SVGID_228_);}
	.st312{fill:url(#SVGID_229_);}
	.st313{fill:url(#SVGID_230_);}
	.st314{opacity:0.62;fill:#C44C90;}
	.st315{opacity:0.5;fill:#CB1192;}
	.st316{fill:#FFA486;}
	.st317{opacity:0.3;fill:#C61192;}
	.st318{fill:#FF6DA0;}
	.st319{opacity:0.8;fill:#C44790;}
	.st320{opacity:0.5;fill:#C44C90;}
	.st321{opacity:0.7;fill:#C44790;}
	.st322{fill:#FF72AA;}
	.st323{fill:url(#SVGID_231_);}
	.st324{opacity:0.5;fill:#C95459;}
	.st325{fill:url(#SVGID_232_);}
	.st326{fill:url(#SVGID_233_);}
	.st327{fill:url(#SVGID_234_);}
	.st328{fill:url(#SVGID_235_);}
	.st329{fill:url(#SVGID_236_);}
	.st330{fill:url(#SVGID_237_);}
	.st331{fill:url(#SVGID_238_);}
	.st332{fill:url(#SVGID_239_);}
	.st333{fill:url(#SVGID_240_);}
	.st334{fill:url(#SVGID_241_);}
	.st335{fill:url(#SVGID_242_);}
	.st336{fill:url(#SVGID_243_);}
	.st337{fill:url(#SVGID_244_);}
	.st338{fill:url(#SVGID_245_);}
	.st339{opacity:0.2;fill:#CA1B3B;}
	.st340{opacity:0.64;fill:#CC5748;}
	.st341{fill:#B3FF5E;}
	.st342{opacity:0.5;fill:#D31F90;}
	.st343{opacity:0.2;fill:#CA0092;}
	.st344{fill:url(#SVGID_246_);}
	.st345{fill:url(#SVGID_247_);}
	.st346{fill:url(#SVGID_248_);}
	.st347{fill:url(#SVGID_249_);}
	.st348{fill:url(#SVGID_250_);}
	.st349{opacity:0.2;fill:#F2513B;}
	.st350{opacity:0.97;fill:#FFECA4;}
	.st351{fill:#FF956D;}
	.st352{opacity:0.3;fill:#E77592;}
	.st353{opacity:0.36;fill:#E77592;}
	.st354{fill:url(#SVGID_251_);}
	.st355{fill:url(#SVGID_252_);}
	.st356{fill:url(#SVGID_253_);}
	.st357{fill:url(#SVGID_254_);}
	.st358{fill:#AE4648;}
	.st359{fill:url(#SVGID_255_);}
	.st360{fill:url(#SVGID_256_);}
	.st361{fill:#988D89;}
	.st362{fill:#FFB3C7;}
	.st363{fill:#F4837C;}
	.st364{opacity:0.5;fill:#C94CA3;}
	.st365{fill:url(#SVGID_257_);}
	.st366{opacity:0.5;fill:#C0673B;}
	.st367{fill:#A94F37;}
	.st368{fill:url(#SVGID_258_);}
	.st369{fill:url(#SVGID_259_);}
	.st370{fill:url(#SVGID_260_);}
	.st371{fill:url(#SVGID_261_);}
	.st372{fill:url(#SVGID_262_);}
	.st373{fill:url(#SVGID_263_);}
	.st374{fill:url(#SVGID_264_);}
	.st375{opacity:0.64;fill:#DB877C;}
	.st376{opacity:0.2;fill:#DB877C;}
	.st377{fill:#FF9840;}
	.st378{opacity:0.5;fill:#FF956D;}
	.st379{fill:#CD5436;}
	.st380{fill:url(#SVGID_265_);}
	.st381{opacity:0.4;fill:#BB1892;}
	.st382{fill:#A0003B;}
	.st383{fill:url(#SVGID_266_);}
	.st384{opacity:0.64;fill:#DB727C;}
	.st385{fill:url(#SVGID_267_);}
	.st386{fill:url(#SVGID_268_);}
	.st387{opacity:0.6;fill:#C25792;}
	.st388{fill:#FF8140;}
	.st389{fill:#FF6A4D;}
	.st390{fill:url(#SVGID_269_);}
	.st391{fill:url(#SVGID_270_);}
	.st392{fill:url(#SVGID_271_);}
	.st393{fill:url(#SVGID_272_);}
	.st394{fill:url(#SVGID_273_);}
	.st395{fill:url(#SVGID_274_);}
	.st396{fill:url(#SVGID_275_);}
	.st397{fill:url(#SVGID_276_);}
	.st398{fill:url(#SVGID_277_);}
	.st399{fill:url(#SVGID_278_);}
	.st400{fill:url(#SVGID_279_);}
	.st401{opacity:0.5;fill:#CA6D92;}
	.st402{opacity:0.8;fill:#CA0092;}
	.st403{opacity:0.55;fill:#C46581;}
	.st404{fill:url(#SVGID_280_);}
	.st405{opacity:0.55;fill:#FA6D92;}
	.st406{opacity:0.55;fill:#FFD8FF;}
	.st407{fill:url(#SVGID_281_);}
	.st408{fill:#932933;}
	.st409{fill:url(#SVGID_282_);}
	.st410{fill:url(#SVGID_283_);}
	.st411{opacity:0.5;fill:url(#SVGID_284_);}
	.st412{opacity:0.5;fill:url(#SVGID_285_);}
	.st413{fill:#250032;}
	.st414{fill:url(#SVGID_286_);}
	.st415{fill:url(#SVGID_287_);}
	.st416{fill:#FFE0D3;}
	.st417{opacity:0.2;fill:#FE5B92;}
	.st418{fill:url(#SVGID_288_);}
	.st419{opacity:0.71;fill:#CA0092;}
	.st420{fill:#FFDEC7;}
	.st421{fill:#CA0092;}
</style>
<g id="background">
</g>
<g id="layer1">
	<path class="st413" d="M14.5,43.9C0.3,57.5,16.4,93.8,52.2,91.4C88.1,89,98.6,59,88.6,49.2S35.9,23.4,14.5,43.9z"/>
	<g>
		<linearGradient id="SVGID_2_" gradientUnits="userSpaceOnUse" x1="50" y1="72.6306" x2="50" y2="11.0918">
			<stop  offset="0" style="stop-color:#5A161E"/>
			<stop  offset="0.2419" style="stop-color:#611A1F"/>
			<stop  offset="0.5925" style="stop-color:#742621"/>
			<stop  offset="1" style="stop-color:#933824"/>
		</linearGradient>
		<path style="fill:url(#SVGID_2_);" d="M92.2,66.4c-1.8,8.4-83.1,8.1-84.3,0c-0.4-2.8-0.1-6.6,0.6-10.9
			c2.6-16.1,11.2-38.9,12.2-40.9c1.3-2.5,51.2-5.5,55.7-2c3.1,2.4,9.8,24.5,13.4,39.7c0,0,0,0,0,0C91.5,59.5,92.5,65.1,92.2,66.4z"
			/>
		<linearGradient id="SVGID_3_" gradientUnits="userSpaceOnUse" x1="49.3281" y1="68.9317" x2="49.3281" y2="6.5987">
			<stop  offset="0" style="stop-color:#FFAAA4"/>
			<stop  offset="1" style="stop-color:#FFBFC9"/>
		</linearGradient>
		<path class="st1" d="M76.8,49.8C68.7,46.4,65.5,34,58.4,38c-7.2,4.1-2.5,15.8-2.1,22.6c0.4,6.8-3.3,9.5-6.6,7.8
			c-3.4-1.6,2.9-19.7-5.4-20.6c-8.2-1-10.7,11.1-24.6,7.2c-6.9-2-8.5-6.1-9.3-9c-0.3-1.1,0-2.9,0.6-5c0.9-3.3,2.6-7,3.4-9.2
			c0.8-2.2,1.1-8,3.2-13c1.3-3.1,3.4-6,6.9-7.4c18.7-7.9,52.8-5.6,54.8,2.3c0.3,1,0.5,2,0.8,2.9c3,10.8,5.6,17.1,7,21.4v0
			c0.5,1.5,0.8,2.7,1,3.8C89.2,49.8,84.8,53.3,76.8,49.8z"/>
		<path class="st416" d="M20.6,15.3c-0.5,6.4,54.3,12.4,56.2-0.4S21.2,6.2,20.6,15.3z"/>
		<path class="st145" d="M87.2,38c0,0,2.9,10.2-4.7,11.1c-11.6,1.4-13-13.8-20.6-16c-7.6-2.2-7.5,14.5-7.1,17.1
			c0,0-0.4-9.1,4.9-10.8c5.2-1.7,11.7,9.8,18.9,14.8c7.2,5,10-6.9,10-6.9l-0.2-1.6C88.3,45.8,89,43.3,87.2,38z"/>
		<path class="st145" d="M56.2,59.8c0,0,1.1,8.4-4.6,7.8C47,67.1,50.7,53.2,47.9,47c-2.8-6.2-10.4,5.5-18.9,7.3
			c-8.5,1.8-15.8-3.2-18-6.6c0,0-0.2,8.2,11.9,11.9c12.1,3.7,16.2-10.1,21-9.9c7.7,0.3,1.9,16.1,5.8,20.2
			C52.6,72.9,58.1,70.4,56.2,59.8z"/>
		<path class="st417" d="M19.9,16.7c-2.9-0.9-3.6,12-4.2,16.3c-0.5,4.3,10.1,5.3,23.6,3.2c13.4-2.1,22.5-11.4,30.1-11.4
			s8.4-3.2,7.4-5.5c-1-2.2-0.3,1.9-25.9,3.1C25.3,23.8,19.9,16.7,19.9,16.7z"/>
		<path class="st417" d="M34.9,22.1c-6.8-0.7,11.5,10.4,17.9,8.3c6.4-2.1,10.7-6,14.1-7.9C70.3,20.6,46.1,23.3,34.9,22.1z"/>
		<path class="st145" d="M92.2,66.4c-1.8,8.4-83.1,8.1-84.3,0c-0.4-2.8-0.1-6.6,0.6-10.9C7.8,64.3,29,72.7,55.7,71.4
			c26.7-1.4,31.9-5.5,33.7-9.3c1.1-2.4,0.8-6.8,0.4-9.6C91.5,59.5,92.5,65.1,92.2,66.4z"/>
		<path class="st145" d="M15.7,31.2c-1.3,3.4-3.2,6-4.6,9.9c0.9-3.3,2.6-7,3.4-9.2c0.8-2.2,1.1-8,3.2-13c0,0.1,0,0.2,0,0.3
			C15.7,25.8,17,27.9,15.7,31.2z"/>
		<path class="st145" d="M87.2,38L87.2,38c0,0-2.8-4.6-4.2-9.6c-1.4-5-2.8-11.8-2.8-11.8C83.1,27.4,85.8,33.8,87.2,38z"/>
		<path class="st362" d="M74.2,28.7c-9,0.2-1.7,18.3,4.2,20.2c5.9,1.9,8.7-1.8,8.7-8.9S75.2,28.7,74.2,28.7z"/>
		<path class="st362" d="M44.5,41.9C43.6,44.5,34.4,56.5,23,53.5c-11.4-3.1-12.3-7.3-10.4-12.4c1.9-5,14.7-3.2,24.7-4.6
			C47.3,35.1,45.9,37.4,44.5,41.9z"/>
		<path class="st55" d="M84.1,38c-2.1-1.1-2.7,4.5,0,5.1C86.9,43.7,85.5,38.7,84.1,38z"/>
		<path class="st362" d="M53.3,58.1c-1.2-0.2-1.5,3.4,0,4.5C54.9,63.6,56.1,58.5,53.3,58.1z"/>
		<path class="st55" d="M24.3,45c-1.4,1.6,1.2,5.1,3.5,2.3C30,44.6,26.8,42.2,24.3,45z"/>
		<path class="st211" d="M59.6,39.5c-3,2.8-1.8,23.8-1.6,26.7c0.3,2.9,11.3,4,22.2,0s0.6-12-7.8-18.8C64,40.6,61.1,38.1,59.6,39.5z"
			/>
		<linearGradient id="SVGID_4_" gradientUnits="userSpaceOnUse" x1="48.8872" y1="22.3435" x2="48.8872" y2="1.525">
			<stop  offset="0" style="stop-color:#FF0901"/>
			<stop  offset="6.425381e-02" style="stop-color:#F70905"/>
			<stop  offset="0.488" style="stop-color:#C90A1B"/>
			<stop  offset="0.8137" style="stop-color:#AC0B29"/>
			<stop  offset="1" style="stop-color:#A10B2E"/>
		</linearGradient>
		<path class="st2" d="M59.9,6.8c9-12.3,16.7,0.1,16.9,4.3c0.3,7-20.7,14.6-43,9.7c-14.7-3.2-15.2-10.6-9.2-15.9
			c6-5.3,32.7-2.9,40.1,2.8c7.4,5.6-20.5,7.3-25.7,4s1-4.8,3.8-5.1c2.9-0.3,8.4,3.7,13.5,2.4c5-1.3-13.6-2.2-21.2,0.7
			s-1.3,7.5,15.5,5.5c16.8-2,17.4-3.6,17.5-5.9C68.2,7,59.9,6.8,59.9,6.8z"/>
		<path class="st402" d="M32.6,13.6c-1.1-2,4.4-3.9,4.4-3.9s-0.1-2.3,4.1-3.1c4.2-0.8,6.5,1.2,6.5,1.2s7.6-0.4,9.4,0.9
			c0,0,2.1-0.7,2.5-2.3C60,4.8,46.9,1.6,36.4,2.8C25.8,4.1,28.8,12.1,32.6,13.6z"/>
		<path class="st402" d="M60.8,5.6L64,7.2c0,0,2.3,1.1,3.2,2.5c0.9,1.4-3.5,3.3-3.5,3.3s10-0.8,8.7-6.1C71.1,1.5,60.8,5.6,60.8,5.6z
			"/>
		<path class="st419" d="M21,11.1c0,0,6.9,11.3,30,10.7c23.1-0.6,25.7-11,25.7-11s1.4,0.4,1.5,1.2c0.1,0.8-8,10.8-29.4,11.3
			c-21.4,0.5-29.2-6.7-28.9-7.7c0.4-1,1.3-1.9,1.3-1.9L21,11.1z"/>
		<path class="st362" d="M22.7,8.1c-0.5,3.4,2.7-1.7,9.8-4.3C39.7,1.2,23.6,1.1,22.7,8.1z"/>
		<path class="st362" d="M40.1,7.3c-4.3,2.1,2.3,4.5,9.6,5.1C57,13,63.5,9.2,63.9,7.9s-2.7-2.8-3.5-1.8c-0.7,0.9-3.4,3.1-7.2,3.3
			c-3.8,0.2-5.4-2.2-8.9-2.7C40.8,6.3,40.1,7.3,40.1,7.3z"/>
		<path class="st420" d="M39.9,16.1c-3.5,3.5,12,6.5,21.5,4.3c9.4-2.2,12.1-6.9,12.7-9.3c0.6-2.4-4.7,0.3-13.1,2.5
			S40.8,15.2,39.9,16.1z"/>
		<path class="st420" d="M64.2,3c-0.7,1.2,3.8-0.2,7,2s0.4-3.3-2.5-3.4C65.8,1.5,64.2,3,64.2,3z"/>
		<path class="st421" d="M38.2,11.2c0,0,7,2.1,15.1,1.8c8.1-0.3,12.3-2.6,12.3-2.6s-0.8,3.5-13.9,4.3C38.6,15.5,38.2,11.2,38.2,11.2
			z"/>
		<path class="st55" d="M69.3,14.2c-1.5-0.2,1-2.2,2.7-2.3C73.8,11.9,74,14.8,69.3,14.2z"/>
		<path class="st55" d="M25.9,4.5c-1.1,0.8-0.3,2.4,2.4,0.6C29.5,4.4,28.4,2.7,25.9,4.5z"/>
		<path class="st55" d="M40.9,8.5c-0.6-0.3,1.7-1.6,3.1-0.6C45.4,9,41.6,8.9,40.9,8.5z"/>
	</g>
</g>
</svg>
