<?xml version="1.0" encoding="utf-8"?>
<!-- Generator: Adobe Illustrator 22.0.1, SVG Export Plug-In . SVG Version: 6.00 Build 0)  -->
<svg version="1.1" xmlns="http://www.w3.org/2000/svg" xmlns:xlink="http://www.w3.org/1999/xlink" x="0px" y="0px"
	 viewBox="0 0 100 100" style="enable-background:new 0 0 100 100;" xml:space="preserve">
<style type="text/css">
	.st0{clip-path:url(#SVGID_2_);}
	.st1{fill:url(#SVGID_3_);}
	.st2{fill:url(#SVGID_4_);}
	.st3{fill:url(#SVGID_5_);}
	.st4{fill:url(#SVGID_6_);}
	.st5{fill:url(#SVGID_7_);}
	.st6{opacity:0.5;}
	.st7{fill:url(#SVGID_8_);}
	.st8{fill:url(#SVGID_9_);}
	.st9{fill:url(#SVGID_10_);}
	.st10{fill:url(#SVGID_11_);}
	.st11{fill:url(#SVGID_12_);}
	.st12{fill:url(#SVGID_13_);}
	.st13{fill:url(#SVGID_14_);}
	.st14{fill:url(#SVGID_15_);}
	.st15{fill:url(#SVGID_16_);}
	.st16{fill:url(#SVGID_17_);}
	.st17{fill:url(#SVGID_18_);}
	.st18{fill:url(#SVGID_19_);}
	.st19{fill:url(#SVGID_20_);}
	.st20{fill:url(#SVGID_21_);}
	.st21{fill:url(#SVGID_22_);}
	.st22{fill:url(#SVGID_23_);}
	.st23{fill:url(#SVGID_24_);}
	.st24{fill:url(#SVGID_25_);}
	.st25{fill:url(#SVGID_26_);}
	.st26{fill:url(#SVGID_27_);}
	.st27{fill:url(#SVGID_28_);}
	.st28{fill:url(#SVGID_29_);}
	.st29{fill:url(#SVGID_30_);}
	.st30{fill:url(#SVGID_31_);}
	.st31{fill:url(#SVGID_32_);}
	.st32{fill:url(#SVGID_33_);}
	.st33{fill:url(#SVGID_34_);}
	.st34{fill:url(#SVGID_35_);}
	.st35{fill:url(#SVGID_36_);}
	.st36{fill:url(#SVGID_37_);}
	.st37{fill:url(#SVGID_38_);}
	.st38{fill:url(#SVGID_39_);}
	.st39{fill:url(#SVGID_40_);}
	.st40{fill:url(#SVGID_41_);}
	.st41{fill:url(#SVGID_42_);}
	.st42{fill:url(#SVGID_43_);}
	.st43{fill:url(#SVGID_44_);}
	.st44{fill:url(#SVGID_45_);}
	.st45{fill:url(#SVGID_46_);}
	.st46{fill:url(#SVGID_47_);}
	.st47{fill:url(#SVGID_48_);}
	.st48{fill:url(#SVGID_49_);}
	.st49{fill:url(#SVGID_50_);}
	.st50{fill:url(#SVGID_51_);}
	.st51{fill:url(#SVGID_52_);}
	.st52{fill:url(#SVGID_53_);}
	.st53{fill:url(#SVGID_54_);}
	.st54{opacity:0.5;fill:url(#SVGID_55_);}
	.st55{fill:#FFFFFF;}
	.st56{opacity:0.5;fill:url(#SVGID_56_);}
	.st57{opacity:0.3;fill:#6D109D;}
	.st58{opacity:0.3;fill:#FFFFFF;}
	.st59{opacity:0.5;fill:url(#SVGID_57_);}
	.st60{fill:url(#SVGID_58_);}
	.st61{opacity:0.5;fill:url(#SVGID_59_);}
	.st62{opacity:0.5;fill:url(#SVGID_60_);}
	.st63{opacity:0.5;fill:url(#SVGID_61_);}
	.st64{fill:url(#SVGID_62_);}
	.st65{opacity:0.5;fill:url(#SVGID_63_);}
	.st66{opacity:0.5;fill:url(#SVGID_64_);}
	.st67{opacity:0.5;fill:url(#SVGID_65_);}
	.st68{fill:url(#SVGID_66_);}
	.st69{opacity:0.5;fill:url(#SVGID_67_);}
	.st70{opacity:0.5;fill:url(#SVGID_68_);}
	.st71{opacity:0.5;fill:url(#SVGID_69_);}
	.st72{opacity:0.5;fill:url(#SVGID_70_);}
	.st73{opacity:0.5;fill:url(#SVGID_71_);}
	.st74{opacity:0.5;fill:#FFFFFF;}
	.st75{opacity:0.5;fill:url(#SVGID_72_);}
	.st76{opacity:0.5;fill:url(#SVGID_73_);}
	.st77{opacity:0.5;fill:url(#SVGID_74_);}
	.st78{opacity:0.5;fill:url(#SVGID_75_);}
	.st79{opacity:0.5;fill:url(#SVGID_76_);}
	.st80{opacity:0.5;fill:url(#SVGID_77_);}
	.st81{opacity:0.3;fill:url(#SVGID_78_);}
	.st82{opacity:0.3;fill:url(#SVGID_79_);}
	.st83{opacity:0.3;fill:url(#SVGID_80_);}
	.st84{opacity:0.3;fill:url(#SVGID_81_);}
	.st85{opacity:0.3;fill:url(#SVGID_82_);}
	.st86{opacity:0.3;fill:url(#SVGID_83_);}
	.st87{opacity:0.3;fill:url(#SVGID_84_);}
	.st88{opacity:0.3;fill:url(#SVGID_85_);}
	.st89{opacity:0.3;fill:url(#SVGID_86_);}
	.st90{opacity:0.3;fill:url(#SVGID_87_);}
	.st91{opacity:0.3;fill:url(#SVGID_88_);}
	.st92{opacity:0.3;fill:url(#SVGID_89_);}
	.st93{opacity:0.3;fill:url(#SVGID_90_);}
	.st94{opacity:0.3;fill:url(#SVGID_91_);}
	.st95{opacity:0.3;fill:url(#SVGID_92_);}
	.st96{opacity:0.3;fill:url(#SVGID_93_);}
	.st97{opacity:0.3;fill:url(#SVGID_94_);}
	.st98{opacity:0.3;fill:url(#SVGID_95_);}
	.st99{opacity:0.3;fill:url(#SVGID_96_);}
	.st100{opacity:0.3;fill:url(#SVGID_97_);}
	.st101{opacity:0.3;fill:url(#SVGID_98_);}
	.st102{opacity:0.3;fill:url(#SVGID_99_);}
	.st103{opacity:0.3;fill:url(#SVGID_100_);}
	.st104{opacity:0.3;fill:url(#SVGID_101_);}
	.st105{opacity:0.3;fill:url(#SVGID_102_);}
	.st106{opacity:0.3;fill:url(#SVGID_103_);}
	.st107{opacity:0.3;fill:url(#SVGID_104_);}
	.st108{opacity:0.3;fill:url(#SVGID_105_);}
	.st109{opacity:0.3;fill:url(#SVGID_106_);}
	.st110{opacity:0.3;fill:url(#SVGID_107_);}
	.st111{opacity:0.3;fill:url(#SVGID_108_);}
	.st112{opacity:0.3;fill:url(#SVGID_109_);}
	.st113{opacity:0.3;fill:url(#SVGID_110_);}
	.st114{opacity:0.3;fill:url(#SVGID_111_);}
	.st115{opacity:0.3;fill:url(#SVGID_112_);}
	.st116{opacity:0.3;fill:url(#SVGID_113_);}
	.st117{opacity:0.3;fill:url(#SVGID_114_);}
	.st118{opacity:0.3;fill:url(#SVGID_115_);}
	.st119{opacity:0.3;fill:url(#SVGID_116_);}
	.st120{opacity:0.3;fill:url(#SVGID_117_);}
	.st121{fill:#2B0038;}
	.st122{fill:url(#SVGID_118_);}
	.st123{fill:url(#SVGID_119_);}
	.st124{fill:url(#SVGID_120_);}
	.st125{fill:url(#SVGID_121_);}
	.st126{fill:url(#SVGID_122_);}
	.st127{fill:url(#SVGID_123_);}
	.st128{opacity:0.6;fill:#9A1842;}
	.st129{opacity:0.8;fill:#9A2E69;}
	.st130{fill:#8300C0;}
	.st131{fill:url(#SVGID_124_);}
	.st132{opacity:0.4;fill:#D41892;}
	.st133{fill:#FF9650;}
	.st134{fill:url(#SVGID_125_);}
	.st135{fill:url(#SVGID_126_);}
	.st136{fill:url(#SVGID_127_);}
	.st137{fill:url(#SVGID_128_);}
	.st138{opacity:0.4;}
	.st139{fill:#98003B;}
	.st140{fill:#FF7A4A;}
	.st141{fill:#FF924A;}
	.st142{fill:url(#SVGID_129_);}
	.st143{fill:url(#SVGID_130_);}
	.st144{fill:url(#SVGID_131_);}
	.st145{opacity:0.71;fill:#CA6D92;}
	.st146{fill:#FFE3EA;}
	.st147{fill:url(#SVGID_132_);}
	.st148{fill:url(#SVGID_133_);}
	.st149{fill:url(#SVGID_134_);}
	.st150{fill:url(#SVGID_135_);}
	.st151{fill:url(#SVGID_136_);}
	.st152{fill:url(#SVGID_137_);}
	.st153{fill:url(#SVGID_138_);}
	.st154{fill:url(#SVGID_139_);}
	.st155{fill:url(#SVGID_140_);}
	.st156{fill:url(#SVGID_141_);}
	.st157{fill:url(#SVGID_142_);}
	.st158{fill:url(#SVGID_143_);}
	.st159{fill:url(#SVGID_144_);}
	.st160{fill:url(#SVGID_145_);}
	.st161{opacity:0.8;}
	.st162{fill:#9A2E69;}
	.st163{fill:url(#SVGID_146_);}
	.st164{fill:url(#SVGID_147_);}
	.st165{fill:url(#SVGID_148_);}
	.st166{fill:url(#SVGID_149_);}
	.st167{fill:url(#SVGID_150_);}
	.st168{fill:url(#SVGID_151_);}
	.st169{fill:url(#SVGID_152_);}
	.st170{fill:url(#SVGID_153_);}
	.st171{fill:url(#SVGID_154_);}
	.st172{fill:url(#SVGID_155_);}
	.st173{fill:url(#SVGID_156_);}
	.st174{fill:url(#SVGID_157_);}
	.st175{fill:url(#SVGID_158_);}
	.st176{fill:url(#SVGID_159_);}
	.st177{fill:url(#SVGID_160_);}
	.st178{fill:url(#SVGID_161_);}
	.st179{fill:url(#SVGID_162_);}
	.st180{fill:url(#SVGID_163_);}
	.st181{fill:url(#SVGID_164_);}
	.st182{fill:url(#SVGID_165_);}
	.st183{fill:url(#SVGID_166_);}
	.st184{fill:url(#SVGID_167_);}
	.st185{fill:url(#SVGID_168_);}
	.st186{fill:url(#SVGID_169_);}
	.st187{fill:url(#SVGID_170_);}
	.st188{fill:url(#SVGID_171_);}
	.st189{fill:url(#SVGID_172_);}
	.st190{fill:url(#SVGID_173_);}
	.st191{fill:#90DEFF;}
	.st192{opacity:0.5;fill:url(#SVGID_174_);}
	.st193{opacity:0.5;fill:url(#SVGID_175_);}
	.st194{fill:url(#SVGID_176_);}
	.st195{opacity:0.2;fill:#FFFFFF;}
	.st196{fill:#BF77D8;}
	.st197{fill:url(#SVGID_177_);}
	.st198{fill:url(#SVGID_178_);}
	.st199{fill:url(#SVGID_179_);}
	.st200{fill:url(#SVGID_180_);}
	.st201{fill:url(#SVGID_181_);}
	.st202{fill:url(#SVGID_182_);}
	.st203{fill:url(#SVGID_183_);}
	.st204{opacity:0.8;fill:#E72F92;}
	.st205{opacity:0.6;fill:#E72F92;}
	.st206{opacity:0.5;fill:#E72F92;}
	.st207{fill:#FFD8FF;}
	.st208{opacity:0.8;fill:#A6004A;}
	.st209{opacity:0.5;fill:#A6004A;}
	.st210{opacity:0.5;fill:#BD004A;}
	.st211{opacity:0.3;fill:#FFD8FF;}
	.st212{fill:url(#SVGID_184_);}
	.st213{fill:url(#SVGID_185_);}
	.st214{opacity:0.5;fill:#E75992;}
	.st215{opacity:0.5;fill:#FFD8FF;}
	.st216{fill:url(#SVGID_186_);}
	.st217{opacity:0.6;fill:#BF2A92;}
	.st218{fill:#FFB8DF;}
	.st219{opacity:0.5;fill:#D15992;}
	.st220{fill:#FFB895;}
	.st221{fill:#FF938B;}
	.st222{fill:url(#SVGID_187_);}
	.st223{fill:#6D181D;}
	.st224{fill:url(#SVGID_188_);}
	.st225{opacity:0.6;fill:#BF6D92;}
	.st226{opacity:0.7;fill:#BF6D92;}
	.st227{fill:#BF6D92;}
	.st228{opacity:0.5;fill:#FFA7A1;}
	.st229{fill:#FF7A5F;}
	.st230{fill:#A8292F;}
	.st231{opacity:0.6;fill:#CB89A7;}
	.st232{fill:#E0574F;}
	.st233{opacity:0.7;}
	.st234{opacity:0.8;fill:#BF6D92;}
	.st235{opacity:0.3;fill:#BF6D92;}
	.st236{fill:#FFA9A4;}
	.st237{opacity:0.5;fill:#BF6D92;}
	.st238{fill:#FF8189;}
	.st239{fill:url(#SVGID_189_);}
	.st240{fill:url(#SVGID_190_);}
	.st241{opacity:0.2;fill:#E72F92;}
	.st242{opacity:0.5;fill:#FFECA4;}
	.st243{opacity:0.3;fill:#FF6D92;}
	.st244{opacity:0.6;fill:#D41892;}
	.st245{opacity:0.69;fill:#FFECA4;}
	.st246{opacity:0.6;fill:#E77592;}
	.st247{opacity:0.5;fill:#FFFFA4;}
	.st248{fill:#FFECA4;}
	.st249{fill:url(#SVGID_191_);}
	.st250{fill:url(#SVGID_192_);}
	.st251{fill:#FFAE90;}
	.st252{fill:url(#SVGID_193_);}
	.st253{fill:url(#SVGID_194_);}
	.st254{fill:url(#SVGID_195_);}
	.st255{opacity:0.5;fill:#BF2A92;}
	.st256{fill:#BE5548;}
	.st257{opacity:0.8;fill:#BF2A92;}
	.st258{opacity:0.5;fill:#CC7777;}
	.st259{fill:#A74E48;}
	.st260{fill:#F77A77;}
	.st261{opacity:0.3;fill:#BF2A92;}
	.st262{fill:url(#SVGID_196_);}
	.st263{fill:url(#SVGID_197_);}
	.st264{fill:url(#SVGID_198_);}
	.st265{fill:#420714;}
	.st266{fill:url(#SVGID_199_);}
	.st267{fill:url(#SVGID_200_);}
	.st268{fill:url(#SVGID_201_);}
	.st269{fill:url(#SVGID_202_);}
	.st270{opacity:0.5;fill:#F77A77;}
	.st271{fill:#B3424D;}
	.st272{fill:url(#SVGID_203_);}
	.st273{fill:url(#SVGID_204_);}
	.st274{opacity:0.57;fill:#E33292;}
	.st275{fill:#FF75C7;}
	.st276{fill:url(#SVGID_205_);}
	.st277{opacity:0.8;fill:#E50092;}
	.st278{fill:#FFB3C7;}
	.st279{opacity:0.5;fill:#E33292;}
	.st280{fill:#E50092;}
	.st281{fill:url(#SVGID_206_);}
	.st282{fill:#FF8B9A;}
	.st283{fill:url(#SVGID_207_);}
	.st284{fill:url(#SVGID_208_);}
	.st285{fill:url(#SVGID_209_);}
	.st286{fill:url(#SVGID_210_);}
	.st287{fill:url(#SVGID_211_);}
	.st288{opacity:0.5;fill:#989310;}
	.st289{fill:#B3B35E;}
	.st290{opacity:0.2;fill:#989310;}
	.st291{fill:#DBF15E;}
	.st292{fill:#B3F25E;}
	.st293{fill:url(#SVGID_212_);}
	.st294{fill:#CCE031;}
	.st295{fill:url(#SVGID_213_);}
	.st296{fill:url(#SVGID_214_);}
	.st297{fill:url(#SVGID_215_);}
	.st298{fill:url(#SVGID_216_);}
	.st299{fill:url(#SVGID_217_);}
	.st300{fill:#FFE0D3;}
	.st301{opacity:0.2;fill:#FE5B92;}
	.st302{fill:url(#SVGID_218_);}
	.st303{opacity:0.8;fill:#CA0092;}
	.st304{opacity:0.71;fill:#CA0092;}
	.st305{fill:#FFDEC7;}
	.st306{fill:#CA0092;}
	.st307{fill:url(#SVGID_219_);}
	.st308{fill:url(#SVGID_220_);}
	.st309{fill:url(#SVGID_221_);}
	.st310{fill:url(#SVGID_222_);}
	.st311{fill:url(#SVGID_223_);}
	.st312{fill:url(#SVGID_224_);}
	.st313{fill:url(#SVGID_225_);}
	.st314{fill:url(#SVGID_226_);}
	.st315{fill:url(#SVGID_227_);}
	.st316{fill:#FF5C7F;}
	.st317{fill:url(#SVGID_228_);}
	.st318{fill:url(#SVGID_229_);}
	.st319{fill:url(#SVGID_230_);}
	.st320{fill:#D65963;}
	.st321{fill:#9A2754;}
	.st322{fill:#FFD9C7;}
	.st323{fill:#B8ABC7;}
	.st324{opacity:0.5;fill:#C23E86;}
	.st325{fill:#FFA67C;}
	.st326{fill:#D8D1E0;}
	.st327{fill:url(#SVGID_231_);}
	.st328{fill:url(#SVGID_232_);}
	.st329{fill:url(#SVGID_233_);}
	.st330{fill:url(#SVGID_234_);}
	.st331{fill:url(#SVGID_235_);}
	.st332{fill:url(#SVGID_236_);}
	.st333{opacity:0.62;fill:#C44C90;}
	.st334{opacity:0.5;fill:#CB1192;}
	.st335{fill:#FFA486;}
	.st336{opacity:0.3;fill:#C61192;}
	.st337{fill:#FF6DA0;}
	.st338{opacity:0.8;fill:#C44790;}
	.st339{opacity:0.5;fill:#C44C90;}
	.st340{opacity:0.7;fill:#C44790;}
	.st341{fill:#FF72AA;}
	.st342{fill:url(#SVGID_237_);}
	.st343{opacity:0.5;fill:#C95459;}
	.st344{fill:url(#SVGID_238_);}
	.st345{fill:url(#SVGID_239_);}
	.st346{fill:url(#SVGID_240_);}
	.st347{opacity:0.2;fill:#FFD8FF;}
	.st348{fill:#893537;}
	.st349{fill:#9D4648;}
	.st350{fill:url(#SVGID_241_);}
	.st351{fill:#FFC1A7;}
	.st352{fill:#FFAA86;}
	.st353{fill:#FFAB9F;}
	.st354{fill:url(#SVGID_242_);}
	.st355{opacity:0.5;fill:#C0673B;}
	.st356{fill:#A94F37;}
	.st357{fill:url(#SVGID_243_);}
	.st358{fill:url(#SVGID_244_);}
	.st359{fill:url(#SVGID_245_);}
	.st360{fill:url(#SVGID_246_);}
	.st361{fill:url(#SVGID_247_);}
	.st362{fill:url(#SVGID_248_);}
	.st363{fill:url(#SVGID_249_);}
	.st364{fill:url(#SVGID_250_);}
	.st365{fill:url(#SVGID_251_);}
	.st366{fill:url(#SVGID_252_);}
	.st367{fill:url(#SVGID_253_);}
	.st368{fill:url(#SVGID_254_);}
	.st369{opacity:0.2;fill:#CA1B3B;}
	.st370{opacity:0.64;fill:#CC5748;}
	.st371{fill:#B3FF5E;}
	.st372{opacity:0.5;fill:#D31F90;}
	.st373{opacity:0.2;fill:#CA0092;}
	.st374{fill:url(#SVGID_255_);}
	.st375{fill:url(#SVGID_256_);}
	.st376{fill:url(#SVGID_257_);}
	.st377{fill:url(#SVGID_258_);}
	.st378{fill:url(#SVGID_259_);}
	.st379{opacity:0.2;fill:#F2513B;}
	.st380{opacity:0.97;fill:#FFECA4;}
	.st381{fill:#FF956D;}
	.st382{opacity:0.3;fill:#E77592;}
	.st383{opacity:0.36;fill:#E77592;}
	.st384{fill:url(#SVGID_260_);}
	.st385{fill:url(#SVGID_261_);}
	.st386{fill:url(#SVGID_262_);}
	.st387{fill:url(#SVGID_263_);}
	.st388{fill:#AE4648;}
	.st389{fill:url(#SVGID_264_);}
	.st390{fill:url(#SVGID_265_);}
	.st391{fill:#988D89;}
	.st392{fill:#F4837C;}
	.st393{opacity:0.5;fill:#C94CA3;}
	.st394{fill:url(#SVGID_266_);}
	.st395{fill:url(#SVGID_267_);}
	.st396{fill:url(#SVGID_268_);}
	.st397{fill:url(#SVGID_269_);}
	.st398{fill:url(#SVGID_270_);}
	.st399{fill:url(#SVGID_271_);}
	.st400{fill:url(#SVGID_272_);}
	.st401{fill:url(#SVGID_273_);}
	.st402{opacity:0.64;fill:#DB877C;}
	.st403{opacity:0.2;fill:#DB877C;}
	.st404{fill:#FF9840;}
	.st405{opacity:0.5;fill:#FF956D;}
	.st406{fill:#CD5436;}
	.st407{fill:url(#SVGID_274_);}
	.st408{opacity:0.4;fill:#BB1892;}
	.st409{fill:#A0003B;}
	.st410{fill:url(#SVGID_275_);}
	.st411{opacity:0.64;fill:#DB727C;}
	.st412{fill:url(#SVGID_276_);}
	.st413{fill:url(#SVGID_277_);}
	.st414{opacity:0.6;fill:#C25792;}
	.st415{fill:#FF8140;}
	.st416{fill:#FF6A4D;}
	.st417{fill:url(#SVGID_278_);}
	.st418{fill:url(#SVGID_279_);}
	.st419{fill:url(#SVGID_280_);}
	.st420{fill:url(#SVGID_281_);}
	.st421{fill:url(#SVGID_282_);}
	.st422{fill:url(#SVGID_283_);}
	.st423{fill:url(#SVGID_284_);}
	.st424{fill:url(#SVGID_285_);}
	.st425{fill:url(#SVGID_286_);}
	.st426{fill:url(#SVGID_287_);}
	.st427{fill:url(#SVGID_288_);}
	.st428{opacity:0.5;fill:#CA6D92;}
	.st429{opacity:0.55;fill:#C46581;}
	.st430{fill:url(#SVGID_289_);}
	.st431{opacity:0.55;fill:#FA6D92;}
	.st432{opacity:0.55;fill:#FFD8FF;}
	.st433{fill:url(#SVGID_290_);}
	.st434{fill:#932933;}
	.st435{fill:url(#SVGID_291_);}
	.st436{fill:url(#SVGID_292_);}
	.st437{fill:url(#SVGID_293_);}
	.st438{fill:url(#SVGID_294_);}
	.st439{fill:url(#SVGID_295_);}
	.st440{fill:#FFA5A4;}
	.st441{fill:#FF837C;}
	.st442{fill:url(#SVGID_296_);}
	.st443{fill:url(#SVGID_297_);}
	.st444{fill:#B3725E;}
	.st445{opacity:0.5;fill:#B3FF5E;}
	.st446{opacity:0.3;fill:#CC5748;}
	.st447{fill:#FFD1B1;}
	.st448{fill:#89242F;}
	.st449{fill:#9F3537;}
	.st450{fill:#F47E37;}
	.st451{fill:#F48D4A;}
	.st452{fill:url(#SVGID_298_);}
	.st453{fill:url(#SVGID_299_);}
	.st454{fill:#C25437;}
	.st455{fill:#F4AC44;}
	.st456{fill:#812137;}
	.st457{fill:#E75792;}
	.st458{fill:url(#SVGID_300_);}
	.st459{opacity:0.3;fill:#912774;}
	.st460{opacity:0.5;fill:#FFEFFF;}
	.st461{opacity:0.2;fill:#A85592;}
	.st462{fill:#FF77FF;}
	.st463{fill:#880000;}
	.st464{fill:#FF4D51;}
	.st465{opacity:0.5;fill:url(#SVGID_301_);}
	.st466{opacity:0.5;fill:url(#SVGID_302_);}
	.st467{fill:#250032;}
	.st468{fill:url(#SVGID_303_);}
	.st469{fill:url(#SVGID_304_);}
	.st470{opacity:0.5;fill:#E06E00;}
	.st471{fill:url(#SVGID_305_);}
	.st472{fill:#FFE250;}
	.st473{opacity:0.3;fill:#C62792;}
	.st474{fill:url(#SVGID_306_);}
	.st475{opacity:0.5;fill:#FF5410;}
	.st476{fill:url(#SVGID_307_);}
</style>
<g id="background">
</g>
<g id="layer1">
	<path class="st467" d="M29.4,38.5C19.2,54.1,30.8,96,56.6,93.2c25.8-2.8,33.4-37.3,26.2-48.6C75.6,33.4,44.8,14.9,29.4,38.5z"/>
	<g>
		<linearGradient id="SVGID_2_" gradientUnits="userSpaceOnUse" x1="56.0901" y1="80.338" x2="56.0901" y2="2.2629">
			<stop  offset="0" style="stop-color:#FF5900"/>
			<stop  offset="0.1596" style="stop-color:#FF5E00"/>
			<stop  offset="0.3378" style="stop-color:#FF6B00"/>
			<stop  offset="0.525" style="stop-color:#FF8100"/>
			<stop  offset="0.7172" style="stop-color:#FFA000"/>
			<stop  offset="0.7737" style="stop-color:#FFAB00"/>
			<stop  offset="0.8755" style="stop-color:#FFCE00"/>
			<stop  offset="1" style="stop-color:#FFFF00"/>
		</linearGradient>
		<path style="fill:url(#SVGID_2_);" d="M84.3,42.8c-0.4,6-2.1,11-4.6,15.2c-7.8,13.2-23,18.8-27.9,20.5c-8.5,3-20.7,1.3-20.7,1.3
			v-0.1L31,77.9L27.8,2.7c0,0,10.9-2.5,29.3,4.2C75.4,13.5,85.2,27.4,84.3,42.8z"/>
		<linearGradient id="SVGID_3_" gradientUnits="userSpaceOnUse" x1="48.5688" y1="79.8402" x2="48.5688" y2="2.597">
			<stop  offset="0" style="stop-color:#FF9500"/>
			<stop  offset="1" style="stop-color:#FFA200"/>
		</linearGradient>
		<path class="st1" d="M71.8,42.4c-1.3,21.3-18.9,32.7-31.4,36.2c-3.7,1-7,1.4-9.3,1.1c-1.7-0.2-2.9-0.8-3.3-1.7
			c-1.1-2.8-2.1-17.5-2.4-33.3c-0.4-20,0.1-41.6,2.4-42C34.1,1.7,73.9,7.4,71.8,42.4z"/>
		<path class="st215" d="M28.5,36.6c1.8,5,26.3-15.3,27.8-18.7c1.5-3.4-18.1-13.1-23.5-10.7C27.3,9.7,27.5,33.9,28.5,36.6z"/>
		<path class="st215" d="M29.7,43.4c-2.3-2.6,24.8-18,28.7-17.4c3.9,0.5,8.8,15.3,4.7,22.9S31.1,44.9,29.7,43.4z"/>
		<path class="st215" d="M29.1,47.3c-2.5,1,0.3,27.4,4.4,29.4c4.1,2,24.7-11.2,24.3-16.7C57.4,54.5,30.9,46.6,29.1,47.3z"/>
		<path class="st470" d="M31.5,73.8c1.2,2.3,8.1,1.6,16.6-4.6s8.5-11.1,8.5-11.1s1.5,1.3,1.5,2.8c0,1.4-6,9-15.2,14.2
			c-5.5,3.1-8.6,3.1-9.5,2.6C32.5,77.1,31.5,73.8,31.5,73.8z"/>
		<path class="st470" d="M29.7,43.4c0,0,16.6,7.9,27.5,6.6c10.8-1.2,6.4-15.9,6.4-15.9s4.1,13.7-1.9,17.4
			C55.7,55.2,34.2,46.3,29.7,43.4z"/>
		<path class="st470" d="M28.5,36.6c0.7,1.5,15.6-8.2,22-13.6c6.4-5.4,4.1-8,4.1-8s1.9,0.8,2.2,2.6c0.4,1.8-14.9,14.7-21,18.2
			C29.7,39.3,29.1,37,28.5,36.6z"/>
		<linearGradient id="SVGID_4_" gradientUnits="userSpaceOnUse" x1="51.4269" y1="80.2681" x2="51.4269" y2="2.265">
			<stop  offset="0" style="stop-color:#FF5E00"/>
			<stop  offset="0.7402" style="stop-color:#FFEA00"/>
			<stop  offset="1" style="stop-color:#FFDC00"/>
		</linearGradient>
		<path class="st2" d="M27.8,2.7c0,0,1.6-0.5,4.4-0.5C35,2.3,72.5,4.2,74.9,40c2.3,34.7-37.3,40.3-38.8,40.3
			c-1.4-0.1-5.1-0.4-5.1-0.4S71.6,75.2,71.8,40C72.1,4.8,33.7,3.2,27.8,2.7z"/>
		<path class="st470" d="M31,44.2c0,0,12.7,4.3,19.8,5.7c7,1.4,8.5,2.4,8.5,2.4s-7.1,1.6-14.4-0.8C37.6,49.1,31,44.2,31,44.2z"/>
		<path class="st470" d="M31.5,73.8c0,0,1.4,1.9,7.6,0.3c6.2-1.6,11.4-6.9,11.4-6.9s-1.3,7-10.3,10.4C32.5,80.6,31.6,77.9,31.5,73.8
			z"/>
		<path class="st470" d="M31,37.4c-1-0.9,12.3-8.4,17.6-13.2c5.2-4.8,8.3-6.1,8.3-6.1s-2.2,5.1-11.4,12.3S31,37.4,31,37.4z"/>
		<path class="st472" d="M30.4,41.6c0,0,15.7-10.8,21.7-13.1s8-1.6,8-1.6s-1.3-1.4-2.3-1.4c-1.1,0-8.2,2.7-16.8,8.5
			S30.4,41.6,30.4,41.6z"/>
		<path class="st472" d="M28.1,33.3c0,0,0.8-20.9,4.2-24.3s10.4-0.5,10.4-0.5s-5.9-3-10.5-1.7C27.6,8.2,28.1,29.6,28.1,33.3z"/>
		<path class="st472" d="M28.5,48.3c1.2-1,21.6,5.1,28.2,9.8c0,0-2.6-2.9-12.8-6.8C33.7,47.4,27.9,45.8,28.5,48.3z"/>
		<path class="st289" d="M29.6,3.5c-2.1,0-3.4,12-3.1,13.9c0.3,1.9-0.5-10.2,7.4-10.8c7.9-0.6,23.5,8.9,24.4,10.1
			c0.9,1.3-1.9,5.6-1.6,6.7c0.3,1.1,3.7,1.9,5.9,5.5c2.1,3.6,4.1,12.7,2.4,19.6c-1.7,6.9-9.9,4.1-9.8,5.6c0.1,1.5,3.9,4.1,4,6.5
			c0.1,2.4-7.4,10.2-7.8,11.5C51,73.3,73.7,61.3,71.8,37.4C69.8,13.6,46.7,3.3,29.6,3.5z"/>
		<path class="st289" d="M34.4,8.5c-3.2,1.4-6.7,22.1-5.2,26.6c1.5,4.5,21.6-12,22.8-17.8S39,6.5,34.4,8.5z"/>
		<path class="st289" d="M31.6,40.7c-1.7,3.6,21.5,10.1,27.3,7.7c5.8-2.4,3-18,0.4-20S33.1,37.7,31.6,40.7z"/>
		<path class="st289" d="M29.6,49.3c-3.6,1.4,3.6,16.2,9.4,18.6c5.8,2.4,13.1-6.6,13.5-9.9C52.9,54.8,32.9,48,29.6,49.3z"/>
		<path class="st473" d="M43.3,78.6c-6.8-0.9,13.2-3.3,22.5-16.5C75,48.9,82.9,50.4,82.9,50.4S73.5,75.3,43.3,78.6z"/>
		<path class="st289" d="M56.9,8.5c-1.3,0.2,10.7,9.4,12.4,12.1c1.8,2.7,10,2.9,10,3C79.3,23.6,70.9,10.2,56.9,8.5z"/>
		<path class="st472" d="M60.7,66.5c0,0,13-10.1,12.2-29c-0.8-18.9-16.8-26.5-16.8-26.5s14.1,8.8,15.8,25.7
			C73.5,53.5,60.7,66.5,60.7,66.5z"/>
		<path class="st371" d="M79.6,58.1c-7.8,13.2-23,18.8-27.9,20.5c-8.5,3-20.7,1.3-20.7,1.3v-0.1c-1.7-0.2-2.9-0.8-3.3-1.7
			c-1.1-2.8-2.1-17.5-2.4-33.3c0.5,7.3,0.4,30.6,3.4,32.5c6.5,4,22.3,0.3,28-1.9C68.9,70.6,79.6,58.1,79.6,58.1z"/>
		<path class="st55" d="M30.8,17.3c-0.1,3.4,3.1-0.1,2.6-2.8C32.9,11.7,30.9,14.4,30.8,17.3z"/>
		<path class="st55" d="M43.2,32.5c-2.3,1.7,2.2,1.6,4.2-0.5C49.4,29.8,46.4,30.1,43.2,32.5z"/>
		<path class="st55" d="M60.3,12.2c-4.1-1.6,1.8,5,5,7.8C68.5,22.7,67.7,15,60.3,12.2z"/>
		<path class="st55" d="M29.6,47.1c-2.5,0.3,1.3,2.1,5.8,2.7C39.9,50.4,32.4,46.8,29.6,47.1z"/>
		<path class="st472" d="M71.1,26.8c-1.1,0.4,1.5,7.4,0.8,14.4c-0.7,7-2.8,13.3-2.4,14.3c0.4,1,4.5-0.5,5.4-10.1
			C75.9,35.8,72.3,26.4,71.1,26.8z"/>
		<path class="st55" d="M28.8,2.5c-3,0.4,2.3,3.7,12.2,2.3C45.9,4.1,40.9,1.7,28.8,2.5z"/>
		<g>
			
				<linearGradient id="SVGID_5_" gradientUnits="userSpaceOnUse" x1="108.37" y1="306.3723" x2="108.37" y2="301.2219" gradientTransform="matrix(0.9215 0.3884 -0.3884 0.9215 88.9287 -293.0439)">
				<stop  offset="0" style="stop-color:#FFDC00"/>
				<stop  offset="1" style="stop-color:#FF5900"/>
			</linearGradient>
			<path class="st3" d="M70.8,26.3c-2.4-0.2-4.6,4-0.3,5.3C74.7,32.9,73.3,26.5,70.8,26.3z"/>
			<path class="st475" d="M70.8,26.3c-1.5-0.2-2.7,2.5-0.8,3.5c1.8,1,3.3-0.4,3-1C72.8,28.1,71.6,26.4,70.8,26.3z"/>
			<path class="st472" d="M68.2,29c0.1-0.5,1.6,2,2.9,2.3c2.3,0.5,1.7-1.8,1.9-1.7c0.2,0.1,0.2,2.4-1.9,2.1
				C69,31.5,68.1,29.8,68.2,29z"/>
		</g>
		<g>
			
				<linearGradient id="SVGID_6_" gradientUnits="userSpaceOnUse" x1="89.8044" y1="350.1046" x2="89.8044" y2="346.4145" gradientTransform="matrix(0.9095 0.4156 -0.4156 0.9095 100.1971 -311.9264)">
				<stop  offset="0" style="stop-color:#FFDC00"/>
				<stop  offset="1" style="stop-color:#FF5900"/>
			</linearGradient>
			<path class="st4" d="M37.2,40.2C35.5,40,33.8,43,36.8,44C39.8,45,39,40.4,37.2,40.2z"/>
			<path class="st475" d="M37.2,40.2c-1.1-0.2-2,1.7-0.6,2.5c1.3,0.8,2.3-0.2,2.2-0.7C38.6,41.5,37.8,40.3,37.2,40.2z"/>
			<path class="st472" d="M35.3,42.1c0.1-0.3,1.1,1.5,2,1.7c1.6,0.4,1.3-1.3,1.4-1.1c0.1,0.1,0.1,1.7-1.4,1.5
				C35.8,43.9,35.2,42.7,35.3,42.1z"/>
		</g>
		<path class="st470" d="M26.4,6.9c0,0,0.5,23.7,0.9,35.1c0.4,11.4-0.5,29.8-0.5,29.8S23.5,35.5,26.4,6.9z"/>
	</g>
</g>
</svg>
