<?xml version="1.0" encoding="utf-8"?>
<!-- Generator: Adobe Illustrator 22.0.1, SVG Export Plug-In . SVG Version: 6.00 Build 0)  -->
<svg version="1.1" xmlns="http://www.w3.org/2000/svg" xmlns:xlink="http://www.w3.org/1999/xlink" x="0px" y="0px"
	 viewBox="0 0 100 100" style="enable-background:new 0 0 100 100;" xml:space="preserve">
<style type="text/css">
	.st0{clip-path:url(#SVGID_2_);}
	.st1{fill:url(#SVGID_3_);}
	.st2{fill:url(#SVGID_4_);}
	.st3{fill:url(#SVGID_5_);}
	.st4{fill:url(#SVGID_6_);}
	.st5{fill:url(#SVGID_7_);}
	.st6{opacity:0.5;}
	.st7{fill:url(#SVGID_8_);}
	.st8{fill:url(#SVGID_9_);}
	.st9{fill:url(#SVGID_10_);}
	.st10{fill:url(#SVGID_11_);}
	.st11{fill:url(#SVGID_12_);}
	.st12{fill:url(#SVGID_13_);}
	.st13{fill:url(#SVGID_14_);}
	.st14{fill:url(#SVGID_15_);}
	.st15{fill:url(#SVGID_16_);}
	.st16{fill:url(#SVGID_17_);}
	.st17{fill:url(#SVGID_18_);}
	.st18{fill:url(#SVGID_19_);}
	.st19{fill:url(#SVGID_20_);}
	.st20{fill:url(#SVGID_21_);}
	.st21{fill:url(#SVGID_22_);}
	.st22{fill:url(#SVGID_23_);}
	.st23{fill:url(#SVGID_24_);}
	.st24{fill:url(#SVGID_25_);}
	.st25{fill:url(#SVGID_26_);}
	.st26{fill:url(#SVGID_27_);}
	.st27{fill:url(#SVGID_28_);}
	.st28{fill:url(#SVGID_29_);}
	.st29{fill:url(#SVGID_30_);}
	.st30{fill:url(#SVGID_31_);}
	.st31{fill:url(#SVGID_32_);}
	.st32{fill:url(#SVGID_33_);}
	.st33{fill:url(#SVGID_34_);}
	.st34{fill:url(#SVGID_35_);}
	.st35{fill:url(#SVGID_36_);}
	.st36{fill:url(#SVGID_37_);}
	.st37{fill:url(#SVGID_38_);}
	.st38{fill:url(#SVGID_39_);}
	.st39{fill:url(#SVGID_40_);}
	.st40{fill:url(#SVGID_41_);}
	.st41{fill:url(#SVGID_42_);}
	.st42{fill:url(#SVGID_43_);}
	.st43{fill:url(#SVGID_44_);}
	.st44{fill:url(#SVGID_45_);}
	.st45{fill:url(#SVGID_46_);}
	.st46{fill:url(#SVGID_47_);}
	.st47{fill:url(#SVGID_48_);}
	.st48{fill:url(#SVGID_49_);}
	.st49{fill:url(#SVGID_50_);}
	.st50{fill:url(#SVGID_51_);}
	.st51{fill:url(#SVGID_52_);}
	.st52{fill:url(#SVGID_53_);}
	.st53{fill:url(#SVGID_54_);}
	.st54{opacity:0.5;fill:url(#SVGID_55_);}
	.st55{fill:#FFFFFF;}
	.st56{opacity:0.5;fill:url(#SVGID_56_);}
	.st57{opacity:0.3;fill:#6D109D;}
	.st58{opacity:0.3;fill:#FFFFFF;}
	.st59{opacity:0.5;fill:url(#SVGID_57_);}
	.st60{fill:url(#SVGID_58_);}
	.st61{opacity:0.5;fill:url(#SVGID_59_);}
	.st62{opacity:0.5;fill:url(#SVGID_60_);}
	.st63{opacity:0.5;fill:url(#SVGID_61_);}
	.st64{fill:url(#SVGID_62_);}
	.st65{opacity:0.5;fill:url(#SVGID_63_);}
	.st66{opacity:0.5;fill:url(#SVGID_64_);}
	.st67{opacity:0.5;fill:url(#SVGID_65_);}
	.st68{fill:url(#SVGID_66_);}
	.st69{opacity:0.5;fill:url(#SVGID_67_);}
	.st70{opacity:0.5;fill:url(#SVGID_68_);}
	.st71{opacity:0.5;fill:url(#SVGID_69_);}
	.st72{opacity:0.5;fill:url(#SVGID_70_);}
	.st73{opacity:0.5;fill:url(#SVGID_71_);}
	.st74{opacity:0.5;fill:#FFFFFF;}
	.st75{opacity:0.5;fill:url(#SVGID_72_);}
	.st76{opacity:0.5;fill:url(#SVGID_73_);}
	.st77{opacity:0.5;fill:url(#SVGID_74_);}
	.st78{opacity:0.5;fill:url(#SVGID_75_);}
	.st79{opacity:0.5;fill:url(#SVGID_76_);}
	.st80{opacity:0.5;fill:url(#SVGID_77_);}
	.st81{opacity:0.3;fill:url(#SVGID_78_);}
	.st82{opacity:0.3;fill:url(#SVGID_79_);}
	.st83{opacity:0.3;fill:url(#SVGID_80_);}
	.st84{opacity:0.3;fill:url(#SVGID_81_);}
	.st85{opacity:0.3;fill:url(#SVGID_82_);}
	.st86{opacity:0.3;fill:url(#SVGID_83_);}
	.st87{opacity:0.3;fill:url(#SVGID_84_);}
	.st88{opacity:0.3;fill:url(#SVGID_85_);}
	.st89{opacity:0.3;fill:url(#SVGID_86_);}
	.st90{opacity:0.3;fill:url(#SVGID_87_);}
	.st91{opacity:0.3;fill:url(#SVGID_88_);}
	.st92{opacity:0.3;fill:url(#SVGID_89_);}
	.st93{opacity:0.3;fill:url(#SVGID_90_);}
	.st94{opacity:0.3;fill:url(#SVGID_91_);}
	.st95{opacity:0.3;fill:url(#SVGID_92_);}
	.st96{opacity:0.3;fill:url(#SVGID_93_);}
	.st97{opacity:0.3;fill:url(#SVGID_94_);}
	.st98{opacity:0.3;fill:url(#SVGID_95_);}
	.st99{opacity:0.3;fill:url(#SVGID_96_);}
	.st100{opacity:0.3;fill:url(#SVGID_97_);}
	.st101{opacity:0.3;fill:url(#SVGID_98_);}
	.st102{opacity:0.3;fill:url(#SVGID_99_);}
	.st103{opacity:0.3;fill:url(#SVGID_100_);}
	.st104{opacity:0.3;fill:url(#SVGID_101_);}
	.st105{opacity:0.3;fill:url(#SVGID_102_);}
	.st106{opacity:0.3;fill:url(#SVGID_103_);}
	.st107{opacity:0.3;fill:url(#SVGID_104_);}
	.st108{opacity:0.3;fill:url(#SVGID_105_);}
	.st109{opacity:0.3;fill:url(#SVGID_106_);}
	.st110{opacity:0.3;fill:url(#SVGID_107_);}
	.st111{opacity:0.3;fill:url(#SVGID_108_);}
	.st112{opacity:0.3;fill:url(#SVGID_109_);}
	.st113{opacity:0.3;fill:url(#SVGID_110_);}
	.st114{opacity:0.3;fill:url(#SVGID_111_);}
	.st115{opacity:0.3;fill:url(#SVGID_112_);}
	.st116{opacity:0.3;fill:url(#SVGID_113_);}
	.st117{opacity:0.3;fill:url(#SVGID_114_);}
	.st118{opacity:0.3;fill:url(#SVGID_115_);}
	.st119{opacity:0.3;fill:url(#SVGID_116_);}
	.st120{opacity:0.3;fill:url(#SVGID_117_);}
	.st121{fill:#2B0038;}
	.st122{fill:url(#SVGID_118_);}
	.st123{fill:url(#SVGID_119_);}
	.st124{fill:url(#SVGID_120_);}
	.st125{fill:url(#SVGID_121_);}
	.st126{fill:url(#SVGID_122_);}
	.st127{fill:url(#SVGID_123_);}
	.st128{opacity:0.6;fill:#9A1842;}
	.st129{opacity:0.8;fill:#9A2E69;}
	.st130{fill:#8300C0;}
	.st131{fill:url(#SVGID_124_);}
	.st132{opacity:0.4;fill:#D41892;}
	.st133{fill:#FF9650;}
	.st134{fill:url(#SVGID_125_);}
	.st135{fill:url(#SVGID_126_);}
	.st136{fill:url(#SVGID_127_);}
	.st137{fill:url(#SVGID_128_);}
	.st138{opacity:0.4;}
	.st139{fill:#98003B;}
	.st140{fill:#FF7A4A;}
	.st141{fill:#FF924A;}
	.st142{fill:url(#SVGID_129_);}
	.st143{fill:url(#SVGID_130_);}
	.st144{fill:url(#SVGID_131_);}
	.st145{opacity:0.71;fill:#CA6D92;}
	.st146{fill:#FFE3EA;}
	.st147{fill:url(#SVGID_132_);}
	.st148{fill:url(#SVGID_133_);}
	.st149{fill:url(#SVGID_134_);}
	.st150{fill:url(#SVGID_135_);}
	.st151{fill:url(#SVGID_136_);}
	.st152{fill:url(#SVGID_137_);}
	.st153{fill:url(#SVGID_138_);}
	.st154{fill:url(#SVGID_139_);}
	.st155{fill:url(#SVGID_140_);}
	.st156{fill:url(#SVGID_141_);}
	.st157{fill:url(#SVGID_142_);}
	.st158{fill:url(#SVGID_143_);}
	.st159{fill:url(#SVGID_144_);}
	.st160{fill:url(#SVGID_145_);}
	.st161{opacity:0.8;}
	.st162{fill:#9A2E69;}
	.st163{fill:url(#SVGID_146_);}
	.st164{fill:url(#SVGID_147_);}
	.st165{fill:url(#SVGID_148_);}
	.st166{fill:url(#SVGID_149_);}
	.st167{fill:url(#SVGID_150_);}
	.st168{fill:url(#SVGID_151_);}
	.st169{fill:url(#SVGID_152_);}
	.st170{fill:url(#SVGID_153_);}
	.st171{fill:url(#SVGID_154_);}
	.st172{fill:url(#SVGID_155_);}
	.st173{fill:url(#SVGID_156_);}
	.st174{fill:url(#SVGID_157_);}
	.st175{fill:url(#SVGID_158_);}
	.st176{fill:url(#SVGID_159_);}
	.st177{fill:url(#SVGID_160_);}
	.st178{fill:url(#SVGID_161_);}
	.st179{fill:url(#SVGID_162_);}
	.st180{fill:url(#SVGID_163_);}
	.st181{fill:url(#SVGID_164_);}
	.st182{fill:url(#SVGID_165_);}
	.st183{fill:url(#SVGID_166_);}
	.st184{fill:url(#SVGID_167_);}
	.st185{fill:url(#SVGID_168_);}
	.st186{fill:url(#SVGID_169_);}
	.st187{fill:url(#SVGID_170_);}
	.st188{fill:url(#SVGID_171_);}
	.st189{fill:url(#SVGID_172_);}
	.st190{fill:url(#SVGID_173_);}
	.st191{fill:#90DEFF;}
	.st192{opacity:0.5;fill:url(#SVGID_174_);}
	.st193{opacity:0.5;fill:url(#SVGID_175_);}
	.st194{fill:url(#SVGID_176_);}
	.st195{opacity:0.2;fill:#FFFFFF;}
	.st196{fill:#BF77D8;}
	.st197{fill:url(#SVGID_177_);}
	.st198{fill:url(#SVGID_178_);}
	.st199{fill:url(#SVGID_179_);}
	.st200{fill:url(#SVGID_180_);}
	.st201{fill:url(#SVGID_181_);}
	.st202{fill:url(#SVGID_182_);}
	.st203{fill:url(#SVGID_183_);}
	.st204{opacity:0.8;fill:#E72F92;}
	.st205{opacity:0.6;fill:#E72F92;}
	.st206{opacity:0.5;fill:#E72F92;}
	.st207{fill:#FFD8FF;}
	.st208{opacity:0.8;fill:#A6004A;}
	.st209{opacity:0.5;fill:#A6004A;}
	.st210{opacity:0.5;fill:#BD004A;}
	.st211{opacity:0.3;fill:#FFD8FF;}
	.st212{fill:url(#SVGID_184_);}
	.st213{fill:url(#SVGID_185_);}
	.st214{opacity:0.5;fill:#E75992;}
	.st215{opacity:0.5;fill:#FFD8FF;}
	.st216{fill:url(#SVGID_186_);}
	.st217{opacity:0.6;fill:#BF2A92;}
	.st218{fill:#FFB8DF;}
	.st219{opacity:0.5;fill:#D15992;}
	.st220{fill:#FFB895;}
	.st221{fill:#FF938B;}
	.st222{fill:url(#SVGID_187_);}
	.st223{fill:#6D181D;}
	.st224{fill:url(#SVGID_188_);}
	.st225{opacity:0.6;fill:#BF6D92;}
	.st226{opacity:0.7;fill:#BF6D92;}
	.st227{fill:#BF6D92;}
	.st228{opacity:0.5;fill:#FFA7A1;}
	.st229{fill:#FF7A5F;}
	.st230{fill:#A8292F;}
	.st231{opacity:0.6;fill:#CB89A7;}
	.st232{fill:#E0574F;}
	.st233{opacity:0.7;}
	.st234{opacity:0.8;fill:#BF6D92;}
	.st235{opacity:0.3;fill:#BF6D92;}
	.st236{fill:#FFA9A4;}
	.st237{opacity:0.5;fill:#BF6D92;}
	.st238{fill:#FF8189;}
	.st239{fill:url(#SVGID_189_);}
	.st240{fill:url(#SVGID_190_);}
	.st241{opacity:0.2;fill:#E72F92;}
	.st242{opacity:0.5;fill:#FFECA4;}
	.st243{opacity:0.3;fill:#FF6D92;}
	.st244{opacity:0.6;fill:#D41892;}
	.st245{opacity:0.69;fill:#FFECA4;}
	.st246{opacity:0.6;fill:#E77592;}
	.st247{opacity:0.5;fill:#FFFFA4;}
	.st248{fill:#FFECA4;}
	.st249{fill:url(#SVGID_191_);}
	.st250{fill:url(#SVGID_192_);}
	.st251{fill:#FFAE90;}
	.st252{fill:url(#SVGID_193_);}
	.st253{fill:url(#SVGID_194_);}
	.st254{fill:url(#SVGID_195_);}
	.st255{opacity:0.5;fill:#BF2A92;}
	.st256{fill:#BE5548;}
	.st257{opacity:0.8;fill:#BF2A92;}
	.st258{opacity:0.5;fill:#CC7777;}
	.st259{fill:#A74E48;}
	.st260{fill:#F77A77;}
	.st261{opacity:0.3;fill:#BF2A92;}
	.st262{fill:url(#SVGID_196_);}
	.st263{fill:url(#SVGID_197_);}
	.st264{fill:url(#SVGID_198_);}
	.st265{fill:#420714;}
	.st266{fill:url(#SVGID_199_);}
	.st267{fill:url(#SVGID_200_);}
	.st268{fill:url(#SVGID_201_);}
	.st269{fill:url(#SVGID_202_);}
	.st270{opacity:0.5;fill:#F77A77;}
	.st271{fill:#B3424D;}
	.st272{fill:url(#SVGID_203_);}
	.st273{fill:url(#SVGID_204_);}
	.st274{opacity:0.57;fill:#E33292;}
	.st275{fill:#FF75C7;}
	.st276{fill:url(#SVGID_205_);}
	.st277{opacity:0.8;fill:#E50092;}
	.st278{fill:#FFB3C7;}
	.st279{opacity:0.5;fill:#E33292;}
	.st280{fill:#E50092;}
	.st281{fill:url(#SVGID_206_);}
	.st282{fill:#FF8B9A;}
	.st283{fill:url(#SVGID_207_);}
	.st284{fill:url(#SVGID_208_);}
	.st285{fill:url(#SVGID_209_);}
	.st286{fill:url(#SVGID_210_);}
	.st287{fill:url(#SVGID_211_);}
	.st288{opacity:0.5;fill:#989310;}
	.st289{fill:#B3B35E;}
	.st290{opacity:0.2;fill:#989310;}
	.st291{fill:#DBF15E;}
	.st292{fill:#B3F25E;}
	.st293{fill:url(#SVGID_212_);}
	.st294{fill:#CCE031;}
	.st295{fill:url(#SVGID_213_);}
	.st296{fill:url(#SVGID_214_);}
	.st297{fill:url(#SVGID_215_);}
	.st298{fill:url(#SVGID_216_);}
	.st299{fill:url(#SVGID_217_);}
	.st300{fill:#FFE0D3;}
	.st301{opacity:0.2;fill:#FE5B92;}
	.st302{fill:url(#SVGID_218_);}
	.st303{opacity:0.8;fill:#CA0092;}
	.st304{opacity:0.71;fill:#CA0092;}
	.st305{fill:#FFDEC7;}
	.st306{fill:#CA0092;}
	.st307{fill:url(#SVGID_219_);}
	.st308{fill:url(#SVGID_220_);}
	.st309{fill:url(#SVGID_221_);}
	.st310{fill:url(#SVGID_222_);}
	.st311{fill:url(#SVGID_223_);}
	.st312{fill:url(#SVGID_224_);}
	.st313{fill:url(#SVGID_225_);}
	.st314{fill:url(#SVGID_226_);}
	.st315{fill:url(#SVGID_227_);}
	.st316{fill:#FF5C7F;}
	.st317{fill:url(#SVGID_228_);}
	.st318{fill:url(#SVGID_229_);}
	.st319{fill:url(#SVGID_230_);}
	.st320{fill:#D65963;}
	.st321{fill:#9A2754;}
	.st322{fill:#FFD9C7;}
	.st323{fill:#B8ABC7;}
	.st324{opacity:0.5;fill:#C23E86;}
	.st325{fill:#FFA67C;}
	.st326{fill:#D8D1E0;}
	.st327{fill:url(#SVGID_231_);}
	.st328{fill:url(#SVGID_232_);}
	.st329{fill:url(#SVGID_233_);}
	.st330{fill:url(#SVGID_234_);}
	.st331{fill:url(#SVGID_235_);}
	.st332{fill:url(#SVGID_236_);}
	.st333{opacity:0.62;fill:#C44C90;}
	.st334{opacity:0.5;fill:#CB1192;}
	.st335{fill:#FFA486;}
	.st336{opacity:0.3;fill:#C61192;}
	.st337{fill:#FF6DA0;}
	.st338{opacity:0.8;fill:#C44790;}
	.st339{opacity:0.5;fill:#C44C90;}
	.st340{opacity:0.7;fill:#C44790;}
	.st341{fill:#FF72AA;}
	.st342{fill:url(#SVGID_237_);}
	.st343{opacity:0.5;fill:#C95459;}
	.st344{fill:url(#SVGID_238_);}
	.st345{fill:url(#SVGID_239_);}
	.st346{fill:url(#SVGID_240_);}
	.st347{fill:url(#SVGID_241_);}
	.st348{fill:url(#SVGID_242_);}
	.st349{fill:url(#SVGID_243_);}
	.st350{fill:url(#SVGID_244_);}
	.st351{fill:url(#SVGID_245_);}
	.st352{fill:url(#SVGID_246_);}
	.st353{fill:url(#SVGID_247_);}
	.st354{fill:url(#SVGID_248_);}
	.st355{fill:url(#SVGID_249_);}
	.st356{fill:url(#SVGID_250_);}
	.st357{fill:url(#SVGID_251_);}
	.st358{opacity:0.2;fill:#CA1B3B;}
	.st359{opacity:0.64;fill:#CC5748;}
	.st360{fill:#B3FF5E;}
	.st361{opacity:0.5;fill:#D31F90;}
	.st362{opacity:0.2;fill:#CA0092;}
	.st363{fill:url(#SVGID_252_);}
	.st364{fill:url(#SVGID_253_);}
	.st365{fill:url(#SVGID_254_);}
	.st366{fill:url(#SVGID_255_);}
	.st367{fill:url(#SVGID_256_);}
	.st368{opacity:0.2;fill:#F2513B;}
	.st369{opacity:0.97;fill:#FFECA4;}
	.st370{fill:#FF956D;}
	.st371{opacity:0.3;fill:#E77592;}
	.st372{opacity:0.36;fill:#E77592;}
	.st373{fill:url(#SVGID_257_);}
	.st374{fill:url(#SVGID_258_);}
	.st375{fill:url(#SVGID_259_);}
	.st376{fill:url(#SVGID_260_);}
	.st377{fill:#AE4648;}
	.st378{fill:url(#SVGID_261_);}
	.st379{fill:url(#SVGID_262_);}
	.st380{fill:#988D89;}
	.st381{fill:#F4837C;}
	.st382{opacity:0.5;fill:#C94CA3;}
	.st383{fill:url(#SVGID_263_);}
	.st384{opacity:0.5;fill:#C0673B;}
	.st385{fill:#A94F37;}
	.st386{fill:url(#SVGID_264_);}
	.st387{fill:url(#SVGID_265_);}
	.st388{fill:url(#SVGID_266_);}
	.st389{fill:url(#SVGID_267_);}
	.st390{fill:url(#SVGID_268_);}
	.st391{fill:url(#SVGID_269_);}
	.st392{fill:url(#SVGID_270_);}
	.st393{opacity:0.64;fill:#DB877C;}
	.st394{opacity:0.2;fill:#DB877C;}
	.st395{fill:#FF9840;}
	.st396{opacity:0.5;fill:#FF956D;}
	.st397{fill:#CD5436;}
	.st398{fill:url(#SVGID_271_);}
	.st399{opacity:0.4;fill:#BB1892;}
	.st400{fill:#A0003B;}
	.st401{fill:url(#SVGID_272_);}
	.st402{opacity:0.64;fill:#DB727C;}
	.st403{fill:url(#SVGID_273_);}
	.st404{fill:url(#SVGID_274_);}
	.st405{opacity:0.6;fill:#C25792;}
	.st406{fill:#FF8140;}
	.st407{fill:#FF6A4D;}
	.st408{fill:url(#SVGID_275_);}
	.st409{fill:url(#SVGID_276_);}
	.st410{fill:url(#SVGID_277_);}
	.st411{fill:url(#SVGID_278_);}
	.st412{fill:url(#SVGID_279_);}
	.st413{fill:url(#SVGID_280_);}
	.st414{fill:url(#SVGID_281_);}
	.st415{fill:url(#SVGID_282_);}
	.st416{fill:url(#SVGID_283_);}
	.st417{fill:url(#SVGID_284_);}
	.st418{fill:url(#SVGID_285_);}
	.st419{opacity:0.5;fill:#CA6D92;}
	.st420{opacity:0.55;fill:#C46581;}
	.st421{fill:url(#SVGID_286_);}
	.st422{opacity:0.55;fill:#FA6D92;}
	.st423{opacity:0.55;fill:#FFD8FF;}
	.st424{fill:url(#SVGID_287_);}
	.st425{fill:#932933;}
	.st426{fill:url(#SVGID_288_);}
	.st427{fill:url(#SVGID_289_);}
	.st428{fill:url(#SVGID_290_);}
	.st429{fill:url(#SVGID_291_);}
	.st430{fill:url(#SVGID_292_);}
	.st431{fill:#FFA5A4;}
	.st432{fill:#FF837C;}
	.st433{fill:url(#SVGID_293_);}
	.st434{fill:url(#SVGID_294_);}
	.st435{fill:#B3725E;}
	.st436{opacity:0.5;fill:#B3FF5E;}
	.st437{opacity:0.3;fill:#CC5748;}
	.st438{fill:#FFD1B1;}
	.st439{fill:#89242F;}
	.st440{fill:#9F3537;}
	.st441{fill:#F47E37;}
	.st442{fill:#F48D4A;}
	.st443{fill:url(#SVGID_295_);}
	.st444{fill:url(#SVGID_296_);}
	.st445{fill:#C25437;}
	.st446{fill:#F4AC44;}
	.st447{fill:#812137;}
	.st448{fill:#E75792;}
	.st449{fill:url(#SVGID_297_);}
	.st450{opacity:0.3;fill:#912774;}
	.st451{opacity:0.5;fill:#FFEFFF;}
	.st452{opacity:0.2;fill:#A85592;}
	.st453{fill:#FF77FF;}
	.st454{fill:#880000;}
	.st455{fill:#FF4D51;}
	.st456{opacity:0.5;fill:url(#SVGID_298_);}
	.st457{opacity:0.5;fill:url(#SVGID_299_);}
	.st458{fill:#250032;}
	.st459{fill:url(#SVGID_300_);}
	.st460{opacity:0.2;fill:#FFD8FF;}
	.st461{fill:#893537;}
	.st462{fill:#9D4648;}
	.st463{fill:url(#SVGID_301_);}
	.st464{fill:#FFC1A7;}
	.st465{fill:#FFAA86;}
	.st466{fill:#FFAB9F;}
	.st467{fill:url(#SVGID_302_);}
</style>
<g id="background">
</g>
<g id="layer1">
	<path class="st458" d="M15.9,50C0.7,65.6,12.5,98.7,51,96c38.5-2.8,49.9-37.3,39.1-48.6C79.4,36.1,39,26.4,15.9,50z"/>
	<g>
		<linearGradient id="SVGID_2_" gradientUnits="userSpaceOnUse" x1="52.7065" y1="79.7254" x2="52.7065" y2="1.6664">
			<stop  offset="0" style="stop-color:#4F0C1F"/>
			<stop  offset="0.307" style="stop-color:#561020"/>
			<stop  offset="0.751" style="stop-color:#691A22"/>
			<stop  offset="1" style="stop-color:#772224"/>
		</linearGradient>
		<path style="fill:url(#SVGID_2_);" d="M95.5,71.7c-1,1.9-8.4,5.5-13.9,6.2c-5.4,0.6-12.3,1.2-19.7,1.5C38.4,80.5,10,79.3,8.9,70
			c-0.1-0.6-0.1-1.2-0.1-1.8c-0.9-23,26.1-66,39-66c4,0,11-1.9,15.7,1.9c12.3,9.8,25.2,31.9,30.5,48.7c1.1,3.5,1.9,6.8,2.3,9.7
			c0,0,0,0.1,0,0.1C96.9,66.4,96.6,69.6,95.5,71.7z"/>
		<path class="st255" d="M53.4,6.5c-1,0.1,0.4-0.4,12.6,26.4c13.6,29.9,12.1,42.8,13.3,43.8c1.2,1,14.9-4.4,16.5-7.9
			c1.6-3.4-2.3-20.7-13.2-41C71.7,7.4,63.4,5.2,53.4,6.5z"/>
		<path class="st211" d="M11.7,70.8c1.6,7.1,56.9,11.3,63.1,3.6C81,66.7,55.8,2,46.1,3.4C36.3,4.9,7,49.7,11.7,70.8z"/>
		<path class="st460" d="M43.5,3.4c3.6-2.4,6.8,0.8,8.2,2.4c1.4,1.6,10.9,0,11.4-0.9C63.6,4,63.5,1.6,55,1.7
			C46.5,1.7,45.3,2.4,43.5,3.4z"/>
		<path class="st460" d="M56.4,6.9c-1.5,1.4,9.8,26.3,12.9,31.2c3.1,5,19.2,2.7,19.1,1.5c-0.1-1.2-13.8-23.2-17.3-27.5
			c-3.5-4.2-4.5-5.1-6-6C63.6,5.2,56.4,6.9,56.4,6.9z"/>
		<path class="st255" d="M95.5,71.7c-1,1.9-8.4,5.5-13.9,6.2C59.2,80.4,10.3,82.3,8.9,70c-0.1-0.6-0.1-1.2-0.1-1.8
			c0.5,0.9,5.3,9,34.2,10.1c30.6,1.3,32.2-4,36.2-4.5c4-0.6,11.9-1.7,14.9-3.1c2.6-1.2,2.4-6.8,2.3-8.1
			C96.9,66.4,96.6,69.6,95.5,71.7z"/>
		<path class="st255" d="M65.1,79.2c0,0,9.1-3.8,12.4-5c3.4-1.1,11.8,0.3,12.4,0.6C90.6,75.1,86.9,78.8,65.1,79.2z"/>
		<path class="st461" d="M53.4,7.4c0,0,16.5,32.4,23.5,56.3C76.9,63.7,74.6,38.4,53.4,7.4z"/>
		<path class="st255" d="M11.2,52.7c0,0,14.3-35,32.3-49.3C43.5,3.4,23.1,13.7,11.2,52.7z"/>
		<path class="st462" d="M53.4,7.4c-0.4-0.2-3.2-4.4-6-4.7s-4.2,0.9-4.2,0.9s2-1.3,5.1-1.5c3.1-0.2,4.8,2,5.1,2.9
			C53.7,5.9,53.4,7.4,53.4,7.4z"/>
		<g>
			<linearGradient id="SVGID_3_" gradientUnits="userSpaceOnUse" x1="42.6719" y1="72.883" x2="42.6719" y2="10.8989">
				<stop  offset="0" style="stop-color:#9A2933"/>
				<stop  offset="1" style="stop-color:#B1383B"/>
			</linearGradient>
			<path class="st1" d="M27.2,21.4c0,0-1.5-4.2,1.2-5.8c8.6-5.2,22.3-6.3,27.1-2.3c5.1,4.3,1.5,15-12.7,17.4
				c-14.1,2.3-18.1,1.7-18.6,4.7c-1.1,5.8,6.9,9.7,26.1,10.2c22,0.5,21.6,9,21.7,17c0.1,12.1-34.5,12.8-51.9,5.7
				c-9-3.7-6.7-10-5.6-12.1c1-2.1,5,7.4,20.3,8.2c15.8,0.8,27.9-1.5,29.2-4.7c1.8-4.6-3-7.5-18.2-7.3c-14.9,0.2-24.5-6.5-27.2-11.5
				c-2.5-4.7-1.2-7.9,5.1-11.4c6.2-3.4,22.3-4.2,26.7-7.7c4.3-3.4,2.7-5.9-2.6-6.1C42.6,15.5,29.4,17.2,27.2,21.4z"/>
			<path class="st257" d="M27.2,21.4c0,0-0.8-1.7,3-3.9c6.2-3.4,15.5-3.7,19.9-2.6c3.3,0.8,2.7,3.9,2.7,3.9s-0.5-2.7-4.5-2.5
				C44.5,16.6,32.7,18.3,27.2,21.4z"/>
			<path class="st257" d="M24.2,37.1c0,0-0.9-2.4,0.7-3.7c3.2-2.7,15.2-1.5,23.9-5.7c8.5-4,9-9.5,9-9.5s1,8.8-4.8,13.5
				C46.9,36.6,24.7,33.7,24.2,37.1z"/>
			<path class="st257" d="M18.6,40.9c0,0,4.8,7,17.9,10c13.9,3.1,21.4,0,26.3,3.1c5.1,3.2,0.3,6.8,0.3,6.8s0-5.8-5.7-6.7
				c-5.6-0.9-13,4.3-24.1,2.2C22.6,54.3,18.6,40.9,18.6,40.9z"/>
			<path class="st257" d="M13.4,61.3c0,0,5.9,12.3,30.9,10.8c25.7-1.6,27.6-11.5,27.6-11.5s2.2,9.2-9.2,12.1
				C51.2,75.7,13.5,76.9,13.4,61.3z"/>
			<path class="st211" d="M31.7,46.1c-2.6,0.5-14-3.4-13.6-9.6c0.4-5.9,6.2-8,13.8-9.5c7.6-1.5,15.8-3.3,16.7-1.4
				c0.9,1.9-10.3,4.6-20,6.3c-9.7,1.7-4.1,9.7,3.1,12.1C39.1,46.5,34.5,45.5,31.7,46.1z"/>
			<path class="st211" d="M31.4,14.1c-3.6,4,4.5,0.3,11.9,0.3c7.6,0.1,10.1,1.9,11.6,0.4c1.5-1.4-4.7-4.6-11.2-3.8
				C37.2,11.8,31.4,14.1,31.4,14.1z"/>
			<path class="st211" d="M27.7,64.2c-9.2-1.6,0.4,9.8,14.7,8.5c14.5-1.3,18.4-4.4,20-7.7C63.9,61.7,52.4,68.6,27.7,64.2z"/>
			<path class="st55" d="M39.7,12.2c-1.5,1.6,3.5,0.4,4.2-0.2C44.5,11.4,40.8,10.9,39.7,12.2z"/>
			<path class="st55" d="M21.6,33.5c-1,0,1-2.2,1.9-2C24.4,31.7,23.2,33.4,21.6,33.5z"/>
			<path class="st55" d="M67.2,52.3c-2.1,0.1,0.2,5.1,2.2,5.2C71.5,57.5,70.9,52.1,67.2,52.3z"/>
			<path class="st55" d="M26.4,66.5c-0.4-1.1,1.9-1.5,2.8-0.3C30,67.4,27,68.1,26.4,66.5z"/>
		</g>
		<path class="st55" d="M51.1,2.7c-1.5-0.6,1,4.1,2.3,4.7C54.6,8,56.5,4.8,51.1,2.7z"/>
		<path class="st260" d="M43.9,47.3c-1.1-0.7,0.2-3.8,1.9-4.9c1.7-1.1,4.6,2.1,4.9,3.8C50.9,47.8,43.9,47.3,43.9,47.3z"/>
		<path class="st260" d="M48.8,51.2c0-2,4.3-1.7,5.5-1c1.2,0.7-0.3,3.1-2.8,3.7C49,54.5,48.8,51.2,48.8,51.2z"/>
		<path class="st260" d="M33.4,26.5c-1.6-3.1,4.3-6.4,6.1-6.4c1.8,0,6.2,2,6,3.4C45.5,24.9,36,31.5,33.4,26.5z"/>
		<path class="st260" d="M43.8,28.9c-1-3.4,6.6-6.2,8.2-2.2C53.7,30.7,44.4,30.9,43.8,28.9z"/>
		<path class="st260" d="M37.1,68.4c-2.5,2.1-0.4,4.2,1.6,4.7c2,0.5,4.2-3,4.6-3.9C43.6,68.2,38,67.7,37.1,68.4z"/>
		<path class="st260" d="M47.4,69.8c-0.1-1.5,2.2-0.7,2.7,0C50.5,70.5,47.6,72.5,47.4,69.8z"/>
		<path class="st260" d="M27.3,16.7c-0.9,0.1-1.1-1.3,0.6-3.8c1.6-2.4,4.1-0.6,4.1,0.9C32,15.4,27.3,16.7,27.3,16.7z"/>
		<path class="st260" d="M26,28.6c-0.5,0,0.7-2.4,2.4-2.7c1.8-0.2,2.2,0.9,2,1.6C30.3,28.2,26,28.6,26,28.6z"/>
		<path class="st260" d="M13.7,58.7c-0.7-1.5-0.7-6,1.5-7.2c2.2-1.1,6.5,4.1,4.9,6.5C18.4,60.4,14.6,60.5,13.7,58.7z"/>
		<path class="st257" d="M13.3,56c0.4,2.6,2.7,3.9,4,3.8s2.3-1.3,2.3-1.3s0.2,2.1-3.2,3C13.1,62.3,13.3,56,13.3,56z"/>
		<path class="st257" d="M36,70.6c0,0.2,4.5,1.2,4.7,1.3c0.2,0.1,1-0.4,1-0.4S40,74,38.8,74.2C36,74.6,36,70.6,36,70.6z"/>
		<path class="st257" d="M47.4,70c0.2,0.7,2.4,0.4,2.4,0.4s-0.4,1.4-1.6,1.3C47.1,71.6,47.4,70,47.4,70z"/>
		<path class="st257" d="M43.6,45.7c-0.1,0.7,3,1.3,4.6,1.3c1.6,0,2.3-1.7,2.3-1.7s0.7,0.6,0.8,1.2c0,0.6-1.1,1.8-4.5,1.9
			c-3.4,0.1-3.2-1.6-3.2-1.6L43.6,45.7z"/>
		<path class="st257" d="M49.2,52.7c0.7,0.9,5.2-2.1,5.5-2.1c0.2,0,0,1.6,0,1.6s-0.3,2.6-2.9,3.4C49.1,56.4,49.2,52.7,49.2,52.7z"/>
		<path class="st257" d="M33.2,25.9c0.5,1.1,7,0.6,8.9,0c1.9-0.6,3.3-2,3.3-2s-2,3.1-4.8,4.4c-2.8,1.3-4,1.2-5,1.1
			C34.7,29.4,33.2,25.9,33.2,25.9z"/>
		<path class="st257" d="M43.8,28.9c0.8,0.7,6.8-0.6,7.4-0.8c0.6-0.2,0.7-1.6,0.7-1.6s0.7,1.1,0.8,1.9c0.1,0.8-0.4,2.3-3.3,2.9
			S44.2,29.8,43.8,28.9z"/>
		<path class="st464" d="M13.3,56c0.2,1,3.4-1.5,3.8-2.8c0.4-1.3-0.8-1.8-1.4-1.8C14.9,51.4,12.8,53.4,13.3,56z"/>
		<path class="st464" d="M44.6,43.5c-1,1.8-0.7,2.3-0.3,2.7c0.3,0.4,3.4,1,3.9,0.9s-1.1-4.7-1.8-4.7C45.8,42.3,44.6,43.5,44.6,43.5z
			"/>
		<path class="st465" d="M49.2,50.3c-0.3,0.5,3.2,1.4,3.5,1.3s1.6-1.3,1.6-1.3S50.6,49,49.2,50.3z"/>
		<path class="st465" d="M39.6,20.1c-2.9,0.5-1.8,2.2,2.3,2.6C45.8,23,42.7,19.6,39.6,20.1z"/>
		<path class="st465" d="M28.7,12.2c-0.8,0.8-1.6,2.3-1.5,3c0,0.7,3.3-1.7,3.3-2.7C30.5,11.5,28.7,12.2,28.7,12.2z"/>
		<path class="st465" d="M26.2,27.6c0,0.4,3-0.1,3.5-0.9C30.2,25.9,27.5,25.2,26.2,27.6z"/>
		<path class="st257" d="M26,28.6c0,0,2.6-0.6,3.4-0.8c0.8-0.3,1.1-0.7,1.1-0.7s0.3,0.5,0,0.9C30.2,28.3,27,28.6,26,28.6z"/>
		<path class="st464" d="M33.2,25.9c1,0.5,4.6,0.3,6.2,0.1s0.6-3.7-0.3-4.6c-0.9-0.9-1.8-0.5-1.8-0.5S32.7,23.2,33.2,25.9z"/>
		<path class="st260" d="M49.2,67.2c-1.6-3.1,4.3-6.4,6.1-6.4c1.8,0,6.2,2,6,3.4C61.2,65.5,51.7,72.2,49.2,67.2z"/>
		<path class="st257" d="M49,66.6c0.5,1.1,7,0.6,8.9,0c1.9-0.6,3.3-2,3.3-2s-2,3.1-4.8,4.4c-2.8,1.3-4,1.2-5,1.1
			C50.4,70.1,49,66.6,49,66.6z"/>
		<path class="st466" d="M49,66.6c1,0.5,4.6,0.3,6.2,0.1c1.6-0.2,0.6-3.7-0.3-4.6c-0.9-0.9-1.8-0.5-1.8-0.5S48.4,63.9,49,66.6z"/>
		<path class="st464" d="M30.5,12.2c-0.2-0.1,0.2,0.6,0.5,0.8c0.3,0.2,0.7,0.2,0.7,0.2S31.6,12.2,30.5,12.2z"/>
		<path class="st257" d="M27.3,16.7c0,0,1-2.2,2.2-3c1.2-0.8,2.4-0.2,2.4-0.2s0.3,0.5,0.2,1c-0.1,0.5-2,2.1-3.2,2.4
			C27.8,17.3,27.3,16.7,27.3,16.7z"/>
		<path class="st464" d="M53.4,61.4c-0.3,0.1,2.3,0.5,3.6,0.4c1.4-0.1-1.2-1-1.7-0.9C54.8,60.9,53.4,61.4,53.4,61.4z"/>
		<path class="st211" d="M12.2,71.8c-0.8-2.3,16.3,5.9,36,5.8c19.8-0.2,26.2-5.4,27.3-4.7c1,0.7-1.9,3.4-9.1,4.7
			c-7.3,1.3-22.3,0.8-35.3-0.3C18,76.2,13.9,73.3,12.2,71.8z"/>
		<path class="st255" d="M74,41.5c-2.8,0.1,2.5,14.9,2.9,17.3c0.4,2.4,16.1,3.2,17.7,2.7c1.6-0.5-4.9-19.4-6.2-20.3
			C87.1,40.3,74,41.5,74,41.5z"/>
		<path class="st278" d="M95.5,71.7c-1,1.9-8.4,5.5-13.9,6.2c-5.4,0.6-12.3,1.2-19.7,1.5c0,0,18.4-1.8,26.5-6.2
			c7.8-4.3,5.8-19.4,5.7-20.4c1.1,3.5,1.9,6.8,2.3,9.7c0,0,0,0.1,0,0.1C96.9,66.4,96.6,69.6,95.5,71.7z"/>
		<g>
			
				<linearGradient id="SVGID_4_" gradientUnits="userSpaceOnUse" x1="107.4015" y1="312.9215" x2="104.657" y2="306.4112" gradientTransform="matrix(0.9215 0.3884 -0.3884 0.9215 88.9287 -293.0439)">
				<stop  offset="0" style="stop-color:#772224"/>
				<stop  offset="0.249" style="stop-color:#691A22"/>
				<stop  offset="0.693" style="stop-color:#561020"/>
				<stop  offset="1" style="stop-color:#4F0C1F"/>
			</linearGradient>
			<path class="st2" d="M66.6,30c-3.1-0.3-5.9,5.2-0.4,6.8C71.6,38.5,69.8,30.2,66.6,30z"/>
			<path class="st384" d="M66.6,30c-2-0.3-3.4,3.2-1,4.5c2.4,1.3,4.2-0.5,3.9-1.3C69.2,32.3,67.7,30.1,66.6,30z"/>
			<path class="st385" d="M63.3,33.5c0.1-0.6,2.1,2.6,3.7,2.9c2.9,0.7,2.2-2.3,2.5-2.1c0.3,0.2,0.2,3.3-2.4,3
				C64.4,36.9,63.1,34.5,63.3,33.5z"/>
		</g>
	</g>
</g>
</svg>
