<?xml version="1.0" encoding="utf-8"?>
<!-- Generator: Adobe Illustrator 22.0.1, SVG Export Plug-In . SVG Version: 6.00 Build 0)  -->
<svg version="1.1" xmlns="http://www.w3.org/2000/svg" xmlns:xlink="http://www.w3.org/1999/xlink" x="0px" y="0px"
	 viewBox="0 0 100 100" style="enable-background:new 0 0 100 100;" xml:space="preserve">
<style type="text/css">
	.st0{clip-path:url(#SVGID_2_);}
	.st1{fill:url(#SVGID_3_);}
	.st2{fill:url(#SVGID_4_);}
	.st3{fill:url(#SVGID_5_);}
	.st4{fill:url(#SVGID_6_);}
	.st5{fill:url(#SVGID_7_);}
	.st6{opacity:0.5;}
	.st7{fill:url(#SVGID_8_);}
	.st8{fill:url(#SVGID_9_);}
	.st9{fill:url(#SVGID_10_);}
	.st10{fill:url(#SVGID_11_);}
	.st11{fill:url(#SVGID_12_);}
	.st12{fill:url(#SVGID_13_);}
	.st13{fill:url(#SVGID_14_);}
	.st14{fill:url(#SVGID_15_);}
	.st15{fill:url(#SVGID_16_);}
	.st16{fill:url(#SVGID_17_);}
	.st17{fill:url(#SVGID_18_);}
	.st18{fill:url(#SVGID_19_);}
	.st19{fill:url(#SVGID_20_);}
	.st20{fill:url(#SVGID_21_);}
	.st21{fill:url(#SVGID_22_);}
	.st22{fill:url(#SVGID_23_);}
	.st23{fill:url(#SVGID_24_);}
	.st24{fill:url(#SVGID_25_);}
	.st25{fill:url(#SVGID_26_);}
	.st26{fill:url(#SVGID_27_);}
	.st27{fill:url(#SVGID_28_);}
	.st28{fill:url(#SVGID_29_);}
	.st29{fill:url(#SVGID_30_);}
	.st30{fill:url(#SVGID_31_);}
	.st31{fill:url(#SVGID_32_);}
	.st32{fill:url(#SVGID_33_);}
	.st33{fill:url(#SVGID_34_);}
	.st34{fill:url(#SVGID_35_);}
	.st35{fill:url(#SVGID_36_);}
	.st36{fill:url(#SVGID_37_);}
	.st37{fill:url(#SVGID_38_);}
	.st38{fill:url(#SVGID_39_);}
	.st39{fill:url(#SVGID_40_);}
	.st40{fill:url(#SVGID_41_);}
	.st41{fill:url(#SVGID_42_);}
	.st42{fill:url(#SVGID_43_);}
	.st43{fill:url(#SVGID_44_);}
	.st44{fill:url(#SVGID_45_);}
	.st45{fill:url(#SVGID_46_);}
	.st46{fill:url(#SVGID_47_);}
	.st47{fill:url(#SVGID_48_);}
	.st48{fill:url(#SVGID_49_);}
	.st49{fill:url(#SVGID_50_);}
	.st50{fill:url(#SVGID_51_);}
	.st51{fill:url(#SVGID_52_);}
	.st52{fill:url(#SVGID_53_);}
	.st53{fill:url(#SVGID_54_);}
	.st54{opacity:0.5;fill:url(#SVGID_55_);}
	.st55{fill:#FFFFFF;}
	.st56{opacity:0.5;fill:url(#SVGID_56_);}
	.st57{opacity:0.3;fill:#6D109D;}
	.st58{opacity:0.3;fill:#FFFFFF;}
	.st59{opacity:0.5;fill:url(#SVGID_57_);}
	.st60{fill:url(#SVGID_58_);}
	.st61{opacity:0.5;fill:url(#SVGID_59_);}
	.st62{opacity:0.5;fill:url(#SVGID_60_);}
	.st63{opacity:0.5;fill:url(#SVGID_61_);}
	.st64{fill:url(#SVGID_62_);}
	.st65{opacity:0.5;fill:url(#SVGID_63_);}
	.st66{opacity:0.5;fill:url(#SVGID_64_);}
	.st67{opacity:0.5;fill:url(#SVGID_65_);}
	.st68{fill:url(#SVGID_66_);}
	.st69{opacity:0.5;fill:url(#SVGID_67_);}
	.st70{opacity:0.5;fill:url(#SVGID_68_);}
	.st71{opacity:0.5;fill:url(#SVGID_69_);}
	.st72{opacity:0.5;fill:url(#SVGID_70_);}
	.st73{opacity:0.5;fill:url(#SVGID_71_);}
	.st74{opacity:0.5;fill:#FFFFFF;}
	.st75{opacity:0.5;fill:url(#SVGID_72_);}
	.st76{opacity:0.5;fill:url(#SVGID_73_);}
	.st77{opacity:0.5;fill:url(#SVGID_74_);}
	.st78{opacity:0.5;fill:url(#SVGID_75_);}
	.st79{opacity:0.5;fill:url(#SVGID_76_);}
	.st80{opacity:0.5;fill:url(#SVGID_77_);}
	.st81{opacity:0.3;fill:url(#SVGID_78_);}
	.st82{opacity:0.3;fill:url(#SVGID_79_);}
	.st83{opacity:0.3;fill:url(#SVGID_80_);}
	.st84{opacity:0.3;fill:url(#SVGID_81_);}
	.st85{opacity:0.3;fill:url(#SVGID_82_);}
	.st86{opacity:0.3;fill:url(#SVGID_83_);}
	.st87{opacity:0.3;fill:url(#SVGID_84_);}
	.st88{opacity:0.3;fill:url(#SVGID_85_);}
	.st89{opacity:0.3;fill:url(#SVGID_86_);}
	.st90{opacity:0.3;fill:url(#SVGID_87_);}
	.st91{opacity:0.3;fill:url(#SVGID_88_);}
	.st92{opacity:0.3;fill:url(#SVGID_89_);}
	.st93{opacity:0.3;fill:url(#SVGID_90_);}
	.st94{opacity:0.3;fill:url(#SVGID_91_);}
	.st95{opacity:0.3;fill:url(#SVGID_92_);}
	.st96{opacity:0.3;fill:url(#SVGID_93_);}
	.st97{opacity:0.3;fill:url(#SVGID_94_);}
	.st98{opacity:0.3;fill:url(#SVGID_95_);}
	.st99{opacity:0.3;fill:url(#SVGID_96_);}
	.st100{opacity:0.3;fill:url(#SVGID_97_);}
	.st101{opacity:0.3;fill:url(#SVGID_98_);}
	.st102{opacity:0.3;fill:url(#SVGID_99_);}
	.st103{opacity:0.3;fill:url(#SVGID_100_);}
	.st104{opacity:0.3;fill:url(#SVGID_101_);}
	.st105{opacity:0.3;fill:url(#SVGID_102_);}
	.st106{opacity:0.3;fill:url(#SVGID_103_);}
	.st107{opacity:0.3;fill:url(#SVGID_104_);}
	.st108{opacity:0.3;fill:url(#SVGID_105_);}
	.st109{opacity:0.3;fill:url(#SVGID_106_);}
	.st110{opacity:0.3;fill:url(#SVGID_107_);}
	.st111{opacity:0.3;fill:url(#SVGID_108_);}
	.st112{opacity:0.3;fill:url(#SVGID_109_);}
	.st113{opacity:0.3;fill:url(#SVGID_110_);}
	.st114{opacity:0.3;fill:url(#SVGID_111_);}
	.st115{opacity:0.3;fill:url(#SVGID_112_);}
	.st116{opacity:0.3;fill:url(#SVGID_113_);}
	.st117{opacity:0.3;fill:url(#SVGID_114_);}
	.st118{opacity:0.3;fill:url(#SVGID_115_);}
	.st119{opacity:0.3;fill:url(#SVGID_116_);}
	.st120{opacity:0.3;fill:url(#SVGID_117_);}
	.st121{fill:#2B0038;}
	.st122{fill:url(#SVGID_118_);}
	.st123{fill:url(#SVGID_119_);}
	.st124{fill:url(#SVGID_120_);}
	.st125{fill:url(#SVGID_121_);}
	.st126{fill:url(#SVGID_122_);}
	.st127{fill:url(#SVGID_123_);}
	.st128{opacity:0.6;fill:#9A1842;}
	.st129{opacity:0.8;fill:#9A2E69;}
	.st130{fill:#8300C0;}
	.st131{fill:url(#SVGID_124_);}
	.st132{opacity:0.4;fill:#D41892;}
	.st133{fill:#FF9650;}
	.st134{fill:url(#SVGID_125_);}
	.st135{fill:url(#SVGID_126_);}
	.st136{fill:url(#SVGID_127_);}
	.st137{fill:url(#SVGID_128_);}
	.st138{opacity:0.4;}
	.st139{fill:#98003B;}
	.st140{fill:#FF7A4A;}
	.st141{fill:#FF924A;}
	.st142{fill:url(#SVGID_129_);}
	.st143{fill:url(#SVGID_130_);}
	.st144{fill:url(#SVGID_131_);}
	.st145{opacity:0.71;fill:#CA6D92;}
	.st146{fill:#FFE3EA;}
	.st147{fill:url(#SVGID_132_);}
	.st148{fill:url(#SVGID_133_);}
	.st149{fill:url(#SVGID_134_);}
	.st150{fill:url(#SVGID_135_);}
	.st151{fill:url(#SVGID_136_);}
	.st152{fill:url(#SVGID_137_);}
	.st153{fill:url(#SVGID_138_);}
	.st154{fill:url(#SVGID_139_);}
	.st155{fill:url(#SVGID_140_);}
	.st156{fill:url(#SVGID_141_);}
	.st157{fill:url(#SVGID_142_);}
	.st158{fill:url(#SVGID_143_);}
	.st159{fill:url(#SVGID_144_);}
	.st160{fill:url(#SVGID_145_);}
	.st161{opacity:0.8;}
	.st162{fill:#9A2E69;}
	.st163{fill:url(#SVGID_146_);}
	.st164{fill:url(#SVGID_147_);}
	.st165{fill:url(#SVGID_148_);}
	.st166{fill:url(#SVGID_149_);}
	.st167{fill:url(#SVGID_150_);}
	.st168{fill:url(#SVGID_151_);}
	.st169{fill:url(#SVGID_152_);}
	.st170{fill:url(#SVGID_153_);}
	.st171{fill:url(#SVGID_154_);}
	.st172{fill:url(#SVGID_155_);}
	.st173{fill:url(#SVGID_156_);}
	.st174{fill:url(#SVGID_157_);}
	.st175{fill:url(#SVGID_158_);}
	.st176{fill:url(#SVGID_159_);}
	.st177{fill:url(#SVGID_160_);}
	.st178{fill:url(#SVGID_161_);}
	.st179{fill:url(#SVGID_162_);}
	.st180{fill:url(#SVGID_163_);}
	.st181{fill:url(#SVGID_164_);}
	.st182{fill:url(#SVGID_165_);}
	.st183{fill:url(#SVGID_166_);}
	.st184{fill:url(#SVGID_167_);}
	.st185{fill:url(#SVGID_168_);}
	.st186{fill:url(#SVGID_169_);}
	.st187{fill:url(#SVGID_170_);}
	.st188{fill:url(#SVGID_171_);}
	.st189{fill:url(#SVGID_172_);}
	.st190{fill:url(#SVGID_173_);}
	.st191{fill:#90DEFF;}
	.st192{opacity:0.5;fill:url(#SVGID_174_);}
	.st193{opacity:0.5;fill:url(#SVGID_175_);}
	.st194{fill:url(#SVGID_176_);}
	.st195{opacity:0.2;fill:#FFFFFF;}
	.st196{fill:#BF77D8;}
	.st197{fill:url(#SVGID_177_);}
	.st198{fill:url(#SVGID_178_);}
	.st199{fill:url(#SVGID_179_);}
	.st200{fill:url(#SVGID_180_);}
	.st201{fill:url(#SVGID_181_);}
	.st202{fill:url(#SVGID_182_);}
	.st203{fill:url(#SVGID_183_);}
	.st204{opacity:0.8;fill:#E72F92;}
	.st205{opacity:0.6;fill:#E72F92;}
	.st206{opacity:0.5;fill:#E72F92;}
	.st207{fill:#FFD8FF;}
	.st208{opacity:0.8;fill:#A6004A;}
	.st209{opacity:0.5;fill:#A6004A;}
	.st210{opacity:0.5;fill:#BD004A;}
	.st211{opacity:0.3;fill:#FFD8FF;}
	.st212{fill:url(#SVGID_184_);}
	.st213{fill:url(#SVGID_185_);}
	.st214{opacity:0.5;fill:#E75992;}
	.st215{opacity:0.5;fill:#FFD8FF;}
	.st216{fill:url(#SVGID_186_);}
	.st217{opacity:0.6;fill:#BF2A92;}
	.st218{fill:#FFB8DF;}
	.st219{opacity:0.5;fill:#D15992;}
	.st220{fill:#FFB895;}
	.st221{fill:#FF938B;}
	.st222{fill:url(#SVGID_187_);}
	.st223{fill:#6D181D;}
	.st224{fill:url(#SVGID_188_);}
	.st225{opacity:0.6;fill:#BF6D92;}
	.st226{opacity:0.7;fill:#BF6D92;}
	.st227{fill:#BF6D92;}
	.st228{opacity:0.5;fill:#FFA7A1;}
	.st229{fill:#FF7A5F;}
	.st230{fill:#A8292F;}
	.st231{opacity:0.6;fill:#CB89A7;}
	.st232{fill:#E0574F;}
	.st233{opacity:0.7;}
	.st234{opacity:0.8;fill:#BF6D92;}
	.st235{opacity:0.3;fill:#BF6D92;}
	.st236{fill:#FFA9A4;}
	.st237{opacity:0.5;fill:#BF6D92;}
	.st238{fill:#FF8189;}
	.st239{fill:url(#SVGID_189_);}
	.st240{fill:url(#SVGID_190_);}
	.st241{opacity:0.2;fill:#E72F92;}
	.st242{opacity:0.5;fill:#FFECA4;}
	.st243{opacity:0.3;fill:#FF6D92;}
	.st244{opacity:0.6;fill:#D41892;}
	.st245{opacity:0.69;fill:#FFECA4;}
	.st246{opacity:0.6;fill:#E77592;}
	.st247{opacity:0.5;fill:#FFFFA4;}
	.st248{fill:#FFECA4;}
	.st249{fill:url(#SVGID_191_);}
	.st250{fill:url(#SVGID_192_);}
	.st251{fill:#FFAE90;}
	.st252{fill:url(#SVGID_193_);}
	.st253{fill:url(#SVGID_194_);}
	.st254{fill:url(#SVGID_195_);}
	.st255{opacity:0.5;fill:#BF2A92;}
	.st256{fill:#BE5548;}
	.st257{opacity:0.8;fill:#BF2A92;}
	.st258{opacity:0.5;fill:#CC7777;}
	.st259{fill:#A74E48;}
	.st260{fill:#F77A77;}
	.st261{opacity:0.3;fill:#BF2A92;}
	.st262{fill:url(#SVGID_196_);}
	.st263{fill:url(#SVGID_197_);}
	.st264{fill:url(#SVGID_198_);}
	.st265{fill:#420714;}
	.st266{fill:url(#SVGID_199_);}
	.st267{fill:url(#SVGID_200_);}
	.st268{fill:url(#SVGID_201_);}
	.st269{fill:url(#SVGID_202_);}
	.st270{opacity:0.5;fill:#F77A77;}
	.st271{fill:#B3424D;}
	.st272{fill:url(#SVGID_203_);}
	.st273{fill:url(#SVGID_204_);}
	.st274{fill:url(#SVGID_205_);}
	.st275{fill:url(#SVGID_206_);}
	.st276{fill:url(#SVGID_207_);}
	.st277{fill:url(#SVGID_208_);}
	.st278{opacity:0.5;fill:#989310;}
	.st279{fill:#B3B35E;}
	.st280{opacity:0.2;fill:#989310;}
	.st281{fill:#DBF15E;}
	.st282{fill:#B3F25E;}
	.st283{fill:url(#SVGID_209_);}
	.st284{fill:#CCE031;}
	.st285{fill:url(#SVGID_210_);}
	.st286{fill:url(#SVGID_211_);}
	.st287{fill:url(#SVGID_212_);}
	.st288{fill:url(#SVGID_213_);}
	.st289{fill:url(#SVGID_214_);}
	.st290{fill:#FFE0D3;}
	.st291{opacity:0.2;fill:#FE5B92;}
	.st292{fill:#FFB3C7;}
	.st293{fill:url(#SVGID_215_);}
	.st294{opacity:0.8;fill:#CA0092;}
	.st295{opacity:0.71;fill:#CA0092;}
	.st296{fill:#FFDEC7;}
	.st297{fill:#CA0092;}
	.st298{fill:url(#SVGID_216_);}
	.st299{fill:url(#SVGID_217_);}
	.st300{fill:url(#SVGID_218_);}
	.st301{fill:url(#SVGID_219_);}
	.st302{fill:url(#SVGID_220_);}
	.st303{fill:url(#SVGID_221_);}
	.st304{fill:url(#SVGID_222_);}
	.st305{fill:url(#SVGID_223_);}
	.st306{fill:url(#SVGID_224_);}
	.st307{fill:#FF5C7F;}
	.st308{fill:url(#SVGID_225_);}
	.st309{fill:url(#SVGID_226_);}
	.st310{fill:url(#SVGID_227_);}
	.st311{fill:#D65963;}
	.st312{fill:#9A2754;}
	.st313{fill:#FFD9C7;}
	.st314{fill:#B8ABC7;}
	.st315{opacity:0.5;fill:#C23E86;}
	.st316{fill:#FFA67C;}
	.st317{fill:#D8D1E0;}
	.st318{fill:url(#SVGID_228_);}
	.st319{fill:url(#SVGID_229_);}
	.st320{fill:url(#SVGID_230_);}
	.st321{fill:url(#SVGID_231_);}
	.st322{fill:url(#SVGID_232_);}
	.st323{fill:url(#SVGID_233_);}
	.st324{opacity:0.62;fill:#C44C90;}
	.st325{opacity:0.5;fill:#CB1192;}
	.st326{fill:#FFA486;}
	.st327{opacity:0.3;fill:#C61192;}
	.st328{fill:#FF6DA0;}
	.st329{opacity:0.8;fill:#C44790;}
	.st330{opacity:0.5;fill:#C44C90;}
	.st331{opacity:0.7;fill:#C44790;}
	.st332{fill:#FF72AA;}
	.st333{fill:url(#SVGID_234_);}
	.st334{opacity:0.5;fill:#C95459;}
	.st335{fill:url(#SVGID_235_);}
	.st336{fill:url(#SVGID_236_);}
	.st337{fill:url(#SVGID_237_);}
	.st338{fill:url(#SVGID_238_);}
	.st339{fill:url(#SVGID_239_);}
	.st340{fill:url(#SVGID_240_);}
	.st341{fill:url(#SVGID_241_);}
	.st342{fill:url(#SVGID_242_);}
	.st343{fill:url(#SVGID_243_);}
	.st344{fill:url(#SVGID_244_);}
	.st345{fill:url(#SVGID_245_);}
	.st346{fill:url(#SVGID_246_);}
	.st347{fill:url(#SVGID_247_);}
	.st348{fill:url(#SVGID_248_);}
	.st349{opacity:0.2;fill:#CA1B3B;}
	.st350{opacity:0.64;fill:#CC5748;}
	.st351{fill:#B3FF5E;}
	.st352{opacity:0.5;fill:#D31F90;}
	.st353{opacity:0.2;fill:#CA0092;}
	.st354{fill:url(#SVGID_249_);}
	.st355{fill:url(#SVGID_250_);}
	.st356{fill:url(#SVGID_251_);}
	.st357{fill:url(#SVGID_252_);}
	.st358{fill:url(#SVGID_253_);}
	.st359{opacity:0.2;fill:#F2513B;}
	.st360{opacity:0.97;fill:#FFECA4;}
	.st361{fill:#FF956D;}
	.st362{opacity:0.3;fill:#E77592;}
	.st363{opacity:0.36;fill:#E77592;}
	.st364{fill:url(#SVGID_254_);}
	.st365{fill:url(#SVGID_255_);}
	.st366{fill:url(#SVGID_256_);}
	.st367{fill:url(#SVGID_257_);}
	.st368{fill:#AE4648;}
	.st369{fill:url(#SVGID_258_);}
	.st370{fill:url(#SVGID_259_);}
	.st371{fill:#988D89;}
	.st372{fill:#F4837C;}
	.st373{opacity:0.5;fill:#C94CA3;}
	.st374{fill:url(#SVGID_260_);}
	.st375{opacity:0.5;fill:#C0673B;}
	.st376{fill:#A94F37;}
	.st377{fill:url(#SVGID_261_);}
	.st378{fill:url(#SVGID_262_);}
	.st379{fill:url(#SVGID_263_);}
	.st380{fill:url(#SVGID_264_);}
	.st381{fill:url(#SVGID_265_);}
	.st382{fill:url(#SVGID_266_);}
	.st383{fill:url(#SVGID_267_);}
	.st384{opacity:0.64;fill:#DB877C;}
	.st385{opacity:0.2;fill:#DB877C;}
	.st386{fill:#FF9840;}
	.st387{opacity:0.5;fill:#FF956D;}
	.st388{fill:#CD5436;}
	.st389{fill:url(#SVGID_268_);}
	.st390{opacity:0.4;fill:#BB1892;}
	.st391{fill:#A0003B;}
	.st392{fill:url(#SVGID_269_);}
	.st393{opacity:0.64;fill:#DB727C;}
	.st394{fill:url(#SVGID_270_);}
	.st395{fill:url(#SVGID_271_);}
	.st396{opacity:0.6;fill:#C25792;}
	.st397{fill:#FF8140;}
	.st398{fill:#FF6A4D;}
	.st399{fill:url(#SVGID_272_);}
	.st400{fill:url(#SVGID_273_);}
	.st401{fill:url(#SVGID_274_);}
	.st402{fill:url(#SVGID_275_);}
	.st403{fill:url(#SVGID_276_);}
	.st404{fill:url(#SVGID_277_);}
	.st405{fill:url(#SVGID_278_);}
	.st406{fill:url(#SVGID_279_);}
	.st407{fill:url(#SVGID_280_);}
	.st408{fill:url(#SVGID_281_);}
	.st409{fill:url(#SVGID_282_);}
	.st410{opacity:0.5;fill:#CA6D92;}
	.st411{opacity:0.55;fill:#C46581;}
	.st412{fill:url(#SVGID_283_);}
	.st413{opacity:0.55;fill:#FA6D92;}
	.st414{opacity:0.55;fill:#FFD8FF;}
	.st415{fill:url(#SVGID_284_);}
	.st416{fill:#932933;}
	.st417{fill:url(#SVGID_285_);}
	.st418{fill:url(#SVGID_286_);}
	.st419{fill:url(#SVGID_287_);}
	.st420{fill:url(#SVGID_288_);}
	.st421{fill:url(#SVGID_289_);}
	.st422{fill:#FFA5A4;}
	.st423{fill:#FF837C;}
	.st424{fill:url(#SVGID_290_);}
	.st425{fill:url(#SVGID_291_);}
	.st426{fill:#B3725E;}
	.st427{opacity:0.5;fill:#B3FF5E;}
	.st428{opacity:0.3;fill:#CC5748;}
	.st429{fill:#FFD1B1;}
	.st430{fill:#89242F;}
	.st431{fill:#9F3537;}
	.st432{fill:#F47E37;}
	.st433{fill:#F48D4A;}
	.st434{fill:url(#SVGID_292_);}
	.st435{fill:url(#SVGID_293_);}
	.st436{fill:#C25437;}
	.st437{fill:#F4AC44;}
	.st438{fill:#812137;}
	.st439{fill:#E75792;}
	.st440{fill:url(#SVGID_294_);}
	.st441{opacity:0.3;fill:#912774;}
	.st442{opacity:0.5;fill:#FFEFFF;}
	.st443{opacity:0.2;fill:#A85592;}
	.st444{fill:#FF77FF;}
	.st445{fill:#880000;}
	.st446{fill:#FF4D51;}
	.st447{opacity:0.5;fill:url(#SVGID_295_);}
	.st448{opacity:0.5;fill:url(#SVGID_296_);}
	.st449{fill:#250032;}
	.st450{fill:url(#SVGID_297_);}
	.st451{opacity:0.57;fill:#E33292;}
	.st452{fill:#FF75C7;}
	.st453{fill:url(#SVGID_298_);}
	.st454{opacity:0.8;fill:#E50092;}
	.st455{opacity:0.5;fill:#E33292;}
	.st456{fill:#E50092;}
	.st457{fill:url(#SVGID_299_);}
	.st458{fill:#FF8B9A;}
</style>
<g id="background">
</g>
<g id="layer1">
	<path class="st449" d="M19,30.9C7.2,46.4,20.6,88.3,50.5,85.5c29.9-2.8,38.7-37.3,30.4-48.6C72.5,25.7,36.9,7.2,19,30.9z"/>
	<g>
		<linearGradient id="SVGID_2_" gradientUnits="userSpaceOnUse" x1="48.1256" y1="74.1772" x2="48.1256" y2="1.6608">
			<stop  offset="0" style="stop-color:#FF3D57"/>
			<stop  offset="1" style="stop-color:#E0001D"/>
		</linearGradient>
		<path style="fill:url(#SVGID_2_);" d="M84.4,37.9c0,20-16.2,36.3-36.3,36.3c-20,0-36.3-16.2-36.3-36.3c0-1.8,0.1-3.6,0.4-5.4
			C14.9,15,29.9,1.7,48.1,1.7c17.9,0,32.7,12.9,35.7,29.9v0C84.2,33.7,84.4,35.8,84.4,37.9z"/>
		<path class="st451" d="M14.8,43.1c2.2,8.8,52,4.2,60.1-11.8c8.2-16-14.4-27-24.6-26.6C42.7,5.1,7,11.6,14.8,43.1z"/>
		<path class="st452" d="M43.8,73.9C42.1,72.4,58.3,70,70,61.7s13.8-16.9,13.8-16.9s-2.6,15.4-16.1,23.7
			C54.2,76.7,43.8,73.9,43.8,73.9z"/>
		<linearGradient id="SVGID_3_" gradientUnits="userSpaceOnUse" x1="48.375" y1="58.1113" x2="48.375" y2="28.3099">
			<stop  offset="0" style="stop-color:#FF3C46"/>
			<stop  offset="1" style="stop-color:#E0001D"/>
		</linearGradient>
		<path class="st1" d="M12.6,29.1c0,0-5.3,1.9-5.6,3.5C6.7,34.3,5.6,47.1,10.6,50c1.9,1.1,14.5,8.2,37.6,8.2c23,0,36.4-6.9,37.9-7.7
			c1.5-0.9,5.5-10.9,3.5-17.8c-0.6-2.2-6.5-4.3-6.5-4.3s1,3.2,0.6,4.1c-0.4,0.9-17.4,6.1-34.6,6.1c-17.2,0-36.2-4.6-36.8-5.9
			C12,32,12.6,29.1,12.6,29.1z"/>
		<path class="st207" d="M12.6,29.1c0,0-5.4,1.5-5.6,3.5s20.8,10.9,43.3,10.6c22.4-0.3,39-9.4,39.3-10.6c0.3-1.2-6.5-4.3-6.5-4.3
			s1.1,2.6,0.6,3.7C83.3,33.1,69,38.6,50,38.6c-19,0-36.1-5.1-37.2-5.6C11.7,32.5,12.6,29.1,12.6,29.1z"/>
		<path class="st454" d="M14.7,52c0,0,29,15.8,66.5,0.6l-0.4,0.8c0,0-10.5,9.1-33.2,9.7c-18.7,0.5-32.4-9.9-32.4-9.9L14.7,52z"/>
		<path class="st292" d="M83.1,28.3c0,0,6.2,3.1,6.5,4.3c0.3,1.2-8.2,4.6-10.9,4.6c-2.7,0,4.8-3.1,5.4-4.4
			C84.6,31.4,83.1,28.3,83.1,28.3z"/>
		<path class="st292" d="M13,28.8c0,0-5.9,2.1-5.6,3.9c0.3,1.9,11.2,4.4,13.4,4.4c2.2,0.1-7.9-3.5-8.5-4.6
			C11.8,31.5,13,28.8,13,28.8z"/>
		<path class="st55" d="M24.5,39.5c-5.5-3.4,26.2-1.2,30.7,0.7C59.7,42.1,34.1,45.3,24.5,39.5z"/>
		<path class="st455" d="M65.7,57c-13.7-0.4-2.2-12.4,5.4-16.1c7.6-3.7,16.7-5.6,17.8-5.2c1.2,0.5,0.1,10.6-5.1,14.9
			C78.6,55,69.7,57.1,65.7,57z"/>
		<path class="st292" d="M22.3,22.1c6.5,12.6,42.4,2.1,45.3-7.3c2.8-9.4-17.4-13.6-32.1-8.4C20.7,11.5,20.7,19,22.3,22.1z"/>
		<path class="st292" d="M15.8,54.3c0,0,15.5,19.7,33.8,17.7c18.2-2,29-14.5,29-14.5s-12,17-32.6,16.5
			C25.3,73.6,15.8,54.3,15.8,54.3z"/>
		<path class="st55" d="M37.4,11.8c0,4.7,4.7,3.3,4.7-1C42.2,6.6,37.4,9.8,37.4,11.8z"/>
		<path class="st456" d="M83.8,31.6L83.8,31.6c-1.3,2.2-7.1,3.3-7.1,3.3s4.1-3.3,3.3-7.5c-0.8-4.2-8.2-23.1-31.3-24.1
			c-20.9-0.9-34.4,17.1-34.4,23c-0.1,5.8,5,8.6,5,8.6l-6.9-2.3l-0.1-0.1C14.9,15,29.9,1.7,48.1,1.7C66,1.7,80.8,14.6,83.8,31.6z"/>
		<path class="st292" d="M27.7,67.8c-7.1-7.2,14.4-5.7,26.3,3C58.8,74.3,37.3,77.3,27.7,67.8z"/>
		<path class="st455" d="M11.9,49.1c-2.2-2-4-12-2.7-13s13.5,3.9,15.8,5.6c2.3,1.7,2.3,13.2,0.8,13.3C24.2,55.2,16.2,53,11.9,49.1z"
			/>
		<path class="st292" d="M68.4,7.9c0,0,10.5,11.1,14.4,19.5C82.8,27.4,79.4,14,68.4,7.9z"/>
		<path class="st292" d="M31.6,57.6c-2.8-2.1,15.5-2.1,19.4,1.2C50.9,58.8,42.4,59.8,31.6,57.6z"/>
		<path class="st292" d="M37,42.8c-10.3-0.3-7,10.9-1,12.8c6,1.9,10.8,0.4,12.2-0.7c1.4-1.1,3.2-9.6,1.8-10.6
			C48.6,43.2,37,42.8,37,42.8z"/>
		<path class="st55" d="M61.2,24.1c-2.6-0.3-1.9,6.1,0.6,6.8C64.1,31.7,64.7,24.5,61.2,24.1z"/>
		<g>
			<linearGradient id="SVGID_4_" gradientUnits="userSpaceOnUse" x1="67.8401" y1="43.598" x2="67.8401" y2="37.919">
				<stop  offset="0" style="stop-color:#FF4831"/>
				<stop  offset="1" style="stop-color:#CA0000"/>
			</linearGradient>
			<path class="st2" d="M66.6,38c-2.4,0.8-2.7,6,2,5.6C73.3,43.1,69.2,37.1,66.6,38z"/>
			<path class="st132" d="M66.6,38c-1.6,0.4-1.5,3.7,0.7,3.9c2.2,0.2,3-1.8,2.5-2.4C69.4,39,67.5,37.8,66.6,38z"/>
			<path class="st458" d="M65.3,41.9c-0.1-0.5,2.4,1.3,3.7,1.1c2.4-0.5,0.9-2.6,1.2-2.5c0.3,0.1,1.2,2.3-0.9,2.9
				C67.2,44,65.6,42.8,65.3,41.9z"/>
		</g>
		<path class="st292" d="M19.9,30.3c-2-3.8,2.8-22.3,17.5-25.6c14.6-3.3,20.5,19.8,16.3,30C52.6,37.3,23.2,36.6,19.9,30.3z"/>
	</g>
</g>
</svg>
